<mxfile host="www.draw.io" modified="2020-01-19T06:53:55.291Z" agent="Mozilla/5.0 (Windows NT 10.0; Win64; x64) AppleWebKit/537.36 (KHTML, like Gecko) Chrome/79.0.3945.117 Safari/537.36" etag="HdELDhCgNxdNZhc89HEJ" version="12.5.5" type="github" pages="2">
  <diagram id="iteJpDz0SOA4dC_pRFCU" name="Page-1">
    <mxGraphModel dx="2728" dy="1783" grid="1" gridSize="10" guides="1" tooltips="1" connect="1" arrows="1" fold="1" page="1" pageScale="1" pageWidth="827" pageHeight="1169" math="0" shadow="0">
      <root>
        <mxCell id="0"/>
        <mxCell id="1" parent="0"/>
        <mxCell id="SlGwDDFdU0wawe0dBtxq-1" value="" style="rounded=1;whiteSpace=wrap;html=1;fillColor=#A7BCD1;strokeColor=#6c8ebf;opacity=60;" parent="1" vertex="1">
          <mxGeometry x="2172.5" y="545" width="360" height="210" as="geometry"/>
        </mxCell>
        <mxCell id="SlGwDDFdU0wawe0dBtxq-2" style="edgeStyle=orthogonalEdgeStyle;rounded=0;orthogonalLoop=1;jettySize=auto;html=1;exitX=1;exitY=0.5;exitDx=0;exitDy=0;entryX=0;entryY=0.5;entryDx=0;entryDy=0;strokeColor=#000000;strokeWidth=10;fontSize=11;" parent="1" source="SlGwDDFdU0wawe0dBtxq-40" target="SlGwDDFdU0wawe0dBtxq-149" edge="1">
          <mxGeometry relative="1" as="geometry">
            <mxPoint x="1942.2142857142862" y="650.1428571428573" as="targetPoint"/>
          </mxGeometry>
        </mxCell>
        <mxCell id="SlGwDDFdU0wawe0dBtxq-3" value="" style="edgeStyle=orthogonalEdgeStyle;rounded=0;orthogonalLoop=1;jettySize=auto;html=1;strokeWidth=10;entryX=0;entryY=0.5;entryDx=0;entryDy=0;" parent="1" source="SlGwDDFdU0wawe0dBtxq-4" target="SlGwDDFdU0wawe0dBtxq-40" edge="1">
          <mxGeometry relative="1" as="geometry">
            <mxPoint x="1430" y="650" as="targetPoint"/>
          </mxGeometry>
        </mxCell>
        <mxCell id="SlGwDDFdU0wawe0dBtxq-4" value="" style="rounded=1;whiteSpace=wrap;html=1;fillColor=#d5e8d4;strokeColor=#82b366;opacity=60;" parent="1" vertex="1">
          <mxGeometry x="1040" y="497.5" width="310" height="305" as="geometry"/>
        </mxCell>
        <mxCell id="SlGwDDFdU0wawe0dBtxq-5" value="" style="shape=ellipse;fillColor=#0066CC;strokeColor=none;html=1" parent="1" vertex="1">
          <mxGeometry x="1060" y="567.5" width="20" height="20" as="geometry"/>
        </mxCell>
        <mxCell id="SlGwDDFdU0wawe0dBtxq-6" value="" style="shape=ellipse;fillColor=#0066CC;strokeColor=none;html=1" parent="1" vertex="1">
          <mxGeometry x="1120" y="507.49999999999994" width="20" height="20" as="geometry"/>
        </mxCell>
        <mxCell id="SlGwDDFdU0wawe0dBtxq-7" value="" style="shape=ellipse;fillColor=#0066CC;strokeColor=none;html=1" parent="1" vertex="1">
          <mxGeometry x="1170" y="567.5" width="20" height="20" as="geometry"/>
        </mxCell>
        <mxCell id="SlGwDDFdU0wawe0dBtxq-8" value="" style="shape=ellipse;fillColor=#0066CC;strokeColor=none;html=1" parent="1" vertex="1">
          <mxGeometry x="1245" y="507.49999999999994" width="20" height="20" as="geometry"/>
        </mxCell>
        <mxCell id="SlGwDDFdU0wawe0dBtxq-9" value="" style="shape=ellipse;fillColor=#0066CC;strokeColor=none;html=1" parent="1" vertex="1">
          <mxGeometry x="1310" y="567.5" width="20" height="20" as="geometry"/>
        </mxCell>
        <mxCell id="SlGwDDFdU0wawe0dBtxq-10" value="" style="shape=ellipse;fillColor=#0066CC;strokeColor=none;html=1" parent="1" vertex="1">
          <mxGeometry x="1170" y="667.5" width="20" height="20" as="geometry"/>
        </mxCell>
        <mxCell id="SlGwDDFdU0wawe0dBtxq-11" value="" style="shape=ellipse;fillColor=#0066CC;strokeColor=none;html=1" parent="1" vertex="1">
          <mxGeometry x="1100" y="717.5" width="20" height="20" as="geometry"/>
        </mxCell>
        <mxCell id="SlGwDDFdU0wawe0dBtxq-12" value="" style="shape=ellipse;fillColor=#0066CC;strokeColor=none;html=1" parent="1" vertex="1">
          <mxGeometry x="1260" y="707.5" width="20" height="20" as="geometry"/>
        </mxCell>
        <mxCell id="SlGwDDFdU0wawe0dBtxq-13" value="" style="shape=ellipse;fillColor=#0066CC;strokeColor=none;html=1" parent="1" vertex="1">
          <mxGeometry x="1170" y="767.5" width="20" height="20" as="geometry"/>
        </mxCell>
        <mxCell id="SlGwDDFdU0wawe0dBtxq-14" value="" style="endArrow=none;html=1;fontSize=56;strokeWidth=2;fillColor=#dae8fc;strokeColor=#6c8ebf;" parent="1" source="SlGwDDFdU0wawe0dBtxq-6" target="SlGwDDFdU0wawe0dBtxq-5" edge="1">
          <mxGeometry width="50" height="50" relative="1" as="geometry">
            <mxPoint x="1170" y="311.5" as="sourcePoint"/>
            <mxPoint x="1275" y="353.5" as="targetPoint"/>
          </mxGeometry>
        </mxCell>
        <mxCell id="SlGwDDFdU0wawe0dBtxq-15" value="" style="endArrow=none;html=1;fontSize=56;strokeWidth=2;fillColor=#dae8fc;strokeColor=#6c8ebf;" parent="1" source="SlGwDDFdU0wawe0dBtxq-8" target="SlGwDDFdU0wawe0dBtxq-6" edge="1">
          <mxGeometry width="50" height="50" relative="1" as="geometry">
            <mxPoint x="1240" y="547.5" as="sourcePoint"/>
            <mxPoint x="1100" y="587.5" as="targetPoint"/>
          </mxGeometry>
        </mxCell>
        <mxCell id="SlGwDDFdU0wawe0dBtxq-16" value="" style="endArrow=none;html=1;fontSize=56;strokeWidth=2;fillColor=#dae8fc;strokeColor=#6c8ebf;" parent="1" source="SlGwDDFdU0wawe0dBtxq-9" target="SlGwDDFdU0wawe0dBtxq-8" edge="1">
          <mxGeometry width="50" height="50" relative="1" as="geometry">
            <mxPoint x="1150" y="557.5" as="sourcePoint"/>
            <mxPoint x="1110" y="597.5" as="targetPoint"/>
          </mxGeometry>
        </mxCell>
        <mxCell id="SlGwDDFdU0wawe0dBtxq-17" value="" style="endArrow=none;html=1;fontSize=56;strokeWidth=2;fillColor=#dae8fc;strokeColor=#6c8ebf;" parent="1" source="SlGwDDFdU0wawe0dBtxq-7" target="SlGwDDFdU0wawe0dBtxq-8" edge="1">
          <mxGeometry width="50" height="50" relative="1" as="geometry">
            <mxPoint x="1160" y="567.5" as="sourcePoint"/>
            <mxPoint x="1120" y="607.5" as="targetPoint"/>
          </mxGeometry>
        </mxCell>
        <mxCell id="SlGwDDFdU0wawe0dBtxq-18" value="" style="endArrow=none;html=1;fontSize=56;strokeWidth=2;fillColor=#dae8fc;strokeColor=#6c8ebf;" parent="1" source="SlGwDDFdU0wawe0dBtxq-6" target="SlGwDDFdU0wawe0dBtxq-7" edge="1">
          <mxGeometry width="50" height="50" relative="1" as="geometry">
            <mxPoint x="1170" y="577.5" as="sourcePoint"/>
            <mxPoint x="1130" y="617.5" as="targetPoint"/>
          </mxGeometry>
        </mxCell>
        <mxCell id="SlGwDDFdU0wawe0dBtxq-19" value="" style="endArrow=none;html=1;fontSize=56;strokeWidth=2;fillColor=#dae8fc;strokeColor=#6c8ebf;" parent="1" source="SlGwDDFdU0wawe0dBtxq-7" target="SlGwDDFdU0wawe0dBtxq-10" edge="1">
          <mxGeometry width="50" height="50" relative="1" as="geometry">
            <mxPoint x="1180" y="587.5" as="sourcePoint"/>
            <mxPoint x="1140" y="627.5" as="targetPoint"/>
          </mxGeometry>
        </mxCell>
        <mxCell id="SlGwDDFdU0wawe0dBtxq-20" value="" style="endArrow=none;html=1;fontSize=56;strokeWidth=2;fillColor=#dae8fc;strokeColor=#6c8ebf;" parent="1" source="SlGwDDFdU0wawe0dBtxq-12" target="SlGwDDFdU0wawe0dBtxq-10" edge="1">
          <mxGeometry width="50" height="50" relative="1" as="geometry">
            <mxPoint x="1190" y="597.5" as="sourcePoint"/>
            <mxPoint x="1150" y="637.5" as="targetPoint"/>
          </mxGeometry>
        </mxCell>
        <mxCell id="SlGwDDFdU0wawe0dBtxq-21" value="" style="endArrow=none;html=1;fontSize=56;strokeWidth=2;fillColor=#dae8fc;strokeColor=#6c8ebf;" parent="1" source="SlGwDDFdU0wawe0dBtxq-13" target="SlGwDDFdU0wawe0dBtxq-12" edge="1">
          <mxGeometry width="50" height="50" relative="1" as="geometry">
            <mxPoint x="1200" y="607.5" as="sourcePoint"/>
            <mxPoint x="1160" y="647.5" as="targetPoint"/>
          </mxGeometry>
        </mxCell>
        <mxCell id="SlGwDDFdU0wawe0dBtxq-22" value="" style="endArrow=none;html=1;fontSize=56;strokeWidth=2;fillColor=#dae8fc;strokeColor=#6c8ebf;" parent="1" source="SlGwDDFdU0wawe0dBtxq-10" target="SlGwDDFdU0wawe0dBtxq-11" edge="1">
          <mxGeometry width="50" height="50" relative="1" as="geometry">
            <mxPoint x="1210" y="617.5" as="sourcePoint"/>
            <mxPoint x="1170" y="657.5" as="targetPoint"/>
          </mxGeometry>
        </mxCell>
        <mxCell id="SlGwDDFdU0wawe0dBtxq-23" value="" style="endArrow=none;html=1;fontSize=56;strokeWidth=2;fillColor=#dae8fc;strokeColor=#6c8ebf;" parent="1" source="SlGwDDFdU0wawe0dBtxq-5" target="SlGwDDFdU0wawe0dBtxq-11" edge="1">
          <mxGeometry width="50" height="50" relative="1" as="geometry">
            <mxPoint x="1230" y="637.5" as="sourcePoint"/>
            <mxPoint x="1190" y="677.5" as="targetPoint"/>
          </mxGeometry>
        </mxCell>
        <mxCell id="SlGwDDFdU0wawe0dBtxq-24" value="" style="endArrow=none;html=1;fontSize=56;strokeWidth=2;fillColor=#dae8fc;strokeColor=#6c8ebf;" parent="1" source="SlGwDDFdU0wawe0dBtxq-9" target="SlGwDDFdU0wawe0dBtxq-12" edge="1">
          <mxGeometry width="50" height="50" relative="1" as="geometry">
            <mxPoint x="1240" y="647.5" as="sourcePoint"/>
            <mxPoint x="1200" y="687.5" as="targetPoint"/>
          </mxGeometry>
        </mxCell>
        <mxCell id="SlGwDDFdU0wawe0dBtxq-25" value="" style="edgeStyle=orthogonalEdgeStyle;rounded=0;orthogonalLoop=1;jettySize=auto;html=1;strokeWidth=10;entryX=0;entryY=0.5;entryDx=0;entryDy=0;exitX=1;exitY=0.5;exitDx=0;exitDy=0;" parent="1" source="SlGwDDFdU0wawe0dBtxq-149" target="SlGwDDFdU0wawe0dBtxq-1" edge="1">
          <mxGeometry relative="1" as="geometry">
            <mxPoint x="2362.071428571429" y="650.1428571428573" as="targetPoint"/>
            <mxPoint x="2252.5" y="650.1428571428573" as="sourcePoint"/>
          </mxGeometry>
        </mxCell>
        <mxCell id="SlGwDDFdU0wawe0dBtxq-26" value="" style="rounded=0;whiteSpace=wrap;html=1;labelBackgroundColor=#FFFFFF;fillColor=#fff2cc;fontSize=77;opacity=60;strokeColor=#d6b656;" parent="1" vertex="1">
          <mxGeometry x="2580" y="607" width="120" height="680" as="geometry"/>
        </mxCell>
        <mxCell id="SlGwDDFdU0wawe0dBtxq-27" value="" style="shape=ellipse;fillColor=#0066CC;strokeColor=none;html=1" parent="1" vertex="1">
          <mxGeometry x="2615" y="617" width="20" height="20" as="geometry"/>
        </mxCell>
        <mxCell id="SlGwDDFdU0wawe0dBtxq-28" value="" style="shape=ellipse;fillColor=#0066CC;strokeColor=none;html=1" parent="1" vertex="1">
          <mxGeometry x="2615" y="657" width="20" height="20" as="geometry"/>
        </mxCell>
        <mxCell id="SlGwDDFdU0wawe0dBtxq-29" value="" style="shape=ellipse;fillColor=#0066CC;strokeColor=none;html=1" parent="1" vertex="1">
          <mxGeometry x="2615" y="697" width="20" height="20" as="geometry"/>
        </mxCell>
        <mxCell id="SlGwDDFdU0wawe0dBtxq-30" value="" style="shape=ellipse;html=1;strokeColor=none;fillColor=#0066CC;" parent="1" vertex="1">
          <mxGeometry x="2615" y="737" width="20" height="20" as="geometry"/>
        </mxCell>
        <mxCell id="SlGwDDFdU0wawe0dBtxq-31" value="" style="rounded=0;whiteSpace=wrap;html=1;labelBackgroundColor=#FFFFFF;fillColor=none;gradientColor=none;fontSize=77;opacity=60;" parent="1" vertex="1">
          <mxGeometry x="2615" y="617" width="20" height="660" as="geometry"/>
        </mxCell>
        <mxCell id="SlGwDDFdU0wawe0dBtxq-32" value="" style="rounded=0;whiteSpace=wrap;html=1;labelBackgroundColor=#FFFFFF;fillColor=#f8cecc;fontSize=77;opacity=60;strokeColor=#b85450;" parent="1" vertex="1">
          <mxGeometry x="2750" y="827.5" width="40" height="239" as="geometry"/>
        </mxCell>
        <mxCell id="SlGwDDFdU0wawe0dBtxq-33" value="" style="shape=ellipse;fillColor=#e1d5e7;strokeColor=#9673a6;html=1" parent="1" vertex="1">
          <mxGeometry x="2760" y="877" width="20" height="20" as="geometry"/>
        </mxCell>
        <mxCell id="SlGwDDFdU0wawe0dBtxq-34" value="" style="shape=ellipse;fillColor=#f8cecc;strokeColor=#b85450;html=1" parent="1" vertex="1">
          <mxGeometry x="2760" y="917" width="20" height="20" as="geometry"/>
        </mxCell>
        <mxCell id="SlGwDDFdU0wawe0dBtxq-35" value="" style="shape=ellipse;fillColor=#fff2cc;strokeColor=#d6b656;html=1" parent="1" vertex="1">
          <mxGeometry x="2760" y="957" width="20" height="20" as="geometry"/>
        </mxCell>
        <mxCell id="SlGwDDFdU0wawe0dBtxq-36" value="" style="shape=ellipse;html=1;strokeColor=#82b366;fillColor=#d5e8d4;" parent="1" vertex="1">
          <mxGeometry x="2760" y="837" width="20" height="20" as="geometry"/>
        </mxCell>
        <mxCell id="SlGwDDFdU0wawe0dBtxq-37" value="" style="shape=ellipse;html=1;strokeColor=#d79b00;fillColor=#ffe6cc;" parent="1" vertex="1">
          <mxGeometry x="2760" y="997" width="20" height="20" as="geometry"/>
        </mxCell>
        <mxCell id="SlGwDDFdU0wawe0dBtxq-38" value="" style="shape=ellipse;html=1;strokeColor=none;fillColor=#FF0000;" parent="1" vertex="1">
          <mxGeometry x="2760" y="1038" width="20" height="20" as="geometry"/>
        </mxCell>
        <mxCell id="SlGwDDFdU0wawe0dBtxq-39" value="" style="group;direction=west;" parent="1" vertex="1" connectable="0">
          <mxGeometry x="1422.5" y="545" width="555" height="210" as="geometry"/>
        </mxCell>
        <mxCell id="SlGwDDFdU0wawe0dBtxq-40" value="" style="rounded=1;whiteSpace=wrap;html=1;fillColor=#A7BCD1;strokeColor=#6c8ebf;opacity=60;" parent="SlGwDDFdU0wawe0dBtxq-39" vertex="1">
          <mxGeometry x="-22.5" width="352.5" height="210" as="geometry"/>
        </mxCell>
        <mxCell id="SlGwDDFdU0wawe0dBtxq-41" value="" style="shape=ellipse;fillColor=#0066CC;strokeColor=none;html=1" parent="SlGwDDFdU0wawe0dBtxq-39" vertex="1">
          <mxGeometry x="-2.5" y="50" width="20" height="20" as="geometry"/>
        </mxCell>
        <mxCell id="SlGwDDFdU0wawe0dBtxq-42" value="" style="shape=ellipse;fillColor=#0066CC;strokeColor=none;html=1" parent="SlGwDDFdU0wawe0dBtxq-39" vertex="1">
          <mxGeometry x="37.5" y="50" width="20" height="20" as="geometry"/>
        </mxCell>
        <mxCell id="SlGwDDFdU0wawe0dBtxq-43" value="" style="shape=ellipse;fillColor=#0066CC;strokeColor=none;html=1" parent="SlGwDDFdU0wawe0dBtxq-39" vertex="1">
          <mxGeometry x="77.5" y="50" width="20" height="20" as="geometry"/>
        </mxCell>
        <mxCell id="SlGwDDFdU0wawe0dBtxq-44" value="" style="shape=ellipse;fillColor=#0066CC;strokeColor=none;html=1" parent="SlGwDDFdU0wawe0dBtxq-39" vertex="1">
          <mxGeometry x="117.5" y="50" width="20" height="20" as="geometry"/>
        </mxCell>
        <mxCell id="SlGwDDFdU0wawe0dBtxq-45" value="" style="shape=ellipse;fillColor=#0066CC;strokeColor=none;html=1" parent="SlGwDDFdU0wawe0dBtxq-39" vertex="1">
          <mxGeometry x="157.5" y="50" width="20" height="20" as="geometry"/>
        </mxCell>
        <mxCell id="SlGwDDFdU0wawe0dBtxq-46" value="" style="shape=ellipse;fillColor=#0066CC;strokeColor=none;html=1" parent="SlGwDDFdU0wawe0dBtxq-39" vertex="1">
          <mxGeometry x="197.5" y="50" width="20" height="20" as="geometry"/>
        </mxCell>
        <mxCell id="SlGwDDFdU0wawe0dBtxq-47" value="" style="shape=ellipse;fillColor=#0066CC;strokeColor=none;html=1" parent="SlGwDDFdU0wawe0dBtxq-39" vertex="1">
          <mxGeometry x="-2.5" y="90" width="20" height="20" as="geometry"/>
        </mxCell>
        <mxCell id="SlGwDDFdU0wawe0dBtxq-48" value="" style="shape=ellipse;fillColor=#0066CC;strokeColor=none;html=1" parent="SlGwDDFdU0wawe0dBtxq-39" vertex="1">
          <mxGeometry x="37.5" y="90" width="20" height="20" as="geometry"/>
        </mxCell>
        <mxCell id="SlGwDDFdU0wawe0dBtxq-49" value="" style="shape=ellipse;fillColor=#0066CC;strokeColor=none;html=1" parent="SlGwDDFdU0wawe0dBtxq-39" vertex="1">
          <mxGeometry x="77.5" y="90" width="20" height="20" as="geometry"/>
        </mxCell>
        <mxCell id="SlGwDDFdU0wawe0dBtxq-50" value="" style="shape=ellipse;fillColor=#0066CC;strokeColor=none;html=1" parent="SlGwDDFdU0wawe0dBtxq-39" vertex="1">
          <mxGeometry x="117.5" y="90" width="20" height="20" as="geometry"/>
        </mxCell>
        <mxCell id="SlGwDDFdU0wawe0dBtxq-51" value="" style="shape=ellipse;fillColor=#0066CC;strokeColor=none;html=1" parent="SlGwDDFdU0wawe0dBtxq-39" vertex="1">
          <mxGeometry x="157.5" y="90" width="20" height="20" as="geometry"/>
        </mxCell>
        <mxCell id="SlGwDDFdU0wawe0dBtxq-52" value="" style="shape=ellipse;fillColor=#0066CC;strokeColor=none;html=1" parent="SlGwDDFdU0wawe0dBtxq-39" vertex="1">
          <mxGeometry x="197.5" y="90" width="20" height="20" as="geometry"/>
        </mxCell>
        <mxCell id="SlGwDDFdU0wawe0dBtxq-53" value="" style="shape=ellipse;fillColor=#0066CC;strokeColor=none;html=1" parent="SlGwDDFdU0wawe0dBtxq-39" vertex="1">
          <mxGeometry x="-2.5" y="130" width="20" height="20" as="geometry"/>
        </mxCell>
        <mxCell id="SlGwDDFdU0wawe0dBtxq-54" value="" style="shape=ellipse;fillColor=#0066CC;strokeColor=none;html=1" parent="SlGwDDFdU0wawe0dBtxq-39" vertex="1">
          <mxGeometry x="37.5" y="130" width="20" height="20" as="geometry"/>
        </mxCell>
        <mxCell id="SlGwDDFdU0wawe0dBtxq-55" value="" style="shape=ellipse;fillColor=#0066CC;strokeColor=none;html=1" parent="SlGwDDFdU0wawe0dBtxq-39" vertex="1">
          <mxGeometry x="77.5" y="130" width="20" height="20" as="geometry"/>
        </mxCell>
        <mxCell id="SlGwDDFdU0wawe0dBtxq-56" value="" style="shape=ellipse;fillColor=#0066CC;strokeColor=none;html=1" parent="SlGwDDFdU0wawe0dBtxq-39" vertex="1">
          <mxGeometry x="117.5" y="130" width="20" height="20" as="geometry"/>
        </mxCell>
        <mxCell id="SlGwDDFdU0wawe0dBtxq-57" value="" style="shape=ellipse;fillColor=#0066CC;strokeColor=none;html=1" parent="SlGwDDFdU0wawe0dBtxq-39" vertex="1">
          <mxGeometry x="157.5" y="130" width="20" height="20" as="geometry"/>
        </mxCell>
        <mxCell id="SlGwDDFdU0wawe0dBtxq-58" value="" style="shape=ellipse;fillColor=#0066CC;strokeColor=none;html=1" parent="SlGwDDFdU0wawe0dBtxq-39" vertex="1">
          <mxGeometry x="197.5" y="130" width="20" height="20" as="geometry"/>
        </mxCell>
        <mxCell id="SlGwDDFdU0wawe0dBtxq-60" value="" style="shape=ellipse;fillColor=#0066CC;strokeColor=none;html=1" parent="SlGwDDFdU0wawe0dBtxq-39" vertex="1">
          <mxGeometry x="237.5" y="50" width="20" height="20" as="geometry"/>
        </mxCell>
        <mxCell id="SlGwDDFdU0wawe0dBtxq-62" value="" style="shape=ellipse;fillColor=#0066CC;strokeColor=none;html=1" parent="SlGwDDFdU0wawe0dBtxq-39" vertex="1">
          <mxGeometry x="237.5" y="90" width="20" height="20" as="geometry"/>
        </mxCell>
        <mxCell id="SlGwDDFdU0wawe0dBtxq-64" value="" style="shape=ellipse;fillColor=#0066CC;strokeColor=none;html=1" parent="SlGwDDFdU0wawe0dBtxq-39" vertex="1">
          <mxGeometry x="237.5" y="130" width="20" height="20" as="geometry"/>
        </mxCell>
        <mxCell id="SlGwDDFdU0wawe0dBtxq-65" value="" style="endArrow=classic;html=1;strokeWidth=3;fillColor=#d5e8d4;strokeColor=#00CC00;fontSize=24;" parent="SlGwDDFdU0wawe0dBtxq-39" edge="1">
          <mxGeometry width="50" height="50" relative="1" as="geometry">
            <mxPoint x="287.5" y="38" as="sourcePoint"/>
            <mxPoint x="287.5" y="170" as="targetPoint"/>
          </mxGeometry>
        </mxCell>
        <mxCell id="SlGwDDFdU0wawe0dBtxq-66" value="temporal" style="text;html=1;align=center;verticalAlign=middle;resizable=0;points=[];;horizontal=0;rotation=-180;fontSize=24;rounded=1;strokeColor=#6c8ebf;fillColor=#A7BCD1;opacity=60;labelBackgroundColor=#67AB9F;labelBorderColor=none;" parent="SlGwDDFdU0wawe0dBtxq-65" vertex="1" connectable="0">
          <mxGeometry x="-0.3775" y="1" relative="1" as="geometry">
            <mxPoint y="15.52" as="offset"/>
          </mxGeometry>
        </mxCell>
        <mxCell id="SlGwDDFdU0wawe0dBtxq-68" value="" style="shape=ellipse;html=1" parent="SlGwDDFdU0wawe0dBtxq-39" vertex="1">
          <mxGeometry x="-2.5" y="10" width="20" height="20" as="geometry"/>
        </mxCell>
        <mxCell id="SlGwDDFdU0wawe0dBtxq-69" value="" style="shape=ellipse;html=1" parent="SlGwDDFdU0wawe0dBtxq-39" vertex="1">
          <mxGeometry x="37.5" y="10" width="20" height="20" as="geometry"/>
        </mxCell>
        <mxCell id="SlGwDDFdU0wawe0dBtxq-70" value="" style="shape=ellipse;html=1" parent="SlGwDDFdU0wawe0dBtxq-39" vertex="1">
          <mxGeometry x="77.5" y="10" width="20" height="20" as="geometry"/>
        </mxCell>
        <mxCell id="SlGwDDFdU0wawe0dBtxq-71" value="" style="shape=ellipse;html=1" parent="SlGwDDFdU0wawe0dBtxq-39" vertex="1">
          <mxGeometry x="117.5" y="10" width="20" height="20" as="geometry"/>
        </mxCell>
        <mxCell id="SlGwDDFdU0wawe0dBtxq-72" value="" style="shape=ellipse;html=1" parent="SlGwDDFdU0wawe0dBtxq-39" vertex="1">
          <mxGeometry x="157.5" y="10" width="20" height="20" as="geometry"/>
        </mxCell>
        <mxCell id="SlGwDDFdU0wawe0dBtxq-73" value="" style="shape=ellipse;html=1" parent="SlGwDDFdU0wawe0dBtxq-39" vertex="1">
          <mxGeometry x="197.5" y="10" width="20" height="20" as="geometry"/>
        </mxCell>
        <mxCell id="SlGwDDFdU0wawe0dBtxq-75" value="" style="shape=ellipse;html=1" parent="SlGwDDFdU0wawe0dBtxq-39" vertex="1">
          <mxGeometry x="237.5" y="10" width="20" height="20" as="geometry"/>
        </mxCell>
        <mxCell id="SlGwDDFdU0wawe0dBtxq-76" value="" style="shape=ellipse;html=1" parent="SlGwDDFdU0wawe0dBtxq-39" vertex="1">
          <mxGeometry x="-2.5" y="170" width="20" height="20" as="geometry"/>
        </mxCell>
        <mxCell id="SlGwDDFdU0wawe0dBtxq-77" value="" style="shape=ellipse;html=1" parent="SlGwDDFdU0wawe0dBtxq-39" vertex="1">
          <mxGeometry x="37.5" y="170" width="20" height="20" as="geometry"/>
        </mxCell>
        <mxCell id="SlGwDDFdU0wawe0dBtxq-78" value="" style="shape=ellipse;html=1" parent="SlGwDDFdU0wawe0dBtxq-39" vertex="1">
          <mxGeometry x="77.5" y="170" width="20" height="20" as="geometry"/>
        </mxCell>
        <mxCell id="SlGwDDFdU0wawe0dBtxq-79" value="" style="shape=ellipse;html=1" parent="SlGwDDFdU0wawe0dBtxq-39" vertex="1">
          <mxGeometry x="117.5" y="170" width="20" height="20" as="geometry"/>
        </mxCell>
        <mxCell id="SlGwDDFdU0wawe0dBtxq-80" value="" style="shape=ellipse;html=1" parent="SlGwDDFdU0wawe0dBtxq-39" vertex="1">
          <mxGeometry x="157.5" y="170" width="20" height="20" as="geometry"/>
        </mxCell>
        <mxCell id="SlGwDDFdU0wawe0dBtxq-81" value="" style="shape=ellipse;html=1" parent="SlGwDDFdU0wawe0dBtxq-39" vertex="1">
          <mxGeometry x="197.5" y="170" width="20" height="20" as="geometry"/>
        </mxCell>
        <mxCell id="SlGwDDFdU0wawe0dBtxq-83" value="" style="shape=ellipse;html=1" parent="SlGwDDFdU0wawe0dBtxq-39" vertex="1">
          <mxGeometry x="237.5" y="170" width="20" height="20" as="geometry"/>
        </mxCell>
        <mxCell id="SlGwDDFdU0wawe0dBtxq-84" value="" style="rounded=0;whiteSpace=wrap;html=1;labelBackgroundColor=none;fillColor=#f8cecc;fontSize=18;opacity=60;strokeColor=#b85450;" parent="SlGwDDFdU0wawe0dBtxq-39" vertex="1">
          <mxGeometry x="72.5" y="50" width="30" height="100" as="geometry"/>
        </mxCell>
        <mxCell id="SlGwDDFdU0wawe0dBtxq-85" value="" style="rounded=0;whiteSpace=wrap;html=1;labelBackgroundColor=none;fillColor=#f8cecc;fontSize=18;opacity=60;strokeColor=#b85450;" parent="SlGwDDFdU0wawe0dBtxq-39" vertex="1">
          <mxGeometry x="192.5" y="90" width="30" height="100" as="geometry"/>
        </mxCell>
        <mxCell id="SlGwDDFdU0wawe0dBtxq-86" value="Pad" style="text;html=1;strokeColor=none;fillColor=none;align=center;verticalAlign=middle;whiteSpace=wrap;rounded=0;labelBackgroundColor=none;fontSize=24;opacity=60;" parent="SlGwDDFdU0wawe0dBtxq-39" vertex="1">
          <mxGeometry x="267.5" y="10" width="40" height="20" as="geometry"/>
        </mxCell>
        <mxCell id="SlGwDDFdU0wawe0dBtxq-87" value="Pad" style="text;html=1;strokeColor=none;fillColor=none;align=center;verticalAlign=middle;whiteSpace=wrap;rounded=0;labelBackgroundColor=none;fontSize=24;opacity=60;" parent="SlGwDDFdU0wawe0dBtxq-39" vertex="1">
          <mxGeometry x="267.5" y="170" width="40" height="20" as="geometry"/>
        </mxCell>
        <mxCell id="SlGwDDFdU0wawe0dBtxq-67" value="" style="rounded=0;whiteSpace=wrap;html=1;labelBackgroundColor=none;fillColor=#f8cecc;fontSize=18;opacity=60;strokeColor=#b85450;" parent="SlGwDDFdU0wawe0dBtxq-39" vertex="1">
          <mxGeometry x="-7.5" y="10" width="30" height="100" as="geometry"/>
        </mxCell>
        <mxCell id="SlGwDDFdU0wawe0dBtxq-88" value="" style="endArrow=classic;html=1;strokeWidth=3;fillColor=#d5e8d4;strokeColor=#00CC00;fontSize=24;" parent="1" edge="1">
          <mxGeometry width="50" height="50" relative="1" as="geometry">
            <mxPoint x="2492.5" y="583" as="sourcePoint"/>
            <mxPoint x="2492.5" y="715" as="targetPoint"/>
          </mxGeometry>
        </mxCell>
        <mxCell id="SlGwDDFdU0wawe0dBtxq-89" value="temporal" style="text;html=1;align=center;verticalAlign=middle;resizable=0;points=[];;horizontal=0;rotation=-180;fontSize=24;rounded=1;strokeColor=#6c8ebf;fillColor=#A7BCD1;opacity=60;labelBackgroundColor=#67AB9F;labelBorderColor=none;" parent="SlGwDDFdU0wawe0dBtxq-88" vertex="1" connectable="0">
          <mxGeometry x="-0.3775" y="1" relative="1" as="geometry">
            <mxPoint y="15.52" as="offset"/>
          </mxGeometry>
        </mxCell>
        <mxCell id="SlGwDDFdU0wawe0dBtxq-90" value="" style="shape=ellipse;fillColor=#0066CC;strokeColor=none;html=1" parent="1" vertex="1">
          <mxGeometry x="2200" y="595" width="20" height="20" as="geometry"/>
        </mxCell>
        <mxCell id="SlGwDDFdU0wawe0dBtxq-91" value="" style="shape=ellipse;fillColor=#0066CC;strokeColor=none;html=1" parent="1" vertex="1">
          <mxGeometry x="2240" y="595" width="20" height="20" as="geometry"/>
        </mxCell>
        <mxCell id="SlGwDDFdU0wawe0dBtxq-92" value="" style="shape=ellipse;fillColor=#0066CC;strokeColor=none;html=1" parent="1" vertex="1">
          <mxGeometry x="2280" y="595" width="20" height="20" as="geometry"/>
        </mxCell>
        <mxCell id="SlGwDDFdU0wawe0dBtxq-93" value="" style="shape=ellipse;fillColor=#0066CC;strokeColor=none;html=1" parent="1" vertex="1">
          <mxGeometry x="2320" y="595" width="20" height="20" as="geometry"/>
        </mxCell>
        <mxCell id="SlGwDDFdU0wawe0dBtxq-94" value="" style="shape=ellipse;fillColor=#0066CC;strokeColor=none;html=1" parent="1" vertex="1">
          <mxGeometry x="2360" y="595" width="20" height="20" as="geometry"/>
        </mxCell>
        <mxCell id="SlGwDDFdU0wawe0dBtxq-95" value="" style="shape=ellipse;fillColor=#0066CC;strokeColor=none;html=1" parent="1" vertex="1">
          <mxGeometry x="2400" y="595" width="20" height="20" as="geometry"/>
        </mxCell>
        <mxCell id="SlGwDDFdU0wawe0dBtxq-96" value="" style="shape=ellipse;fillColor=#0066CC;strokeColor=none;html=1" parent="1" vertex="1">
          <mxGeometry x="2200" y="635" width="20" height="20" as="geometry"/>
        </mxCell>
        <mxCell id="SlGwDDFdU0wawe0dBtxq-97" value="" style="shape=ellipse;fillColor=#0066CC;strokeColor=none;html=1" parent="1" vertex="1">
          <mxGeometry x="2240" y="635" width="20" height="20" as="geometry"/>
        </mxCell>
        <mxCell id="SlGwDDFdU0wawe0dBtxq-98" value="" style="shape=ellipse;fillColor=#0066CC;strokeColor=none;html=1" parent="1" vertex="1">
          <mxGeometry x="2280" y="635" width="20" height="20" as="geometry"/>
        </mxCell>
        <mxCell id="SlGwDDFdU0wawe0dBtxq-99" value="" style="shape=ellipse;fillColor=#0066CC;strokeColor=none;html=1" parent="1" vertex="1">
          <mxGeometry x="2320" y="635" width="20" height="20" as="geometry"/>
        </mxCell>
        <mxCell id="SlGwDDFdU0wawe0dBtxq-100" value="" style="shape=ellipse;fillColor=#0066CC;strokeColor=none;html=1" parent="1" vertex="1">
          <mxGeometry x="2360" y="635" width="20" height="20" as="geometry"/>
        </mxCell>
        <mxCell id="SlGwDDFdU0wawe0dBtxq-101" value="" style="shape=ellipse;fillColor=#0066CC;strokeColor=none;html=1" parent="1" vertex="1">
          <mxGeometry x="2400" y="635" width="20" height="20" as="geometry"/>
        </mxCell>
        <mxCell id="SlGwDDFdU0wawe0dBtxq-102" value="" style="shape=ellipse;fillColor=#0066CC;strokeColor=none;html=1" parent="1" vertex="1">
          <mxGeometry x="2200" y="675" width="20" height="20" as="geometry"/>
        </mxCell>
        <mxCell id="SlGwDDFdU0wawe0dBtxq-103" value="" style="shape=ellipse;fillColor=#0066CC;strokeColor=none;html=1" parent="1" vertex="1">
          <mxGeometry x="2240" y="675" width="20" height="20" as="geometry"/>
        </mxCell>
        <mxCell id="SlGwDDFdU0wawe0dBtxq-104" value="" style="shape=ellipse;fillColor=#0066CC;strokeColor=none;html=1" parent="1" vertex="1">
          <mxGeometry x="2280" y="675" width="20" height="20" as="geometry"/>
        </mxCell>
        <mxCell id="SlGwDDFdU0wawe0dBtxq-105" value="" style="shape=ellipse;fillColor=#0066CC;strokeColor=none;html=1" parent="1" vertex="1">
          <mxGeometry x="2320" y="675" width="20" height="20" as="geometry"/>
        </mxCell>
        <mxCell id="SlGwDDFdU0wawe0dBtxq-106" value="" style="shape=ellipse;fillColor=#0066CC;strokeColor=none;html=1" parent="1" vertex="1">
          <mxGeometry x="2360" y="675" width="20" height="20" as="geometry"/>
        </mxCell>
        <mxCell id="SlGwDDFdU0wawe0dBtxq-107" value="" style="shape=ellipse;fillColor=#0066CC;strokeColor=none;html=1" parent="1" vertex="1">
          <mxGeometry x="2400" y="675" width="20" height="20" as="geometry"/>
        </mxCell>
        <mxCell id="SlGwDDFdU0wawe0dBtxq-108" value="" style="shape=ellipse;fillColor=#0066CC;strokeColor=none;html=1" parent="1" vertex="1">
          <mxGeometry x="2440" y="595" width="20" height="20" as="geometry"/>
        </mxCell>
        <mxCell id="SlGwDDFdU0wawe0dBtxq-110" value="" style="shape=ellipse;fillColor=#0066CC;strokeColor=none;html=1" parent="1" vertex="1">
          <mxGeometry x="2440" y="635" width="20" height="20" as="geometry"/>
        </mxCell>
        <mxCell id="SlGwDDFdU0wawe0dBtxq-112" value="" style="shape=ellipse;fillColor=#0066CC;strokeColor=none;html=1" parent="1" vertex="1">
          <mxGeometry x="2440" y="675" width="20" height="20" as="geometry"/>
        </mxCell>
        <mxCell id="SlGwDDFdU0wawe0dBtxq-115" value="" style="shape=ellipse;html=1" parent="1" vertex="1">
          <mxGeometry x="2200" y="555" width="20" height="20" as="geometry"/>
        </mxCell>
        <mxCell id="SlGwDDFdU0wawe0dBtxq-116" value="" style="shape=ellipse;html=1" parent="1" vertex="1">
          <mxGeometry x="2240" y="555" width="20" height="20" as="geometry"/>
        </mxCell>
        <mxCell id="SlGwDDFdU0wawe0dBtxq-117" value="" style="shape=ellipse;html=1" parent="1" vertex="1">
          <mxGeometry x="2280" y="555" width="20" height="20" as="geometry"/>
        </mxCell>
        <mxCell id="SlGwDDFdU0wawe0dBtxq-118" value="" style="shape=ellipse;html=1" parent="1" vertex="1">
          <mxGeometry x="2320" y="555" width="20" height="20" as="geometry"/>
        </mxCell>
        <mxCell id="SlGwDDFdU0wawe0dBtxq-119" value="" style="shape=ellipse;html=1" parent="1" vertex="1">
          <mxGeometry x="2360" y="555" width="20" height="20" as="geometry"/>
        </mxCell>
        <mxCell id="SlGwDDFdU0wawe0dBtxq-120" value="" style="shape=ellipse;html=1" parent="1" vertex="1">
          <mxGeometry x="2400" y="555" width="20" height="20" as="geometry"/>
        </mxCell>
        <mxCell id="SlGwDDFdU0wawe0dBtxq-121" value="" style="shape=ellipse;html=1" parent="1" vertex="1">
          <mxGeometry x="2440" y="555" width="20" height="20" as="geometry"/>
        </mxCell>
        <mxCell id="SlGwDDFdU0wawe0dBtxq-123" value="" style="shape=ellipse;html=1" parent="1" vertex="1">
          <mxGeometry x="2200" y="715" width="20" height="20" as="geometry"/>
        </mxCell>
        <mxCell id="SlGwDDFdU0wawe0dBtxq-124" value="" style="shape=ellipse;html=1" parent="1" vertex="1">
          <mxGeometry x="2240" y="715" width="20" height="20" as="geometry"/>
        </mxCell>
        <mxCell id="SlGwDDFdU0wawe0dBtxq-125" value="" style="shape=ellipse;html=1" parent="1" vertex="1">
          <mxGeometry x="2280" y="715" width="20" height="20" as="geometry"/>
        </mxCell>
        <mxCell id="SlGwDDFdU0wawe0dBtxq-126" value="" style="shape=ellipse;html=1" parent="1" vertex="1">
          <mxGeometry x="2320" y="715" width="20" height="20" as="geometry"/>
        </mxCell>
        <mxCell id="SlGwDDFdU0wawe0dBtxq-127" value="" style="shape=ellipse;html=1" parent="1" vertex="1">
          <mxGeometry x="2360" y="715" width="20" height="20" as="geometry"/>
        </mxCell>
        <mxCell id="SlGwDDFdU0wawe0dBtxq-128" value="" style="shape=ellipse;html=1" parent="1" vertex="1">
          <mxGeometry x="2400" y="715" width="20" height="20" as="geometry"/>
        </mxCell>
        <mxCell id="SlGwDDFdU0wawe0dBtxq-129" value="" style="shape=ellipse;html=1" parent="1" vertex="1">
          <mxGeometry x="2440" y="715" width="20" height="20" as="geometry"/>
        </mxCell>
        <mxCell id="SlGwDDFdU0wawe0dBtxq-131" value="" style="rounded=0;whiteSpace=wrap;html=1;labelBackgroundColor=none;fillColor=#f8cecc;fontSize=18;opacity=60;strokeColor=#b85450;" parent="1" vertex="1">
          <mxGeometry x="2275" y="595" width="30" height="100" as="geometry"/>
        </mxCell>
        <mxCell id="SlGwDDFdU0wawe0dBtxq-132" value="" style="rounded=0;whiteSpace=wrap;html=1;labelBackgroundColor=none;fillColor=#f8cecc;fontSize=18;opacity=60;strokeColor=#b85450;" parent="1" vertex="1">
          <mxGeometry x="2395" y="635" width="30" height="100" as="geometry"/>
        </mxCell>
        <mxCell id="SlGwDDFdU0wawe0dBtxq-133" value="Pad" style="text;html=1;strokeColor=none;fillColor=none;align=center;verticalAlign=middle;whiteSpace=wrap;rounded=0;labelBackgroundColor=none;fontSize=24;opacity=60;" parent="1" vertex="1">
          <mxGeometry x="2472.5" y="555" width="40" height="20" as="geometry"/>
        </mxCell>
        <mxCell id="SlGwDDFdU0wawe0dBtxq-134" value="Pad" style="text;html=1;strokeColor=none;fillColor=none;align=center;verticalAlign=middle;whiteSpace=wrap;rounded=0;labelBackgroundColor=none;fontSize=24;opacity=60;" parent="1" vertex="1">
          <mxGeometry x="2472.5" y="715" width="40" height="20" as="geometry"/>
        </mxCell>
        <mxCell id="SlGwDDFdU0wawe0dBtxq-135" value="M&lt;sup style=&quot;font-size: 40px;&quot;&gt;a&lt;/sup&gt;" style="rounded=0;whiteSpace=wrap;html=1;fontSize=40;fillColor=#f8cecc;strokeColor=#b85450;fontStyle=1" parent="1" vertex="1">
          <mxGeometry x="850" y="600" width="120" height="100" as="geometry"/>
        </mxCell>
        <mxCell id="SlGwDDFdU0wawe0dBtxq-137" value="" style="rounded=0;whiteSpace=wrap;html=1;fontSize=25;dashed=1;strokeWidth=4;" parent="1" vertex="1">
          <mxGeometry x="1410" y="787.5" width="340" height="320" as="geometry"/>
        </mxCell>
        <mxCell id="SlGwDDFdU0wawe0dBtxq-138" value="" style="endArrow=none;html=1;fontSize=56;strokeWidth=2;fillColor=#dae8fc;strokeColor=#6c8ebf;" parent="1" source="SlGwDDFdU0wawe0dBtxq-151" target="SlGwDDFdU0wawe0dBtxq-150" edge="1">
          <mxGeometry width="50" height="50" relative="1" as="geometry">
            <mxPoint x="1937.5" y="311.5" as="sourcePoint"/>
            <mxPoint x="2042.5" y="353.5" as="targetPoint"/>
          </mxGeometry>
        </mxCell>
        <mxCell id="SlGwDDFdU0wawe0dBtxq-139" value="" style="endArrow=none;html=1;fontSize=56;strokeWidth=2;fillColor=#dae8fc;strokeColor=#6c8ebf;" parent="1" source="SlGwDDFdU0wawe0dBtxq-153" target="SlGwDDFdU0wawe0dBtxq-151" edge="1">
          <mxGeometry width="50" height="50" relative="1" as="geometry">
            <mxPoint x="2007.5" y="547.5" as="sourcePoint"/>
            <mxPoint x="1867.5" y="587.5" as="targetPoint"/>
          </mxGeometry>
        </mxCell>
        <mxCell id="SlGwDDFdU0wawe0dBtxq-140" value="" style="endArrow=none;html=1;fontSize=56;strokeWidth=2;fillColor=#dae8fc;strokeColor=#6c8ebf;" parent="1" source="SlGwDDFdU0wawe0dBtxq-154" target="SlGwDDFdU0wawe0dBtxq-153" edge="1">
          <mxGeometry width="50" height="50" relative="1" as="geometry">
            <mxPoint x="1917.5" y="557.5" as="sourcePoint"/>
            <mxPoint x="1877.5" y="597.5" as="targetPoint"/>
          </mxGeometry>
        </mxCell>
        <mxCell id="SlGwDDFdU0wawe0dBtxq-141" value="" style="endArrow=none;html=1;fontSize=56;strokeWidth=2;fillColor=#dae8fc;strokeColor=#6c8ebf;" parent="1" source="SlGwDDFdU0wawe0dBtxq-152" target="SlGwDDFdU0wawe0dBtxq-153" edge="1">
          <mxGeometry width="50" height="50" relative="1" as="geometry">
            <mxPoint x="1927.5" y="567.5" as="sourcePoint"/>
            <mxPoint x="1887.5" y="607.5" as="targetPoint"/>
          </mxGeometry>
        </mxCell>
        <mxCell id="SlGwDDFdU0wawe0dBtxq-142" value="" style="endArrow=none;html=1;fontSize=56;strokeWidth=2;fillColor=#dae8fc;strokeColor=#6c8ebf;" parent="1" source="SlGwDDFdU0wawe0dBtxq-151" target="SlGwDDFdU0wawe0dBtxq-152" edge="1">
          <mxGeometry width="50" height="50" relative="1" as="geometry">
            <mxPoint x="1937.5" y="577.5" as="sourcePoint"/>
            <mxPoint x="1897.5" y="617.5" as="targetPoint"/>
          </mxGeometry>
        </mxCell>
        <mxCell id="SlGwDDFdU0wawe0dBtxq-143" value="" style="endArrow=none;html=1;fontSize=56;strokeWidth=2;fillColor=#dae8fc;strokeColor=#6c8ebf;" parent="1" source="SlGwDDFdU0wawe0dBtxq-152" target="SlGwDDFdU0wawe0dBtxq-155" edge="1">
          <mxGeometry width="50" height="50" relative="1" as="geometry">
            <mxPoint x="1947.5" y="587.5" as="sourcePoint"/>
            <mxPoint x="1907.5" y="627.5" as="targetPoint"/>
          </mxGeometry>
        </mxCell>
        <mxCell id="SlGwDDFdU0wawe0dBtxq-144" value="" style="endArrow=none;html=1;fontSize=56;strokeWidth=2;fillColor=#dae8fc;strokeColor=#6c8ebf;" parent="1" source="SlGwDDFdU0wawe0dBtxq-157" target="SlGwDDFdU0wawe0dBtxq-155" edge="1">
          <mxGeometry width="50" height="50" relative="1" as="geometry">
            <mxPoint x="1957.5" y="597.5" as="sourcePoint"/>
            <mxPoint x="1917.5" y="637.5" as="targetPoint"/>
          </mxGeometry>
        </mxCell>
        <mxCell id="SlGwDDFdU0wawe0dBtxq-145" value="" style="endArrow=none;html=1;fontSize=56;strokeWidth=2;fillColor=#dae8fc;strokeColor=#6c8ebf;" parent="1" source="SlGwDDFdU0wawe0dBtxq-158" target="SlGwDDFdU0wawe0dBtxq-157" edge="1">
          <mxGeometry width="50" height="50" relative="1" as="geometry">
            <mxPoint x="1967.5" y="607.5" as="sourcePoint"/>
            <mxPoint x="1927.5" y="647.5" as="targetPoint"/>
          </mxGeometry>
        </mxCell>
        <mxCell id="SlGwDDFdU0wawe0dBtxq-146" value="" style="endArrow=none;html=1;fontSize=56;strokeWidth=2;fillColor=#dae8fc;strokeColor=#6c8ebf;" parent="1" source="SlGwDDFdU0wawe0dBtxq-155" target="SlGwDDFdU0wawe0dBtxq-156" edge="1">
          <mxGeometry width="50" height="50" relative="1" as="geometry">
            <mxPoint x="1977.5" y="617.5" as="sourcePoint"/>
            <mxPoint x="1937.5" y="657.5" as="targetPoint"/>
          </mxGeometry>
        </mxCell>
        <mxCell id="SlGwDDFdU0wawe0dBtxq-147" value="" style="endArrow=none;html=1;fontSize=56;strokeWidth=2;fillColor=#dae8fc;strokeColor=#6c8ebf;" parent="1" source="SlGwDDFdU0wawe0dBtxq-150" target="SlGwDDFdU0wawe0dBtxq-156" edge="1">
          <mxGeometry width="50" height="50" relative="1" as="geometry">
            <mxPoint x="1997.5" y="637.5" as="sourcePoint"/>
            <mxPoint x="1957.5" y="677.5" as="targetPoint"/>
          </mxGeometry>
        </mxCell>
        <mxCell id="SlGwDDFdU0wawe0dBtxq-148" value="" style="endArrow=none;html=1;fontSize=56;strokeWidth=2;fillColor=#dae8fc;strokeColor=#6c8ebf;" parent="1" source="SlGwDDFdU0wawe0dBtxq-154" target="SlGwDDFdU0wawe0dBtxq-157" edge="1">
          <mxGeometry width="50" height="50" relative="1" as="geometry">
            <mxPoint x="2007.5" y="647.5" as="sourcePoint"/>
            <mxPoint x="1967.5" y="687.5" as="targetPoint"/>
          </mxGeometry>
        </mxCell>
        <mxCell id="SlGwDDFdU0wawe0dBtxq-149" value="" style="rounded=1;whiteSpace=wrap;html=1;fillColor=#d5e8d4;strokeColor=#82b366;opacity=60;" parent="1" vertex="1">
          <mxGeometry x="1807.5" y="497.5" width="310" height="305" as="geometry"/>
        </mxCell>
        <mxCell id="SlGwDDFdU0wawe0dBtxq-150" value="" style="shape=ellipse;fillColor=#0066CC;strokeColor=none;html=1" parent="1" vertex="1">
          <mxGeometry x="1827.5" y="567.5" width="20" height="20" as="geometry"/>
        </mxCell>
        <mxCell id="SlGwDDFdU0wawe0dBtxq-151" value="" style="shape=ellipse;fillColor=#0066CC;strokeColor=none;html=1" parent="1" vertex="1">
          <mxGeometry x="1887.5" y="507.49999999999994" width="20" height="20" as="geometry"/>
        </mxCell>
        <mxCell id="SlGwDDFdU0wawe0dBtxq-152" value="" style="shape=ellipse;fillColor=#0066CC;strokeColor=none;html=1" parent="1" vertex="1">
          <mxGeometry x="1937.5" y="567.5" width="20" height="20" as="geometry"/>
        </mxCell>
        <mxCell id="SlGwDDFdU0wawe0dBtxq-153" value="" style="shape=ellipse;fillColor=#0066CC;strokeColor=none;html=1" parent="1" vertex="1">
          <mxGeometry x="2012.5" y="507.49999999999994" width="20" height="20" as="geometry"/>
        </mxCell>
        <mxCell id="SlGwDDFdU0wawe0dBtxq-154" value="" style="shape=ellipse;fillColor=#0066CC;strokeColor=none;html=1" parent="1" vertex="1">
          <mxGeometry x="2077.5" y="567.5" width="20" height="20" as="geometry"/>
        </mxCell>
        <mxCell id="SlGwDDFdU0wawe0dBtxq-155" value="" style="shape=ellipse;fillColor=#0066CC;strokeColor=none;html=1" parent="1" vertex="1">
          <mxGeometry x="1937.5" y="667.5" width="20" height="20" as="geometry"/>
        </mxCell>
        <mxCell id="SlGwDDFdU0wawe0dBtxq-156" value="" style="shape=ellipse;fillColor=#0066CC;strokeColor=none;html=1" parent="1" vertex="1">
          <mxGeometry x="1867.5" y="717.5" width="20" height="20" as="geometry"/>
        </mxCell>
        <mxCell id="SlGwDDFdU0wawe0dBtxq-157" value="" style="shape=ellipse;fillColor=#0066CC;strokeColor=none;html=1" parent="1" vertex="1">
          <mxGeometry x="2027.5" y="707.5" width="20" height="20" as="geometry"/>
        </mxCell>
        <mxCell id="SlGwDDFdU0wawe0dBtxq-158" value="" style="shape=ellipse;fillColor=#0066CC;strokeColor=none;html=1" parent="1" vertex="1">
          <mxGeometry x="1937.5" y="767.5" width="20" height="20" as="geometry"/>
        </mxCell>
        <mxCell id="SlGwDDFdU0wawe0dBtxq-159" value="" style="rounded=1;whiteSpace=wrap;html=1;fillColor=#d5e8d4;strokeColor=#82b366;opacity=60;" parent="1" vertex="1">
          <mxGeometry x="1430" y="801" width="80" height="60" as="geometry"/>
        </mxCell>
        <mxCell id="SlGwDDFdU0wawe0dBtxq-160" value="GCN Layer" style="text;html=1;strokeColor=none;fillColor=none;align=left;verticalAlign=middle;whiteSpace=wrap;rounded=0;dashed=1;fontSize=34;fontStyle=1" parent="1" vertex="1">
          <mxGeometry x="1530" y="801" width="240" height="60" as="geometry"/>
        </mxCell>
        <mxCell id="SlGwDDFdU0wawe0dBtxq-161" value="" style="whiteSpace=wrap;html=1;fillColor=#A7BCD1;strokeColor=#6c8ebf;verticalAlign=middle;gradientColor=none;rounded=1;opacity=60;" parent="1" vertex="1">
          <mxGeometry x="1430" y="877.5" width="80" height="60" as="geometry"/>
        </mxCell>
        <mxCell id="SlGwDDFdU0wawe0dBtxq-162" value="TCN Layer" style="text;html=1;strokeColor=none;fillColor=none;align=left;verticalAlign=middle;whiteSpace=wrap;rounded=0;dashed=1;fontSize=34;fontStyle=1" parent="1" vertex="1">
          <mxGeometry x="1530" y="881" width="240" height="60" as="geometry"/>
        </mxCell>
        <mxCell id="SlGwDDFdU0wawe0dBtxq-304" value="" style="shape=ellipse;fillColor=#0066CC;strokeColor=none;html=1" parent="1" vertex="1">
          <mxGeometry x="2615" y="817" width="20" height="20" as="geometry"/>
        </mxCell>
        <mxCell id="SlGwDDFdU0wawe0dBtxq-305" value="" style="shape=ellipse;fillColor=#0066CC;strokeColor=none;html=1" parent="1" vertex="1">
          <mxGeometry x="2615" y="857" width="20" height="20" as="geometry"/>
        </mxCell>
        <mxCell id="SlGwDDFdU0wawe0dBtxq-306" value="" style="shape=ellipse;fillColor=#0066CC;strokeColor=none;html=1" parent="1" vertex="1">
          <mxGeometry x="2615" y="897" width="20" height="20" as="geometry"/>
        </mxCell>
        <mxCell id="SlGwDDFdU0wawe0dBtxq-307" value="" style="shape=ellipse;html=1;strokeColor=none;fillColor=#0066CC;" parent="1" vertex="1">
          <mxGeometry x="2615" y="777" width="20" height="20" as="geometry"/>
        </mxCell>
        <mxCell id="SlGwDDFdU0wawe0dBtxq-308" value="" style="shape=ellipse;html=1;strokeColor=none;fillColor=#0066CC;" parent="1" vertex="1">
          <mxGeometry x="2615" y="937" width="20" height="20" as="geometry"/>
        </mxCell>
        <mxCell id="SlGwDDFdU0wawe0dBtxq-309" value="" style="shape=ellipse;fillColor=#0066CC;strokeColor=none;html=1" parent="1" vertex="1">
          <mxGeometry x="2615" y="1017" width="20" height="20" as="geometry"/>
        </mxCell>
        <mxCell id="SlGwDDFdU0wawe0dBtxq-310" value="" style="shape=ellipse;fillColor=#0066CC;strokeColor=none;html=1" parent="1" vertex="1">
          <mxGeometry x="2615" y="1057" width="20" height="20" as="geometry"/>
        </mxCell>
        <mxCell id="SlGwDDFdU0wawe0dBtxq-311" value="" style="shape=ellipse;fillColor=#0066CC;strokeColor=none;html=1" parent="1" vertex="1">
          <mxGeometry x="2615" y="1097" width="20" height="20" as="geometry"/>
        </mxCell>
        <mxCell id="SlGwDDFdU0wawe0dBtxq-312" value="" style="shape=ellipse;html=1;strokeColor=none;fillColor=#0066CC;" parent="1" vertex="1">
          <mxGeometry x="2615" y="977" width="20" height="20" as="geometry"/>
        </mxCell>
        <mxCell id="SlGwDDFdU0wawe0dBtxq-313" value="" style="shape=ellipse;html=1;strokeColor=none;fillColor=#0066CC;" parent="1" vertex="1">
          <mxGeometry x="2615" y="1137" width="20" height="20" as="geometry"/>
        </mxCell>
        <mxCell id="SlGwDDFdU0wawe0dBtxq-314" value="" style="shape=ellipse;fillColor=#0066CC;strokeColor=none;html=1" parent="1" vertex="1">
          <mxGeometry x="2615" y="1217" width="20" height="20" as="geometry"/>
        </mxCell>
        <mxCell id="SlGwDDFdU0wawe0dBtxq-315" value="" style="shape=ellipse;fillColor=#0066CC;strokeColor=none;html=1" parent="1" vertex="1">
          <mxGeometry x="2615" y="1257" width="20" height="20" as="geometry"/>
        </mxCell>
        <mxCell id="SlGwDDFdU0wawe0dBtxq-316" value="" style="shape=ellipse;html=1;strokeColor=none;fillColor=#0066CC;" parent="1" vertex="1">
          <mxGeometry x="2615" y="1177" width="20" height="20" as="geometry"/>
        </mxCell>
        <mxCell id="SlGwDDFdU0wawe0dBtxq-317" value="" style="rounded=0;whiteSpace=wrap;html=1;labelBackgroundColor=#FFFFFF;fillColor=none;gradientColor=none;fontSize=77;opacity=60;" parent="1" vertex="1">
          <mxGeometry x="2650" y="777" width="20" height="340" as="geometry"/>
        </mxCell>
        <mxCell id="SlGwDDFdU0wawe0dBtxq-318" value="" style="shape=ellipse;fillColor=#0066CC;strokeColor=none;html=1" parent="1" vertex="1">
          <mxGeometry x="2650" y="817" width="20" height="20" as="geometry"/>
        </mxCell>
        <mxCell id="SlGwDDFdU0wawe0dBtxq-319" value="" style="shape=ellipse;fillColor=#0066CC;strokeColor=none;html=1" parent="1" vertex="1">
          <mxGeometry x="2650" y="857" width="20" height="20" as="geometry"/>
        </mxCell>
        <mxCell id="SlGwDDFdU0wawe0dBtxq-320" value="" style="shape=ellipse;fillColor=#0066CC;strokeColor=none;html=1" parent="1" vertex="1">
          <mxGeometry x="2650" y="897" width="20" height="20" as="geometry"/>
        </mxCell>
        <mxCell id="SlGwDDFdU0wawe0dBtxq-321" value="" style="shape=ellipse;html=1;strokeColor=none;fillColor=#0066CC;" parent="1" vertex="1">
          <mxGeometry x="2650" y="777" width="20" height="20" as="geometry"/>
        </mxCell>
        <mxCell id="SlGwDDFdU0wawe0dBtxq-322" value="" style="shape=ellipse;html=1;strokeColor=none;fillColor=#0066CC;" parent="1" vertex="1">
          <mxGeometry x="2650" y="937" width="20" height="20" as="geometry"/>
        </mxCell>
        <mxCell id="SlGwDDFdU0wawe0dBtxq-323" value="" style="shape=ellipse;fillColor=#0066CC;strokeColor=none;html=1" parent="1" vertex="1">
          <mxGeometry x="2650" y="1017" width="20" height="20" as="geometry"/>
        </mxCell>
        <mxCell id="SlGwDDFdU0wawe0dBtxq-324" value="" style="shape=ellipse;fillColor=#0066CC;strokeColor=none;html=1" parent="1" vertex="1">
          <mxGeometry x="2650" y="1057" width="20" height="20" as="geometry"/>
        </mxCell>
        <mxCell id="SlGwDDFdU0wawe0dBtxq-325" value="" style="shape=ellipse;fillColor=#0066CC;strokeColor=none;html=1" parent="1" vertex="1">
          <mxGeometry x="2650" y="1097" width="20" height="20" as="geometry"/>
        </mxCell>
        <mxCell id="SlGwDDFdU0wawe0dBtxq-326" value="" style="shape=ellipse;html=1;strokeColor=none;fillColor=#0066CC;" parent="1" vertex="1">
          <mxGeometry x="2650" y="977" width="20" height="20" as="geometry"/>
        </mxCell>
        <mxCell id="SlGwDDFdU0wawe0dBtxq-327" value="" style="edgeStyle=orthogonalEdgeStyle;rounded=0;orthogonalLoop=1;jettySize=auto;html=1;strokeWidth=10;exitX=1;exitY=0.5;exitDx=0;exitDy=0;entryX=-0.01;entryY=0.064;entryDx=0;entryDy=0;entryPerimeter=0;" parent="1" source="SlGwDDFdU0wawe0dBtxq-1" target="SlGwDDFdU0wawe0dBtxq-26" edge="1">
          <mxGeometry relative="1" as="geometry">
            <mxPoint x="2832.5" y="770" as="targetPoint"/>
            <mxPoint x="2262.6176470588234" y="660.4117647058824" as="sourcePoint"/>
          </mxGeometry>
        </mxCell>
        <mxCell id="SlGwDDFdU0wawe0dBtxq-330" value="" style="edgeStyle=orthogonalEdgeStyle;rounded=0;orthogonalLoop=1;jettySize=auto;html=1;strokeWidth=10;entryX=0;entryY=0.5;entryDx=0;entryDy=0;exitX=1;exitY=0.5;exitDx=0;exitDy=0;" parent="1" source="SlGwDDFdU0wawe0dBtxq-26" target="SlGwDDFdU0wawe0dBtxq-32" edge="1">
          <mxGeometry relative="1" as="geometry">
            <mxPoint x="2591.142857142858" y="684.4285714285716" as="targetPoint"/>
            <mxPoint x="2710" y="916" as="sourcePoint"/>
          </mxGeometry>
        </mxCell>
        <mxCell id="SlGwDDFdU0wawe0dBtxq-331" value="" style="edgeStyle=orthogonalEdgeStyle;rounded=0;orthogonalLoop=1;jettySize=auto;html=1;strokeWidth=10;entryX=0;entryY=0.5;entryDx=0;entryDy=0;exitX=1;exitY=0.5;exitDx=0;exitDy=0;" parent="1" source="SlGwDDFdU0wawe0dBtxq-135" target="SlGwDDFdU0wawe0dBtxq-4" edge="1">
          <mxGeometry relative="1" as="geometry">
            <mxPoint x="1450.2758620689656" y="659.8965517241379" as="targetPoint"/>
            <mxPoint x="1360" y="659.8965517241379" as="sourcePoint"/>
          </mxGeometry>
        </mxCell>
        <mxCell id="SlGwDDFdU0wawe0dBtxq-333" value="" style="rounded=0;whiteSpace=wrap;html=1;labelBackgroundColor=#FFFFFF;fillColor=#fff2cc;fontSize=77;opacity=60;strokeColor=#d6b656;" parent="1" vertex="1">
          <mxGeometry x="1430" y="957.5" width="80" height="60" as="geometry"/>
        </mxCell>
        <mxCell id="SlGwDDFdU0wawe0dBtxq-334" value="FC Layer" style="text;html=1;strokeColor=none;fillColor=none;align=left;verticalAlign=middle;whiteSpace=wrap;rounded=0;dashed=1;fontSize=34;fontStyle=1" parent="1" vertex="1">
          <mxGeometry x="1530" y="957.5" width="200" height="60" as="geometry"/>
        </mxCell>
        <mxCell id="SlGwDDFdU0wawe0dBtxq-335" value="" style="rounded=0;whiteSpace=wrap;html=1;labelBackgroundColor=#FFFFFF;fillColor=#f8cecc;fontSize=77;opacity=60;strokeColor=#b85450;" parent="1" vertex="1">
          <mxGeometry x="1430" y="1032" width="80" height="60" as="geometry"/>
        </mxCell>
        <mxCell id="SlGwDDFdU0wawe0dBtxq-336" value="Result" style="text;html=1;strokeColor=none;fillColor=none;align=left;verticalAlign=middle;whiteSpace=wrap;rounded=0;dashed=1;fontSize=34;fontStyle=1" parent="1" vertex="1">
          <mxGeometry x="1530" y="1032" width="160" height="60" as="geometry"/>
        </mxCell>
        <mxCell id="SlGwDDFdU0wawe0dBtxq-114" value="" style="rounded=0;whiteSpace=wrap;html=1;labelBackgroundColor=none;fillColor=#f8cecc;fontSize=18;opacity=60;strokeColor=#b85450;" parent="1" vertex="1">
          <mxGeometry x="2195" y="555" width="30" height="100" as="geometry"/>
        </mxCell>
        <mxCell id="K8U1Sd6g2Q127GAvfA1B-1" value="" style="rounded=1;whiteSpace=wrap;html=1;fillColor=#A7BCD1;strokeColor=#6c8ebf;opacity=60;" parent="1" vertex="1">
          <mxGeometry x="2172.5" y="1137" width="360" height="210" as="geometry"/>
        </mxCell>
        <mxCell id="K8U1Sd6g2Q127GAvfA1B-2" style="edgeStyle=orthogonalEdgeStyle;rounded=0;orthogonalLoop=1;jettySize=auto;html=1;exitX=1;exitY=0.5;exitDx=0;exitDy=0;entryX=0;entryY=0.5;entryDx=0;entryDy=0;strokeColor=#000000;strokeWidth=10;fontSize=11;" parent="1" source="K8U1Sd6g2Q127GAvfA1B-27" target="K8U1Sd6g2Q127GAvfA1B-123" edge="1">
          <mxGeometry relative="1" as="geometry">
            <mxPoint x="1942.2142857142862" y="1242.1428571428573" as="targetPoint"/>
          </mxGeometry>
        </mxCell>
        <mxCell id="K8U1Sd6g2Q127GAvfA1B-3" value="" style="edgeStyle=orthogonalEdgeStyle;rounded=0;orthogonalLoop=1;jettySize=auto;html=1;strokeWidth=10;entryX=0;entryY=0.5;entryDx=0;entryDy=0;" parent="1" source="K8U1Sd6g2Q127GAvfA1B-4" target="K8U1Sd6g2Q127GAvfA1B-27" edge="1">
          <mxGeometry relative="1" as="geometry">
            <mxPoint x="1430" y="1242" as="targetPoint"/>
          </mxGeometry>
        </mxCell>
        <mxCell id="K8U1Sd6g2Q127GAvfA1B-4" value="" style="rounded=1;whiteSpace=wrap;html=1;fillColor=#d5e8d4;strokeColor=#82b366;opacity=60;" parent="1" vertex="1">
          <mxGeometry x="1040" y="1089.5" width="310" height="305" as="geometry"/>
        </mxCell>
        <mxCell id="K8U1Sd6g2Q127GAvfA1B-5" value="" style="shape=ellipse;fillColor=#0066CC;strokeColor=none;html=1" parent="1" vertex="1">
          <mxGeometry x="1060" y="1159.5" width="20" height="20" as="geometry"/>
        </mxCell>
        <mxCell id="K8U1Sd6g2Q127GAvfA1B-6" value="" style="shape=ellipse;fillColor=#0066CC;strokeColor=none;html=1" parent="1" vertex="1">
          <mxGeometry x="1120" y="1099.5" width="20" height="20" as="geometry"/>
        </mxCell>
        <mxCell id="K8U1Sd6g2Q127GAvfA1B-7" value="" style="shape=ellipse;fillColor=#0066CC;strokeColor=none;html=1" parent="1" vertex="1">
          <mxGeometry x="1170" y="1159.5" width="20" height="20" as="geometry"/>
        </mxCell>
        <mxCell id="K8U1Sd6g2Q127GAvfA1B-8" value="" style="shape=ellipse;fillColor=#0066CC;strokeColor=none;html=1" parent="1" vertex="1">
          <mxGeometry x="1245" y="1099.5" width="20" height="20" as="geometry"/>
        </mxCell>
        <mxCell id="K8U1Sd6g2Q127GAvfA1B-9" value="" style="shape=ellipse;fillColor=#0066CC;strokeColor=none;html=1" parent="1" vertex="1">
          <mxGeometry x="1310" y="1159.5" width="20" height="20" as="geometry"/>
        </mxCell>
        <mxCell id="K8U1Sd6g2Q127GAvfA1B-10" value="" style="shape=ellipse;fillColor=#0066CC;strokeColor=none;html=1" parent="1" vertex="1">
          <mxGeometry x="1170" y="1259.5" width="20" height="20" as="geometry"/>
        </mxCell>
        <mxCell id="K8U1Sd6g2Q127GAvfA1B-11" value="" style="shape=ellipse;fillColor=#0066CC;strokeColor=none;html=1" parent="1" vertex="1">
          <mxGeometry x="1100" y="1309.5" width="20" height="20" as="geometry"/>
        </mxCell>
        <mxCell id="K8U1Sd6g2Q127GAvfA1B-12" value="" style="shape=ellipse;fillColor=#0066CC;strokeColor=none;html=1" parent="1" vertex="1">
          <mxGeometry x="1260" y="1299.5" width="20" height="20" as="geometry"/>
        </mxCell>
        <mxCell id="K8U1Sd6g2Q127GAvfA1B-13" value="" style="shape=ellipse;fillColor=#0066CC;strokeColor=none;html=1" parent="1" vertex="1">
          <mxGeometry x="1170" y="1359.5" width="20" height="20" as="geometry"/>
        </mxCell>
        <mxCell id="K8U1Sd6g2Q127GAvfA1B-14" value="" style="endArrow=none;html=1;fontSize=56;strokeWidth=2;fillColor=#dae8fc;strokeColor=#6c8ebf;" parent="1" source="K8U1Sd6g2Q127GAvfA1B-6" target="K8U1Sd6g2Q127GAvfA1B-5" edge="1">
          <mxGeometry width="50" height="50" relative="1" as="geometry">
            <mxPoint x="1170" y="903.5" as="sourcePoint"/>
            <mxPoint x="1275" y="945.5" as="targetPoint"/>
          </mxGeometry>
        </mxCell>
        <mxCell id="K8U1Sd6g2Q127GAvfA1B-15" value="" style="endArrow=none;html=1;fontSize=56;strokeWidth=2;fillColor=#dae8fc;strokeColor=#6c8ebf;" parent="1" source="K8U1Sd6g2Q127GAvfA1B-8" target="K8U1Sd6g2Q127GAvfA1B-6" edge="1">
          <mxGeometry width="50" height="50" relative="1" as="geometry">
            <mxPoint x="1240" y="1139.5" as="sourcePoint"/>
            <mxPoint x="1100" y="1179.5" as="targetPoint"/>
          </mxGeometry>
        </mxCell>
        <mxCell id="K8U1Sd6g2Q127GAvfA1B-16" value="" style="endArrow=none;html=1;fontSize=56;strokeWidth=2;fillColor=#dae8fc;strokeColor=#6c8ebf;" parent="1" source="K8U1Sd6g2Q127GAvfA1B-9" target="K8U1Sd6g2Q127GAvfA1B-8" edge="1">
          <mxGeometry width="50" height="50" relative="1" as="geometry">
            <mxPoint x="1150" y="1149.5" as="sourcePoint"/>
            <mxPoint x="1110" y="1189.5" as="targetPoint"/>
          </mxGeometry>
        </mxCell>
        <mxCell id="K8U1Sd6g2Q127GAvfA1B-17" value="" style="endArrow=none;html=1;fontSize=56;strokeWidth=2;fillColor=#dae8fc;strokeColor=#6c8ebf;" parent="1" source="K8U1Sd6g2Q127GAvfA1B-7" target="K8U1Sd6g2Q127GAvfA1B-8" edge="1">
          <mxGeometry width="50" height="50" relative="1" as="geometry">
            <mxPoint x="1160" y="1159.5" as="sourcePoint"/>
            <mxPoint x="1120" y="1199.5" as="targetPoint"/>
          </mxGeometry>
        </mxCell>
        <mxCell id="K8U1Sd6g2Q127GAvfA1B-18" value="" style="endArrow=none;html=1;fontSize=56;strokeWidth=2;fillColor=#dae8fc;strokeColor=#6c8ebf;" parent="1" source="K8U1Sd6g2Q127GAvfA1B-6" target="K8U1Sd6g2Q127GAvfA1B-7" edge="1">
          <mxGeometry width="50" height="50" relative="1" as="geometry">
            <mxPoint x="1170" y="1169.5" as="sourcePoint"/>
            <mxPoint x="1130" y="1209.5" as="targetPoint"/>
          </mxGeometry>
        </mxCell>
        <mxCell id="K8U1Sd6g2Q127GAvfA1B-19" value="" style="endArrow=none;html=1;fontSize=56;strokeWidth=2;fillColor=#dae8fc;strokeColor=#6c8ebf;" parent="1" source="K8U1Sd6g2Q127GAvfA1B-7" target="K8U1Sd6g2Q127GAvfA1B-10" edge="1">
          <mxGeometry width="50" height="50" relative="1" as="geometry">
            <mxPoint x="1180" y="1179.5" as="sourcePoint"/>
            <mxPoint x="1140" y="1219.5" as="targetPoint"/>
          </mxGeometry>
        </mxCell>
        <mxCell id="K8U1Sd6g2Q127GAvfA1B-20" value="" style="endArrow=none;html=1;fontSize=56;strokeWidth=2;fillColor=#dae8fc;strokeColor=#6c8ebf;" parent="1" source="K8U1Sd6g2Q127GAvfA1B-12" target="K8U1Sd6g2Q127GAvfA1B-10" edge="1">
          <mxGeometry width="50" height="50" relative="1" as="geometry">
            <mxPoint x="1190" y="1189.5" as="sourcePoint"/>
            <mxPoint x="1150" y="1229.5" as="targetPoint"/>
          </mxGeometry>
        </mxCell>
        <mxCell id="K8U1Sd6g2Q127GAvfA1B-21" value="" style="endArrow=none;html=1;fontSize=56;strokeWidth=2;fillColor=#dae8fc;strokeColor=#6c8ebf;" parent="1" source="K8U1Sd6g2Q127GAvfA1B-13" target="K8U1Sd6g2Q127GAvfA1B-12" edge="1">
          <mxGeometry width="50" height="50" relative="1" as="geometry">
            <mxPoint x="1200" y="1199.5" as="sourcePoint"/>
            <mxPoint x="1160" y="1239.5" as="targetPoint"/>
          </mxGeometry>
        </mxCell>
        <mxCell id="K8U1Sd6g2Q127GAvfA1B-22" value="" style="endArrow=none;html=1;fontSize=56;strokeWidth=2;fillColor=#dae8fc;strokeColor=#6c8ebf;" parent="1" source="K8U1Sd6g2Q127GAvfA1B-10" target="K8U1Sd6g2Q127GAvfA1B-11" edge="1">
          <mxGeometry width="50" height="50" relative="1" as="geometry">
            <mxPoint x="1210" y="1209.5" as="sourcePoint"/>
            <mxPoint x="1170" y="1249.5" as="targetPoint"/>
          </mxGeometry>
        </mxCell>
        <mxCell id="K8U1Sd6g2Q127GAvfA1B-23" value="" style="endArrow=none;html=1;fontSize=56;strokeWidth=2;fillColor=#dae8fc;strokeColor=#6c8ebf;" parent="1" source="K8U1Sd6g2Q127GAvfA1B-5" target="K8U1Sd6g2Q127GAvfA1B-11" edge="1">
          <mxGeometry width="50" height="50" relative="1" as="geometry">
            <mxPoint x="1230" y="1229.5" as="sourcePoint"/>
            <mxPoint x="1190" y="1269.5" as="targetPoint"/>
          </mxGeometry>
        </mxCell>
        <mxCell id="K8U1Sd6g2Q127GAvfA1B-24" value="" style="endArrow=none;html=1;fontSize=56;strokeWidth=2;fillColor=#dae8fc;strokeColor=#6c8ebf;" parent="1" source="K8U1Sd6g2Q127GAvfA1B-9" target="K8U1Sd6g2Q127GAvfA1B-12" edge="1">
          <mxGeometry width="50" height="50" relative="1" as="geometry">
            <mxPoint x="1240" y="1239.5" as="sourcePoint"/>
            <mxPoint x="1200" y="1279.5" as="targetPoint"/>
          </mxGeometry>
        </mxCell>
        <mxCell id="K8U1Sd6g2Q127GAvfA1B-25" value="" style="edgeStyle=orthogonalEdgeStyle;rounded=0;orthogonalLoop=1;jettySize=auto;html=1;strokeWidth=10;entryX=0;entryY=0.5;entryDx=0;entryDy=0;exitX=1;exitY=0.5;exitDx=0;exitDy=0;" parent="1" source="K8U1Sd6g2Q127GAvfA1B-123" target="K8U1Sd6g2Q127GAvfA1B-1" edge="1">
          <mxGeometry relative="1" as="geometry">
            <mxPoint x="2362.071428571429" y="1242.1428571428573" as="targetPoint"/>
            <mxPoint x="2252.5" y="1242.1428571428573" as="sourcePoint"/>
          </mxGeometry>
        </mxCell>
        <mxCell id="K8U1Sd6g2Q127GAvfA1B-26" value="" style="group;direction=west;" parent="1" vertex="1" connectable="0">
          <mxGeometry x="1422.5" y="1137" width="555" height="210" as="geometry"/>
        </mxCell>
        <mxCell id="K8U1Sd6g2Q127GAvfA1B-27" value="" style="rounded=1;whiteSpace=wrap;html=1;fillColor=#A7BCD1;strokeColor=#6c8ebf;opacity=60;" parent="K8U1Sd6g2Q127GAvfA1B-26" vertex="1">
          <mxGeometry x="-22.5" width="352.5" height="210" as="geometry"/>
        </mxCell>
        <mxCell id="K8U1Sd6g2Q127GAvfA1B-28" value="" style="shape=ellipse;fillColor=#0066CC;strokeColor=none;html=1" parent="K8U1Sd6g2Q127GAvfA1B-26" vertex="1">
          <mxGeometry x="-2.5" y="50" width="20" height="20" as="geometry"/>
        </mxCell>
        <mxCell id="K8U1Sd6g2Q127GAvfA1B-29" value="" style="shape=ellipse;fillColor=#0066CC;strokeColor=none;html=1" parent="K8U1Sd6g2Q127GAvfA1B-26" vertex="1">
          <mxGeometry x="37.5" y="50" width="20" height="20" as="geometry"/>
        </mxCell>
        <mxCell id="K8U1Sd6g2Q127GAvfA1B-30" value="" style="shape=ellipse;fillColor=#0066CC;strokeColor=none;html=1" parent="K8U1Sd6g2Q127GAvfA1B-26" vertex="1">
          <mxGeometry x="77.5" y="50" width="20" height="20" as="geometry"/>
        </mxCell>
        <mxCell id="K8U1Sd6g2Q127GAvfA1B-31" value="" style="shape=ellipse;fillColor=#0066CC;strokeColor=none;html=1" parent="K8U1Sd6g2Q127GAvfA1B-26" vertex="1">
          <mxGeometry x="117.5" y="50" width="20" height="20" as="geometry"/>
        </mxCell>
        <mxCell id="K8U1Sd6g2Q127GAvfA1B-32" value="" style="shape=ellipse;fillColor=#0066CC;strokeColor=none;html=1" parent="K8U1Sd6g2Q127GAvfA1B-26" vertex="1">
          <mxGeometry x="157.5" y="50" width="20" height="20" as="geometry"/>
        </mxCell>
        <mxCell id="K8U1Sd6g2Q127GAvfA1B-33" value="" style="shape=ellipse;fillColor=#0066CC;strokeColor=none;html=1" parent="K8U1Sd6g2Q127GAvfA1B-26" vertex="1">
          <mxGeometry x="197.5" y="50" width="20" height="20" as="geometry"/>
        </mxCell>
        <mxCell id="K8U1Sd6g2Q127GAvfA1B-34" value="" style="shape=ellipse;fillColor=#0066CC;strokeColor=none;html=1" parent="K8U1Sd6g2Q127GAvfA1B-26" vertex="1">
          <mxGeometry x="-2.5" y="90" width="20" height="20" as="geometry"/>
        </mxCell>
        <mxCell id="K8U1Sd6g2Q127GAvfA1B-35" value="" style="shape=ellipse;fillColor=#0066CC;strokeColor=none;html=1" parent="K8U1Sd6g2Q127GAvfA1B-26" vertex="1">
          <mxGeometry x="37.5" y="90" width="20" height="20" as="geometry"/>
        </mxCell>
        <mxCell id="K8U1Sd6g2Q127GAvfA1B-36" value="" style="shape=ellipse;fillColor=#0066CC;strokeColor=none;html=1" parent="K8U1Sd6g2Q127GAvfA1B-26" vertex="1">
          <mxGeometry x="77.5" y="90" width="20" height="20" as="geometry"/>
        </mxCell>
        <mxCell id="K8U1Sd6g2Q127GAvfA1B-37" value="" style="shape=ellipse;fillColor=#0066CC;strokeColor=none;html=1" parent="K8U1Sd6g2Q127GAvfA1B-26" vertex="1">
          <mxGeometry x="117.5" y="90" width="20" height="20" as="geometry"/>
        </mxCell>
        <mxCell id="K8U1Sd6g2Q127GAvfA1B-38" value="" style="shape=ellipse;fillColor=#0066CC;strokeColor=none;html=1" parent="K8U1Sd6g2Q127GAvfA1B-26" vertex="1">
          <mxGeometry x="157.5" y="90" width="20" height="20" as="geometry"/>
        </mxCell>
        <mxCell id="K8U1Sd6g2Q127GAvfA1B-39" value="" style="shape=ellipse;fillColor=#0066CC;strokeColor=none;html=1" parent="K8U1Sd6g2Q127GAvfA1B-26" vertex="1">
          <mxGeometry x="197.5" y="90" width="20" height="20" as="geometry"/>
        </mxCell>
        <mxCell id="K8U1Sd6g2Q127GAvfA1B-40" value="" style="shape=ellipse;fillColor=#0066CC;strokeColor=none;html=1" parent="K8U1Sd6g2Q127GAvfA1B-26" vertex="1">
          <mxGeometry x="-2.5" y="130" width="20" height="20" as="geometry"/>
        </mxCell>
        <mxCell id="K8U1Sd6g2Q127GAvfA1B-41" value="" style="shape=ellipse;fillColor=#0066CC;strokeColor=none;html=1" parent="K8U1Sd6g2Q127GAvfA1B-26" vertex="1">
          <mxGeometry x="37.5" y="130" width="20" height="20" as="geometry"/>
        </mxCell>
        <mxCell id="K8U1Sd6g2Q127GAvfA1B-42" value="" style="shape=ellipse;fillColor=#0066CC;strokeColor=none;html=1" parent="K8U1Sd6g2Q127GAvfA1B-26" vertex="1">
          <mxGeometry x="77.5" y="130" width="20" height="20" as="geometry"/>
        </mxCell>
        <mxCell id="K8U1Sd6g2Q127GAvfA1B-43" value="" style="shape=ellipse;fillColor=#0066CC;strokeColor=none;html=1" parent="K8U1Sd6g2Q127GAvfA1B-26" vertex="1">
          <mxGeometry x="117.5" y="130" width="20" height="20" as="geometry"/>
        </mxCell>
        <mxCell id="K8U1Sd6g2Q127GAvfA1B-44" value="" style="shape=ellipse;fillColor=#0066CC;strokeColor=none;html=1" parent="K8U1Sd6g2Q127GAvfA1B-26" vertex="1">
          <mxGeometry x="157.5" y="130" width="20" height="20" as="geometry"/>
        </mxCell>
        <mxCell id="K8U1Sd6g2Q127GAvfA1B-45" value="" style="shape=ellipse;fillColor=#0066CC;strokeColor=none;html=1" parent="K8U1Sd6g2Q127GAvfA1B-26" vertex="1">
          <mxGeometry x="197.5" y="130" width="20" height="20" as="geometry"/>
        </mxCell>
        <mxCell id="K8U1Sd6g2Q127GAvfA1B-46" value="" style="shape=ellipse;fillColor=#0066CC;strokeColor=none;html=1" parent="K8U1Sd6g2Q127GAvfA1B-26" vertex="1">
          <mxGeometry x="237.5" y="50" width="20" height="20" as="geometry"/>
        </mxCell>
        <mxCell id="K8U1Sd6g2Q127GAvfA1B-47" value="" style="shape=ellipse;fillColor=#0066CC;strokeColor=none;html=1" parent="K8U1Sd6g2Q127GAvfA1B-26" vertex="1">
          <mxGeometry x="237.5" y="90" width="20" height="20" as="geometry"/>
        </mxCell>
        <mxCell id="K8U1Sd6g2Q127GAvfA1B-48" value="" style="shape=ellipse;fillColor=#0066CC;strokeColor=none;html=1" parent="K8U1Sd6g2Q127GAvfA1B-26" vertex="1">
          <mxGeometry x="237.5" y="130" width="20" height="20" as="geometry"/>
        </mxCell>
        <mxCell id="K8U1Sd6g2Q127GAvfA1B-49" value="" style="endArrow=classic;html=1;strokeWidth=3;fillColor=#d5e8d4;strokeColor=#00CC00;fontSize=24;" parent="K8U1Sd6g2Q127GAvfA1B-26" edge="1">
          <mxGeometry width="50" height="50" relative="1" as="geometry">
            <mxPoint x="287.5" y="38" as="sourcePoint"/>
            <mxPoint x="287.5" y="170" as="targetPoint"/>
          </mxGeometry>
        </mxCell>
        <mxCell id="K8U1Sd6g2Q127GAvfA1B-50" value="temporal" style="text;html=1;align=center;verticalAlign=middle;resizable=0;points=[];;horizontal=0;rotation=-180;fontSize=24;rounded=1;strokeColor=#6c8ebf;fillColor=#A7BCD1;opacity=60;labelBackgroundColor=#67AB9F;labelBorderColor=none;" parent="K8U1Sd6g2Q127GAvfA1B-49" vertex="1" connectable="0">
          <mxGeometry x="-0.3775" y="1" relative="1" as="geometry">
            <mxPoint y="15.52" as="offset"/>
          </mxGeometry>
        </mxCell>
        <mxCell id="K8U1Sd6g2Q127GAvfA1B-51" value="" style="shape=ellipse;html=1" parent="K8U1Sd6g2Q127GAvfA1B-26" vertex="1">
          <mxGeometry x="-2.5" y="10" width="20" height="20" as="geometry"/>
        </mxCell>
        <mxCell id="K8U1Sd6g2Q127GAvfA1B-52" value="" style="shape=ellipse;html=1" parent="K8U1Sd6g2Q127GAvfA1B-26" vertex="1">
          <mxGeometry x="37.5" y="10" width="20" height="20" as="geometry"/>
        </mxCell>
        <mxCell id="K8U1Sd6g2Q127GAvfA1B-53" value="" style="shape=ellipse;html=1" parent="K8U1Sd6g2Q127GAvfA1B-26" vertex="1">
          <mxGeometry x="77.5" y="10" width="20" height="20" as="geometry"/>
        </mxCell>
        <mxCell id="K8U1Sd6g2Q127GAvfA1B-54" value="" style="shape=ellipse;html=1" parent="K8U1Sd6g2Q127GAvfA1B-26" vertex="1">
          <mxGeometry x="117.5" y="10" width="20" height="20" as="geometry"/>
        </mxCell>
        <mxCell id="K8U1Sd6g2Q127GAvfA1B-55" value="" style="shape=ellipse;html=1" parent="K8U1Sd6g2Q127GAvfA1B-26" vertex="1">
          <mxGeometry x="157.5" y="10" width="20" height="20" as="geometry"/>
        </mxCell>
        <mxCell id="K8U1Sd6g2Q127GAvfA1B-56" value="" style="shape=ellipse;html=1" parent="K8U1Sd6g2Q127GAvfA1B-26" vertex="1">
          <mxGeometry x="197.5" y="10" width="20" height="20" as="geometry"/>
        </mxCell>
        <mxCell id="K8U1Sd6g2Q127GAvfA1B-57" value="" style="shape=ellipse;html=1" parent="K8U1Sd6g2Q127GAvfA1B-26" vertex="1">
          <mxGeometry x="237.5" y="10" width="20" height="20" as="geometry"/>
        </mxCell>
        <mxCell id="K8U1Sd6g2Q127GAvfA1B-58" value="" style="shape=ellipse;html=1" parent="K8U1Sd6g2Q127GAvfA1B-26" vertex="1">
          <mxGeometry x="-2.5" y="170" width="20" height="20" as="geometry"/>
        </mxCell>
        <mxCell id="K8U1Sd6g2Q127GAvfA1B-59" value="" style="shape=ellipse;html=1" parent="K8U1Sd6g2Q127GAvfA1B-26" vertex="1">
          <mxGeometry x="37.5" y="170" width="20" height="20" as="geometry"/>
        </mxCell>
        <mxCell id="K8U1Sd6g2Q127GAvfA1B-60" value="" style="shape=ellipse;html=1" parent="K8U1Sd6g2Q127GAvfA1B-26" vertex="1">
          <mxGeometry x="77.5" y="170" width="20" height="20" as="geometry"/>
        </mxCell>
        <mxCell id="K8U1Sd6g2Q127GAvfA1B-61" value="" style="shape=ellipse;html=1" parent="K8U1Sd6g2Q127GAvfA1B-26" vertex="1">
          <mxGeometry x="117.5" y="170" width="20" height="20" as="geometry"/>
        </mxCell>
        <mxCell id="K8U1Sd6g2Q127GAvfA1B-62" value="" style="shape=ellipse;html=1" parent="K8U1Sd6g2Q127GAvfA1B-26" vertex="1">
          <mxGeometry x="157.5" y="170" width="20" height="20" as="geometry"/>
        </mxCell>
        <mxCell id="K8U1Sd6g2Q127GAvfA1B-63" value="" style="shape=ellipse;html=1" parent="K8U1Sd6g2Q127GAvfA1B-26" vertex="1">
          <mxGeometry x="197.5" y="170" width="20" height="20" as="geometry"/>
        </mxCell>
        <mxCell id="K8U1Sd6g2Q127GAvfA1B-64" value="" style="shape=ellipse;html=1" parent="K8U1Sd6g2Q127GAvfA1B-26" vertex="1">
          <mxGeometry x="237.5" y="170" width="20" height="20" as="geometry"/>
        </mxCell>
        <mxCell id="K8U1Sd6g2Q127GAvfA1B-65" value="" style="rounded=0;whiteSpace=wrap;html=1;labelBackgroundColor=none;fillColor=#f8cecc;fontSize=18;opacity=60;strokeColor=#b85450;" parent="K8U1Sd6g2Q127GAvfA1B-26" vertex="1">
          <mxGeometry x="72.5" y="50" width="30" height="100" as="geometry"/>
        </mxCell>
        <mxCell id="K8U1Sd6g2Q127GAvfA1B-66" value="" style="rounded=0;whiteSpace=wrap;html=1;labelBackgroundColor=none;fillColor=#f8cecc;fontSize=18;opacity=60;strokeColor=#b85450;" parent="K8U1Sd6g2Q127GAvfA1B-26" vertex="1">
          <mxGeometry x="192.5" y="90" width="30" height="100" as="geometry"/>
        </mxCell>
        <mxCell id="K8U1Sd6g2Q127GAvfA1B-67" value="Pad" style="text;html=1;strokeColor=none;fillColor=none;align=center;verticalAlign=middle;whiteSpace=wrap;rounded=0;labelBackgroundColor=none;fontSize=24;opacity=60;" parent="K8U1Sd6g2Q127GAvfA1B-26" vertex="1">
          <mxGeometry x="267.5" y="10" width="40" height="20" as="geometry"/>
        </mxCell>
        <mxCell id="K8U1Sd6g2Q127GAvfA1B-68" value="Pad" style="text;html=1;strokeColor=none;fillColor=none;align=center;verticalAlign=middle;whiteSpace=wrap;rounded=0;labelBackgroundColor=none;fontSize=24;opacity=60;" parent="K8U1Sd6g2Q127GAvfA1B-26" vertex="1">
          <mxGeometry x="267.5" y="170" width="40" height="20" as="geometry"/>
        </mxCell>
        <mxCell id="K8U1Sd6g2Q127GAvfA1B-69" value="" style="rounded=0;whiteSpace=wrap;html=1;labelBackgroundColor=none;fillColor=#f8cecc;fontSize=18;opacity=60;strokeColor=#b85450;" parent="K8U1Sd6g2Q127GAvfA1B-26" vertex="1">
          <mxGeometry x="-7.5" y="10" width="30" height="100" as="geometry"/>
        </mxCell>
        <mxCell id="K8U1Sd6g2Q127GAvfA1B-70" value="" style="endArrow=classic;html=1;strokeWidth=3;fillColor=#d5e8d4;strokeColor=#00CC00;fontSize=24;" parent="1" edge="1">
          <mxGeometry width="50" height="50" relative="1" as="geometry">
            <mxPoint x="2492.5" y="1175" as="sourcePoint"/>
            <mxPoint x="2492.5" y="1307" as="targetPoint"/>
          </mxGeometry>
        </mxCell>
        <mxCell id="K8U1Sd6g2Q127GAvfA1B-71" value="temporal" style="text;html=1;align=center;verticalAlign=middle;resizable=0;points=[];;horizontal=0;rotation=-180;fontSize=24;rounded=1;strokeColor=#6c8ebf;fillColor=#A7BCD1;opacity=60;labelBackgroundColor=#67AB9F;labelBorderColor=none;" parent="K8U1Sd6g2Q127GAvfA1B-70" vertex="1" connectable="0">
          <mxGeometry x="-0.3775" y="1" relative="1" as="geometry">
            <mxPoint y="15.52" as="offset"/>
          </mxGeometry>
        </mxCell>
        <mxCell id="K8U1Sd6g2Q127GAvfA1B-72" value="" style="shape=ellipse;fillColor=#0066CC;strokeColor=none;html=1" parent="1" vertex="1">
          <mxGeometry x="2200" y="1187" width="20" height="20" as="geometry"/>
        </mxCell>
        <mxCell id="K8U1Sd6g2Q127GAvfA1B-73" value="" style="shape=ellipse;fillColor=#0066CC;strokeColor=none;html=1" parent="1" vertex="1">
          <mxGeometry x="2240" y="1187" width="20" height="20" as="geometry"/>
        </mxCell>
        <mxCell id="K8U1Sd6g2Q127GAvfA1B-74" value="" style="shape=ellipse;fillColor=#0066CC;strokeColor=none;html=1" parent="1" vertex="1">
          <mxGeometry x="2280" y="1187" width="20" height="20" as="geometry"/>
        </mxCell>
        <mxCell id="K8U1Sd6g2Q127GAvfA1B-75" value="" style="shape=ellipse;fillColor=#0066CC;strokeColor=none;html=1" parent="1" vertex="1">
          <mxGeometry x="2320" y="1187" width="20" height="20" as="geometry"/>
        </mxCell>
        <mxCell id="K8U1Sd6g2Q127GAvfA1B-76" value="" style="shape=ellipse;fillColor=#0066CC;strokeColor=none;html=1" parent="1" vertex="1">
          <mxGeometry x="2360" y="1187" width="20" height="20" as="geometry"/>
        </mxCell>
        <mxCell id="K8U1Sd6g2Q127GAvfA1B-77" value="" style="shape=ellipse;fillColor=#0066CC;strokeColor=none;html=1" parent="1" vertex="1">
          <mxGeometry x="2400" y="1187" width="20" height="20" as="geometry"/>
        </mxCell>
        <mxCell id="K8U1Sd6g2Q127GAvfA1B-78" value="" style="shape=ellipse;fillColor=#0066CC;strokeColor=none;html=1" parent="1" vertex="1">
          <mxGeometry x="2200" y="1227" width="20" height="20" as="geometry"/>
        </mxCell>
        <mxCell id="K8U1Sd6g2Q127GAvfA1B-79" value="" style="shape=ellipse;fillColor=#0066CC;strokeColor=none;html=1" parent="1" vertex="1">
          <mxGeometry x="2240" y="1227" width="20" height="20" as="geometry"/>
        </mxCell>
        <mxCell id="K8U1Sd6g2Q127GAvfA1B-80" value="" style="shape=ellipse;fillColor=#0066CC;strokeColor=none;html=1" parent="1" vertex="1">
          <mxGeometry x="2280" y="1227" width="20" height="20" as="geometry"/>
        </mxCell>
        <mxCell id="K8U1Sd6g2Q127GAvfA1B-81" value="" style="shape=ellipse;fillColor=#0066CC;strokeColor=none;html=1" parent="1" vertex="1">
          <mxGeometry x="2320" y="1227" width="20" height="20" as="geometry"/>
        </mxCell>
        <mxCell id="K8U1Sd6g2Q127GAvfA1B-82" value="" style="shape=ellipse;fillColor=#0066CC;strokeColor=none;html=1" parent="1" vertex="1">
          <mxGeometry x="2360" y="1227" width="20" height="20" as="geometry"/>
        </mxCell>
        <mxCell id="K8U1Sd6g2Q127GAvfA1B-83" value="" style="shape=ellipse;fillColor=#0066CC;strokeColor=none;html=1" parent="1" vertex="1">
          <mxGeometry x="2400" y="1227" width="20" height="20" as="geometry"/>
        </mxCell>
        <mxCell id="K8U1Sd6g2Q127GAvfA1B-84" value="" style="shape=ellipse;fillColor=#0066CC;strokeColor=none;html=1" parent="1" vertex="1">
          <mxGeometry x="2200" y="1267" width="20" height="20" as="geometry"/>
        </mxCell>
        <mxCell id="K8U1Sd6g2Q127GAvfA1B-85" value="" style="shape=ellipse;fillColor=#0066CC;strokeColor=none;html=1" parent="1" vertex="1">
          <mxGeometry x="2240" y="1267" width="20" height="20" as="geometry"/>
        </mxCell>
        <mxCell id="K8U1Sd6g2Q127GAvfA1B-86" value="" style="shape=ellipse;fillColor=#0066CC;strokeColor=none;html=1" parent="1" vertex="1">
          <mxGeometry x="2280" y="1267" width="20" height="20" as="geometry"/>
        </mxCell>
        <mxCell id="K8U1Sd6g2Q127GAvfA1B-87" value="" style="shape=ellipse;fillColor=#0066CC;strokeColor=none;html=1" parent="1" vertex="1">
          <mxGeometry x="2320" y="1267" width="20" height="20" as="geometry"/>
        </mxCell>
        <mxCell id="K8U1Sd6g2Q127GAvfA1B-88" value="" style="shape=ellipse;fillColor=#0066CC;strokeColor=none;html=1" parent="1" vertex="1">
          <mxGeometry x="2360" y="1267" width="20" height="20" as="geometry"/>
        </mxCell>
        <mxCell id="K8U1Sd6g2Q127GAvfA1B-89" value="" style="shape=ellipse;fillColor=#0066CC;strokeColor=none;html=1" parent="1" vertex="1">
          <mxGeometry x="2400" y="1267" width="20" height="20" as="geometry"/>
        </mxCell>
        <mxCell id="K8U1Sd6g2Q127GAvfA1B-90" value="" style="shape=ellipse;fillColor=#0066CC;strokeColor=none;html=1" parent="1" vertex="1">
          <mxGeometry x="2440" y="1187" width="20" height="20" as="geometry"/>
        </mxCell>
        <mxCell id="K8U1Sd6g2Q127GAvfA1B-91" value="" style="shape=ellipse;fillColor=#0066CC;strokeColor=none;html=1" parent="1" vertex="1">
          <mxGeometry x="2440" y="1227" width="20" height="20" as="geometry"/>
        </mxCell>
        <mxCell id="K8U1Sd6g2Q127GAvfA1B-92" value="" style="shape=ellipse;fillColor=#0066CC;strokeColor=none;html=1" parent="1" vertex="1">
          <mxGeometry x="2440" y="1267" width="20" height="20" as="geometry"/>
        </mxCell>
        <mxCell id="K8U1Sd6g2Q127GAvfA1B-93" value="" style="shape=ellipse;html=1" parent="1" vertex="1">
          <mxGeometry x="2200" y="1147" width="20" height="20" as="geometry"/>
        </mxCell>
        <mxCell id="K8U1Sd6g2Q127GAvfA1B-94" value="" style="shape=ellipse;html=1" parent="1" vertex="1">
          <mxGeometry x="2240" y="1147" width="20" height="20" as="geometry"/>
        </mxCell>
        <mxCell id="K8U1Sd6g2Q127GAvfA1B-95" value="" style="shape=ellipse;html=1" parent="1" vertex="1">
          <mxGeometry x="2280" y="1147" width="20" height="20" as="geometry"/>
        </mxCell>
        <mxCell id="K8U1Sd6g2Q127GAvfA1B-96" value="" style="shape=ellipse;html=1" parent="1" vertex="1">
          <mxGeometry x="2320" y="1147" width="20" height="20" as="geometry"/>
        </mxCell>
        <mxCell id="K8U1Sd6g2Q127GAvfA1B-97" value="" style="shape=ellipse;html=1" parent="1" vertex="1">
          <mxGeometry x="2360" y="1147" width="20" height="20" as="geometry"/>
        </mxCell>
        <mxCell id="K8U1Sd6g2Q127GAvfA1B-98" value="" style="shape=ellipse;html=1" parent="1" vertex="1">
          <mxGeometry x="2400" y="1147" width="20" height="20" as="geometry"/>
        </mxCell>
        <mxCell id="K8U1Sd6g2Q127GAvfA1B-99" value="" style="shape=ellipse;html=1" parent="1" vertex="1">
          <mxGeometry x="2440" y="1147" width="20" height="20" as="geometry"/>
        </mxCell>
        <mxCell id="K8U1Sd6g2Q127GAvfA1B-100" value="" style="shape=ellipse;html=1" parent="1" vertex="1">
          <mxGeometry x="2200" y="1307" width="20" height="20" as="geometry"/>
        </mxCell>
        <mxCell id="K8U1Sd6g2Q127GAvfA1B-101" value="" style="shape=ellipse;html=1" parent="1" vertex="1">
          <mxGeometry x="2240" y="1307" width="20" height="20" as="geometry"/>
        </mxCell>
        <mxCell id="K8U1Sd6g2Q127GAvfA1B-102" value="" style="shape=ellipse;html=1" parent="1" vertex="1">
          <mxGeometry x="2280" y="1307" width="20" height="20" as="geometry"/>
        </mxCell>
        <mxCell id="K8U1Sd6g2Q127GAvfA1B-103" value="" style="shape=ellipse;html=1" parent="1" vertex="1">
          <mxGeometry x="2320" y="1307" width="20" height="20" as="geometry"/>
        </mxCell>
        <mxCell id="K8U1Sd6g2Q127GAvfA1B-104" value="" style="shape=ellipse;html=1" parent="1" vertex="1">
          <mxGeometry x="2360" y="1307" width="20" height="20" as="geometry"/>
        </mxCell>
        <mxCell id="K8U1Sd6g2Q127GAvfA1B-105" value="" style="shape=ellipse;html=1" parent="1" vertex="1">
          <mxGeometry x="2400" y="1307" width="20" height="20" as="geometry"/>
        </mxCell>
        <mxCell id="K8U1Sd6g2Q127GAvfA1B-106" value="" style="shape=ellipse;html=1" parent="1" vertex="1">
          <mxGeometry x="2440" y="1307" width="20" height="20" as="geometry"/>
        </mxCell>
        <mxCell id="K8U1Sd6g2Q127GAvfA1B-107" value="" style="rounded=0;whiteSpace=wrap;html=1;labelBackgroundColor=none;fillColor=#f8cecc;fontSize=18;opacity=60;strokeColor=#b85450;" parent="1" vertex="1">
          <mxGeometry x="2275" y="1187" width="30" height="100" as="geometry"/>
        </mxCell>
        <mxCell id="K8U1Sd6g2Q127GAvfA1B-108" value="" style="rounded=0;whiteSpace=wrap;html=1;labelBackgroundColor=none;fillColor=#f8cecc;fontSize=18;opacity=60;strokeColor=#b85450;" parent="1" vertex="1">
          <mxGeometry x="2395" y="1227" width="30" height="100" as="geometry"/>
        </mxCell>
        <mxCell id="K8U1Sd6g2Q127GAvfA1B-109" value="Pad" style="text;html=1;strokeColor=none;fillColor=none;align=center;verticalAlign=middle;whiteSpace=wrap;rounded=0;labelBackgroundColor=none;fontSize=24;opacity=60;" parent="1" vertex="1">
          <mxGeometry x="2472.5" y="1147" width="40" height="20" as="geometry"/>
        </mxCell>
        <mxCell id="K8U1Sd6g2Q127GAvfA1B-110" value="Pad" style="text;html=1;strokeColor=none;fillColor=none;align=center;verticalAlign=middle;whiteSpace=wrap;rounded=0;labelBackgroundColor=none;fontSize=24;opacity=60;" parent="1" vertex="1">
          <mxGeometry x="2472.5" y="1307" width="40" height="20" as="geometry"/>
        </mxCell>
        <mxCell id="K8U1Sd6g2Q127GAvfA1B-111" value="M&lt;sup&gt;g&lt;/sup&gt;" style="rounded=0;whiteSpace=wrap;html=1;fontSize=40;fillColor=#f8cecc;strokeColor=#b85450;fontStyle=1" parent="1" vertex="1">
          <mxGeometry x="850" y="1192" width="120" height="100" as="geometry"/>
        </mxCell>
        <mxCell id="K8U1Sd6g2Q127GAvfA1B-112" value="" style="endArrow=none;html=1;fontSize=56;strokeWidth=2;fillColor=#dae8fc;strokeColor=#6c8ebf;" parent="1" source="K8U1Sd6g2Q127GAvfA1B-125" target="K8U1Sd6g2Q127GAvfA1B-124" edge="1">
          <mxGeometry width="50" height="50" relative="1" as="geometry">
            <mxPoint x="1937.5" y="903.5" as="sourcePoint"/>
            <mxPoint x="2042.5" y="945.5" as="targetPoint"/>
          </mxGeometry>
        </mxCell>
        <mxCell id="K8U1Sd6g2Q127GAvfA1B-113" value="" style="endArrow=none;html=1;fontSize=56;strokeWidth=2;fillColor=#dae8fc;strokeColor=#6c8ebf;" parent="1" source="K8U1Sd6g2Q127GAvfA1B-127" target="K8U1Sd6g2Q127GAvfA1B-125" edge="1">
          <mxGeometry width="50" height="50" relative="1" as="geometry">
            <mxPoint x="2007.5" y="1139.5" as="sourcePoint"/>
            <mxPoint x="1867.5" y="1179.5" as="targetPoint"/>
          </mxGeometry>
        </mxCell>
        <mxCell id="K8U1Sd6g2Q127GAvfA1B-114" value="" style="endArrow=none;html=1;fontSize=56;strokeWidth=2;fillColor=#dae8fc;strokeColor=#6c8ebf;" parent="1" source="K8U1Sd6g2Q127GAvfA1B-128" target="K8U1Sd6g2Q127GAvfA1B-127" edge="1">
          <mxGeometry width="50" height="50" relative="1" as="geometry">
            <mxPoint x="1917.5" y="1149.5" as="sourcePoint"/>
            <mxPoint x="1877.5" y="1189.5" as="targetPoint"/>
          </mxGeometry>
        </mxCell>
        <mxCell id="K8U1Sd6g2Q127GAvfA1B-115" value="" style="endArrow=none;html=1;fontSize=56;strokeWidth=2;fillColor=#dae8fc;strokeColor=#6c8ebf;" parent="1" source="K8U1Sd6g2Q127GAvfA1B-126" target="K8U1Sd6g2Q127GAvfA1B-127" edge="1">
          <mxGeometry width="50" height="50" relative="1" as="geometry">
            <mxPoint x="1927.5" y="1159.5" as="sourcePoint"/>
            <mxPoint x="1887.5" y="1199.5" as="targetPoint"/>
          </mxGeometry>
        </mxCell>
        <mxCell id="K8U1Sd6g2Q127GAvfA1B-116" value="" style="endArrow=none;html=1;fontSize=56;strokeWidth=2;fillColor=#dae8fc;strokeColor=#6c8ebf;" parent="1" source="K8U1Sd6g2Q127GAvfA1B-125" target="K8U1Sd6g2Q127GAvfA1B-126" edge="1">
          <mxGeometry width="50" height="50" relative="1" as="geometry">
            <mxPoint x="1937.5" y="1169.5" as="sourcePoint"/>
            <mxPoint x="1897.5" y="1209.5" as="targetPoint"/>
          </mxGeometry>
        </mxCell>
        <mxCell id="K8U1Sd6g2Q127GAvfA1B-117" value="" style="endArrow=none;html=1;fontSize=56;strokeWidth=2;fillColor=#dae8fc;strokeColor=#6c8ebf;" parent="1" source="K8U1Sd6g2Q127GAvfA1B-126" target="K8U1Sd6g2Q127GAvfA1B-129" edge="1">
          <mxGeometry width="50" height="50" relative="1" as="geometry">
            <mxPoint x="1947.5" y="1179.5" as="sourcePoint"/>
            <mxPoint x="1907.5" y="1219.5" as="targetPoint"/>
          </mxGeometry>
        </mxCell>
        <mxCell id="K8U1Sd6g2Q127GAvfA1B-118" value="" style="endArrow=none;html=1;fontSize=56;strokeWidth=2;fillColor=#dae8fc;strokeColor=#6c8ebf;" parent="1" source="K8U1Sd6g2Q127GAvfA1B-131" target="K8U1Sd6g2Q127GAvfA1B-129" edge="1">
          <mxGeometry width="50" height="50" relative="1" as="geometry">
            <mxPoint x="1957.5" y="1189.5" as="sourcePoint"/>
            <mxPoint x="1917.5" y="1229.5" as="targetPoint"/>
          </mxGeometry>
        </mxCell>
        <mxCell id="K8U1Sd6g2Q127GAvfA1B-119" value="" style="endArrow=none;html=1;fontSize=56;strokeWidth=2;fillColor=#dae8fc;strokeColor=#6c8ebf;" parent="1" source="K8U1Sd6g2Q127GAvfA1B-132" target="K8U1Sd6g2Q127GAvfA1B-131" edge="1">
          <mxGeometry width="50" height="50" relative="1" as="geometry">
            <mxPoint x="1967.5" y="1199.5" as="sourcePoint"/>
            <mxPoint x="1927.5" y="1239.5" as="targetPoint"/>
          </mxGeometry>
        </mxCell>
        <mxCell id="K8U1Sd6g2Q127GAvfA1B-120" value="" style="endArrow=none;html=1;fontSize=56;strokeWidth=2;fillColor=#dae8fc;strokeColor=#6c8ebf;" parent="1" source="K8U1Sd6g2Q127GAvfA1B-129" target="K8U1Sd6g2Q127GAvfA1B-130" edge="1">
          <mxGeometry width="50" height="50" relative="1" as="geometry">
            <mxPoint x="1977.5" y="1209.5" as="sourcePoint"/>
            <mxPoint x="1937.5" y="1249.5" as="targetPoint"/>
          </mxGeometry>
        </mxCell>
        <mxCell id="K8U1Sd6g2Q127GAvfA1B-121" value="" style="endArrow=none;html=1;fontSize=56;strokeWidth=2;fillColor=#dae8fc;strokeColor=#6c8ebf;" parent="1" source="K8U1Sd6g2Q127GAvfA1B-124" target="K8U1Sd6g2Q127GAvfA1B-130" edge="1">
          <mxGeometry width="50" height="50" relative="1" as="geometry">
            <mxPoint x="1997.5" y="1229.5" as="sourcePoint"/>
            <mxPoint x="1957.5" y="1269.5" as="targetPoint"/>
          </mxGeometry>
        </mxCell>
        <mxCell id="K8U1Sd6g2Q127GAvfA1B-122" value="" style="endArrow=none;html=1;fontSize=56;strokeWidth=2;fillColor=#dae8fc;strokeColor=#6c8ebf;" parent="1" source="K8U1Sd6g2Q127GAvfA1B-128" target="K8U1Sd6g2Q127GAvfA1B-131" edge="1">
          <mxGeometry width="50" height="50" relative="1" as="geometry">
            <mxPoint x="2007.5" y="1239.5" as="sourcePoint"/>
            <mxPoint x="1967.5" y="1279.5" as="targetPoint"/>
          </mxGeometry>
        </mxCell>
        <mxCell id="K8U1Sd6g2Q127GAvfA1B-123" value="" style="rounded=1;whiteSpace=wrap;html=1;fillColor=#d5e8d4;strokeColor=#82b366;opacity=60;" parent="1" vertex="1">
          <mxGeometry x="1807.5" y="1089.5" width="310" height="305" as="geometry"/>
        </mxCell>
        <mxCell id="K8U1Sd6g2Q127GAvfA1B-124" value="" style="shape=ellipse;fillColor=#0066CC;strokeColor=none;html=1" parent="1" vertex="1">
          <mxGeometry x="1827.5" y="1159.5" width="20" height="20" as="geometry"/>
        </mxCell>
        <mxCell id="K8U1Sd6g2Q127GAvfA1B-125" value="" style="shape=ellipse;fillColor=#0066CC;strokeColor=none;html=1" parent="1" vertex="1">
          <mxGeometry x="1887.5" y="1099.5" width="20" height="20" as="geometry"/>
        </mxCell>
        <mxCell id="K8U1Sd6g2Q127GAvfA1B-126" value="" style="shape=ellipse;fillColor=#0066CC;strokeColor=none;html=1" parent="1" vertex="1">
          <mxGeometry x="1937.5" y="1159.5" width="20" height="20" as="geometry"/>
        </mxCell>
        <mxCell id="K8U1Sd6g2Q127GAvfA1B-127" value="" style="shape=ellipse;fillColor=#0066CC;strokeColor=none;html=1" parent="1" vertex="1">
          <mxGeometry x="2012.5" y="1099.5" width="20" height="20" as="geometry"/>
        </mxCell>
        <mxCell id="K8U1Sd6g2Q127GAvfA1B-128" value="" style="shape=ellipse;fillColor=#0066CC;strokeColor=none;html=1" parent="1" vertex="1">
          <mxGeometry x="2077.5" y="1159.5" width="20" height="20" as="geometry"/>
        </mxCell>
        <mxCell id="K8U1Sd6g2Q127GAvfA1B-129" value="" style="shape=ellipse;fillColor=#0066CC;strokeColor=none;html=1" parent="1" vertex="1">
          <mxGeometry x="1937.5" y="1259.5" width="20" height="20" as="geometry"/>
        </mxCell>
        <mxCell id="K8U1Sd6g2Q127GAvfA1B-130" value="" style="shape=ellipse;fillColor=#0066CC;strokeColor=none;html=1" parent="1" vertex="1">
          <mxGeometry x="1867.5" y="1309.5" width="20" height="20" as="geometry"/>
        </mxCell>
        <mxCell id="K8U1Sd6g2Q127GAvfA1B-131" value="" style="shape=ellipse;fillColor=#0066CC;strokeColor=none;html=1" parent="1" vertex="1">
          <mxGeometry x="2027.5" y="1299.5" width="20" height="20" as="geometry"/>
        </mxCell>
        <mxCell id="K8U1Sd6g2Q127GAvfA1B-132" value="" style="shape=ellipse;fillColor=#0066CC;strokeColor=none;html=1" parent="1" vertex="1">
          <mxGeometry x="1937.5" y="1359.5" width="20" height="20" as="geometry"/>
        </mxCell>
        <mxCell id="K8U1Sd6g2Q127GAvfA1B-133" value="" style="edgeStyle=orthogonalEdgeStyle;rounded=0;orthogonalLoop=1;jettySize=auto;html=1;strokeWidth=10;entryX=0;entryY=0.5;entryDx=0;entryDy=0;exitX=1;exitY=0.5;exitDx=0;exitDy=0;" parent="1" source="K8U1Sd6g2Q127GAvfA1B-111" target="K8U1Sd6g2Q127GAvfA1B-4" edge="1">
          <mxGeometry relative="1" as="geometry">
            <mxPoint x="1450.2758620689656" y="1251.8965517241377" as="targetPoint"/>
            <mxPoint x="1360" y="1251.8965517241377" as="sourcePoint"/>
          </mxGeometry>
        </mxCell>
        <mxCell id="K8U1Sd6g2Q127GAvfA1B-134" value="" style="rounded=0;whiteSpace=wrap;html=1;labelBackgroundColor=none;fillColor=#f8cecc;fontSize=18;opacity=60;strokeColor=#b85450;" parent="1" vertex="1">
          <mxGeometry x="2195" y="1147" width="30" height="100" as="geometry"/>
        </mxCell>
        <mxCell id="K8U1Sd6g2Q127GAvfA1B-135" value="" style="edgeStyle=orthogonalEdgeStyle;rounded=0;orthogonalLoop=1;jettySize=auto;html=1;strokeWidth=10;exitX=1;exitY=0.5;exitDx=0;exitDy=0;" parent="1" source="K8U1Sd6g2Q127GAvfA1B-1" edge="1">
          <mxGeometry relative="1" as="geometry">
            <mxPoint x="2579" y="1242" as="targetPoint"/>
            <mxPoint x="2542.8333333333335" y="659.6666666666667" as="sourcePoint"/>
            <Array as="points">
              <mxPoint x="2579" y="1242"/>
            </Array>
          </mxGeometry>
        </mxCell>
      </root>
    </mxGraphModel>
  </diagram>
  <diagram id="VJRzjnPyzG-EiUhASpQ9" name="Page-2">
    <mxGraphModel dx="595" dy="713" grid="1" gridSize="10" guides="1" tooltips="1" connect="1" arrows="1" fold="1" page="1" pageScale="1" pageWidth="827" pageHeight="1169" math="0" shadow="0">
      <root>
        <mxCell id="EzjNGXoy3JmWEZeVmx8U-0"/>
        <mxCell id="EzjNGXoy3JmWEZeVmx8U-1" parent="EzjNGXoy3JmWEZeVmx8U-0"/>
        <mxCell id="9AVgp09xEN1EnIahCrB5-0" value="" style="rounded=1;whiteSpace=wrap;html=1;fillColor=#A7BCD1;strokeColor=#6c8ebf;opacity=60;" vertex="1" parent="EzjNGXoy3JmWEZeVmx8U-1">
          <mxGeometry x="2172.5" y="545" width="360" height="210" as="geometry"/>
        </mxCell>
        <mxCell id="9AVgp09xEN1EnIahCrB5-1" style="edgeStyle=orthogonalEdgeStyle;rounded=0;orthogonalLoop=1;jettySize=auto;html=1;exitX=1;exitY=0.5;exitDx=0;exitDy=0;entryX=0;entryY=0.5;entryDx=0;entryDy=0;strokeColor=#000000;strokeWidth=10;fontSize=11;" edge="1" parent="EzjNGXoy3JmWEZeVmx8U-1" source="9AVgp09xEN1EnIahCrB5-39" target="9AVgp09xEN1EnIahCrB5-136">
          <mxGeometry relative="1" as="geometry">
            <mxPoint x="1942.2142857142862" y="650.1428571428573" as="targetPoint"/>
          </mxGeometry>
        </mxCell>
        <mxCell id="9AVgp09xEN1EnIahCrB5-2" value="" style="edgeStyle=orthogonalEdgeStyle;rounded=0;orthogonalLoop=1;jettySize=auto;html=1;strokeWidth=10;entryX=0;entryY=0.5;entryDx=0;entryDy=0;" edge="1" parent="EzjNGXoy3JmWEZeVmx8U-1" source="9AVgp09xEN1EnIahCrB5-3" target="9AVgp09xEN1EnIahCrB5-39">
          <mxGeometry relative="1" as="geometry">
            <mxPoint x="1430" y="650" as="targetPoint"/>
          </mxGeometry>
        </mxCell>
        <mxCell id="9AVgp09xEN1EnIahCrB5-3" value="" style="rounded=1;whiteSpace=wrap;html=1;fillColor=#d5e8d4;strokeColor=#82b366;opacity=60;" vertex="1" parent="EzjNGXoy3JmWEZeVmx8U-1">
          <mxGeometry x="1040" y="497.5" width="310" height="305" as="geometry"/>
        </mxCell>
        <mxCell id="9AVgp09xEN1EnIahCrB5-4" value="" style="shape=ellipse;fillColor=#0066CC;strokeColor=none;html=1" vertex="1" parent="EzjNGXoy3JmWEZeVmx8U-1">
          <mxGeometry x="1060" y="567.5" width="20" height="20" as="geometry"/>
        </mxCell>
        <mxCell id="9AVgp09xEN1EnIahCrB5-5" value="" style="shape=ellipse;fillColor=#0066CC;strokeColor=none;html=1" vertex="1" parent="EzjNGXoy3JmWEZeVmx8U-1">
          <mxGeometry x="1120" y="507.49999999999994" width="20" height="20" as="geometry"/>
        </mxCell>
        <mxCell id="9AVgp09xEN1EnIahCrB5-6" value="" style="shape=ellipse;fillColor=#0066CC;strokeColor=none;html=1" vertex="1" parent="EzjNGXoy3JmWEZeVmx8U-1">
          <mxGeometry x="1170" y="567.5" width="20" height="20" as="geometry"/>
        </mxCell>
        <mxCell id="9AVgp09xEN1EnIahCrB5-7" value="" style="shape=ellipse;fillColor=#0066CC;strokeColor=none;html=1" vertex="1" parent="EzjNGXoy3JmWEZeVmx8U-1">
          <mxGeometry x="1245" y="507.49999999999994" width="20" height="20" as="geometry"/>
        </mxCell>
        <mxCell id="9AVgp09xEN1EnIahCrB5-8" value="" style="shape=ellipse;fillColor=#0066CC;strokeColor=none;html=1" vertex="1" parent="EzjNGXoy3JmWEZeVmx8U-1">
          <mxGeometry x="1310" y="567.5" width="20" height="20" as="geometry"/>
        </mxCell>
        <mxCell id="9AVgp09xEN1EnIahCrB5-9" value="" style="shape=ellipse;fillColor=#0066CC;strokeColor=none;html=1" vertex="1" parent="EzjNGXoy3JmWEZeVmx8U-1">
          <mxGeometry x="1170" y="667.5" width="20" height="20" as="geometry"/>
        </mxCell>
        <mxCell id="9AVgp09xEN1EnIahCrB5-10" value="" style="shape=ellipse;fillColor=#0066CC;strokeColor=none;html=1" vertex="1" parent="EzjNGXoy3JmWEZeVmx8U-1">
          <mxGeometry x="1100" y="717.5" width="20" height="20" as="geometry"/>
        </mxCell>
        <mxCell id="9AVgp09xEN1EnIahCrB5-11" value="" style="shape=ellipse;fillColor=#0066CC;strokeColor=none;html=1" vertex="1" parent="EzjNGXoy3JmWEZeVmx8U-1">
          <mxGeometry x="1260" y="707.5" width="20" height="20" as="geometry"/>
        </mxCell>
        <mxCell id="9AVgp09xEN1EnIahCrB5-12" value="" style="shape=ellipse;fillColor=#0066CC;strokeColor=none;html=1" vertex="1" parent="EzjNGXoy3JmWEZeVmx8U-1">
          <mxGeometry x="1170" y="767.5" width="20" height="20" as="geometry"/>
        </mxCell>
        <mxCell id="9AVgp09xEN1EnIahCrB5-13" value="" style="endArrow=none;html=1;fontSize=56;strokeWidth=2;fillColor=#dae8fc;strokeColor=#6c8ebf;" edge="1" parent="EzjNGXoy3JmWEZeVmx8U-1" source="9AVgp09xEN1EnIahCrB5-5" target="9AVgp09xEN1EnIahCrB5-4">
          <mxGeometry width="50" height="50" relative="1" as="geometry">
            <mxPoint x="1170" y="311.5" as="sourcePoint"/>
            <mxPoint x="1275" y="353.5" as="targetPoint"/>
          </mxGeometry>
        </mxCell>
        <mxCell id="9AVgp09xEN1EnIahCrB5-14" value="" style="endArrow=none;html=1;fontSize=56;strokeWidth=2;fillColor=#dae8fc;strokeColor=#6c8ebf;" edge="1" parent="EzjNGXoy3JmWEZeVmx8U-1" source="9AVgp09xEN1EnIahCrB5-7" target="9AVgp09xEN1EnIahCrB5-5">
          <mxGeometry width="50" height="50" relative="1" as="geometry">
            <mxPoint x="1240" y="547.5" as="sourcePoint"/>
            <mxPoint x="1100" y="587.5" as="targetPoint"/>
          </mxGeometry>
        </mxCell>
        <mxCell id="9AVgp09xEN1EnIahCrB5-15" value="" style="endArrow=none;html=1;fontSize=56;strokeWidth=2;fillColor=#dae8fc;strokeColor=#6c8ebf;" edge="1" parent="EzjNGXoy3JmWEZeVmx8U-1" source="9AVgp09xEN1EnIahCrB5-8" target="9AVgp09xEN1EnIahCrB5-7">
          <mxGeometry width="50" height="50" relative="1" as="geometry">
            <mxPoint x="1150" y="557.5" as="sourcePoint"/>
            <mxPoint x="1110" y="597.5" as="targetPoint"/>
          </mxGeometry>
        </mxCell>
        <mxCell id="9AVgp09xEN1EnIahCrB5-16" value="" style="endArrow=none;html=1;fontSize=56;strokeWidth=2;fillColor=#dae8fc;strokeColor=#6c8ebf;" edge="1" parent="EzjNGXoy3JmWEZeVmx8U-1" source="9AVgp09xEN1EnIahCrB5-6" target="9AVgp09xEN1EnIahCrB5-7">
          <mxGeometry width="50" height="50" relative="1" as="geometry">
            <mxPoint x="1160" y="567.5" as="sourcePoint"/>
            <mxPoint x="1120" y="607.5" as="targetPoint"/>
          </mxGeometry>
        </mxCell>
        <mxCell id="9AVgp09xEN1EnIahCrB5-17" value="" style="endArrow=none;html=1;fontSize=56;strokeWidth=2;fillColor=#dae8fc;strokeColor=#6c8ebf;" edge="1" parent="EzjNGXoy3JmWEZeVmx8U-1" source="9AVgp09xEN1EnIahCrB5-5" target="9AVgp09xEN1EnIahCrB5-6">
          <mxGeometry width="50" height="50" relative="1" as="geometry">
            <mxPoint x="1170" y="577.5" as="sourcePoint"/>
            <mxPoint x="1130" y="617.5" as="targetPoint"/>
          </mxGeometry>
        </mxCell>
        <mxCell id="9AVgp09xEN1EnIahCrB5-18" value="" style="endArrow=none;html=1;fontSize=56;strokeWidth=2;fillColor=#dae8fc;strokeColor=#6c8ebf;" edge="1" parent="EzjNGXoy3JmWEZeVmx8U-1" source="9AVgp09xEN1EnIahCrB5-6" target="9AVgp09xEN1EnIahCrB5-9">
          <mxGeometry width="50" height="50" relative="1" as="geometry">
            <mxPoint x="1180" y="587.5" as="sourcePoint"/>
            <mxPoint x="1140" y="627.5" as="targetPoint"/>
          </mxGeometry>
        </mxCell>
        <mxCell id="9AVgp09xEN1EnIahCrB5-19" value="" style="endArrow=none;html=1;fontSize=56;strokeWidth=2;fillColor=#dae8fc;strokeColor=#6c8ebf;" edge="1" parent="EzjNGXoy3JmWEZeVmx8U-1" source="9AVgp09xEN1EnIahCrB5-11" target="9AVgp09xEN1EnIahCrB5-9">
          <mxGeometry width="50" height="50" relative="1" as="geometry">
            <mxPoint x="1190" y="597.5" as="sourcePoint"/>
            <mxPoint x="1150" y="637.5" as="targetPoint"/>
          </mxGeometry>
        </mxCell>
        <mxCell id="9AVgp09xEN1EnIahCrB5-20" value="" style="endArrow=none;html=1;fontSize=56;strokeWidth=2;fillColor=#dae8fc;strokeColor=#6c8ebf;" edge="1" parent="EzjNGXoy3JmWEZeVmx8U-1" source="9AVgp09xEN1EnIahCrB5-12" target="9AVgp09xEN1EnIahCrB5-11">
          <mxGeometry width="50" height="50" relative="1" as="geometry">
            <mxPoint x="1200" y="607.5" as="sourcePoint"/>
            <mxPoint x="1160" y="647.5" as="targetPoint"/>
          </mxGeometry>
        </mxCell>
        <mxCell id="9AVgp09xEN1EnIahCrB5-21" value="" style="endArrow=none;html=1;fontSize=56;strokeWidth=2;fillColor=#dae8fc;strokeColor=#6c8ebf;" edge="1" parent="EzjNGXoy3JmWEZeVmx8U-1" source="9AVgp09xEN1EnIahCrB5-9" target="9AVgp09xEN1EnIahCrB5-10">
          <mxGeometry width="50" height="50" relative="1" as="geometry">
            <mxPoint x="1210" y="617.5" as="sourcePoint"/>
            <mxPoint x="1170" y="657.5" as="targetPoint"/>
          </mxGeometry>
        </mxCell>
        <mxCell id="9AVgp09xEN1EnIahCrB5-22" value="" style="endArrow=none;html=1;fontSize=56;strokeWidth=2;fillColor=#dae8fc;strokeColor=#6c8ebf;" edge="1" parent="EzjNGXoy3JmWEZeVmx8U-1" source="9AVgp09xEN1EnIahCrB5-4" target="9AVgp09xEN1EnIahCrB5-10">
          <mxGeometry width="50" height="50" relative="1" as="geometry">
            <mxPoint x="1230" y="637.5" as="sourcePoint"/>
            <mxPoint x="1190" y="677.5" as="targetPoint"/>
          </mxGeometry>
        </mxCell>
        <mxCell id="9AVgp09xEN1EnIahCrB5-23" value="" style="endArrow=none;html=1;fontSize=56;strokeWidth=2;fillColor=#dae8fc;strokeColor=#6c8ebf;" edge="1" parent="EzjNGXoy3JmWEZeVmx8U-1" source="9AVgp09xEN1EnIahCrB5-8" target="9AVgp09xEN1EnIahCrB5-11">
          <mxGeometry width="50" height="50" relative="1" as="geometry">
            <mxPoint x="1240" y="647.5" as="sourcePoint"/>
            <mxPoint x="1200" y="687.5" as="targetPoint"/>
          </mxGeometry>
        </mxCell>
        <mxCell id="9AVgp09xEN1EnIahCrB5-24" value="" style="edgeStyle=orthogonalEdgeStyle;rounded=0;orthogonalLoop=1;jettySize=auto;html=1;strokeWidth=10;entryX=0;entryY=0.5;entryDx=0;entryDy=0;exitX=1;exitY=0.5;exitDx=0;exitDy=0;" edge="1" parent="EzjNGXoy3JmWEZeVmx8U-1" source="9AVgp09xEN1EnIahCrB5-136" target="9AVgp09xEN1EnIahCrB5-0">
          <mxGeometry relative="1" as="geometry">
            <mxPoint x="2362.071428571429" y="650.1428571428573" as="targetPoint"/>
            <mxPoint x="2252.5" y="650.1428571428573" as="sourcePoint"/>
          </mxGeometry>
        </mxCell>
        <mxCell id="9AVgp09xEN1EnIahCrB5-25" value="" style="rounded=0;whiteSpace=wrap;html=1;labelBackgroundColor=#FFFFFF;fillColor=#fff2cc;fontSize=77;opacity=60;strokeColor=#d6b656;" vertex="1" parent="EzjNGXoy3JmWEZeVmx8U-1">
          <mxGeometry x="2580" y="607" width="120" height="680" as="geometry"/>
        </mxCell>
        <mxCell id="9AVgp09xEN1EnIahCrB5-26" value="" style="shape=ellipse;fillColor=#0066CC;strokeColor=none;html=1" vertex="1" parent="EzjNGXoy3JmWEZeVmx8U-1">
          <mxGeometry x="2615" y="617" width="20" height="20" as="geometry"/>
        </mxCell>
        <mxCell id="9AVgp09xEN1EnIahCrB5-27" value="" style="shape=ellipse;fillColor=#0066CC;strokeColor=none;html=1" vertex="1" parent="EzjNGXoy3JmWEZeVmx8U-1">
          <mxGeometry x="2615" y="657" width="20" height="20" as="geometry"/>
        </mxCell>
        <mxCell id="9AVgp09xEN1EnIahCrB5-28" value="" style="shape=ellipse;fillColor=#0066CC;strokeColor=none;html=1" vertex="1" parent="EzjNGXoy3JmWEZeVmx8U-1">
          <mxGeometry x="2615" y="697" width="20" height="20" as="geometry"/>
        </mxCell>
        <mxCell id="9AVgp09xEN1EnIahCrB5-29" value="" style="shape=ellipse;html=1;strokeColor=none;fillColor=#0066CC;" vertex="1" parent="EzjNGXoy3JmWEZeVmx8U-1">
          <mxGeometry x="2615" y="737" width="20" height="20" as="geometry"/>
        </mxCell>
        <mxCell id="9AVgp09xEN1EnIahCrB5-30" value="" style="rounded=0;whiteSpace=wrap;html=1;labelBackgroundColor=#FFFFFF;fillColor=none;gradientColor=none;fontSize=77;opacity=60;" vertex="1" parent="EzjNGXoy3JmWEZeVmx8U-1">
          <mxGeometry x="2615" y="617" width="20" height="660" as="geometry"/>
        </mxCell>
        <mxCell id="9AVgp09xEN1EnIahCrB5-31" value="" style="rounded=0;whiteSpace=wrap;html=1;labelBackgroundColor=#FFFFFF;fillColor=#f8cecc;fontSize=77;opacity=60;strokeColor=#b85450;" vertex="1" parent="EzjNGXoy3JmWEZeVmx8U-1">
          <mxGeometry x="2750" y="827.5" width="40" height="239" as="geometry"/>
        </mxCell>
        <mxCell id="9AVgp09xEN1EnIahCrB5-32" value="" style="shape=ellipse;fillColor=#e1d5e7;strokeColor=#9673a6;html=1" vertex="1" parent="EzjNGXoy3JmWEZeVmx8U-1">
          <mxGeometry x="2760" y="877" width="20" height="20" as="geometry"/>
        </mxCell>
        <mxCell id="9AVgp09xEN1EnIahCrB5-33" value="" style="shape=ellipse;fillColor=#f8cecc;strokeColor=#b85450;html=1" vertex="1" parent="EzjNGXoy3JmWEZeVmx8U-1">
          <mxGeometry x="2760" y="917" width="20" height="20" as="geometry"/>
        </mxCell>
        <mxCell id="9AVgp09xEN1EnIahCrB5-34" value="" style="shape=ellipse;fillColor=#fff2cc;strokeColor=#d6b656;html=1" vertex="1" parent="EzjNGXoy3JmWEZeVmx8U-1">
          <mxGeometry x="2760" y="957" width="20" height="20" as="geometry"/>
        </mxCell>
        <mxCell id="9AVgp09xEN1EnIahCrB5-35" value="" style="shape=ellipse;html=1;strokeColor=#82b366;fillColor=#d5e8d4;" vertex="1" parent="EzjNGXoy3JmWEZeVmx8U-1">
          <mxGeometry x="2760" y="837" width="20" height="20" as="geometry"/>
        </mxCell>
        <mxCell id="9AVgp09xEN1EnIahCrB5-36" value="" style="shape=ellipse;html=1;strokeColor=#d79b00;fillColor=#ffe6cc;" vertex="1" parent="EzjNGXoy3JmWEZeVmx8U-1">
          <mxGeometry x="2760" y="997" width="20" height="20" as="geometry"/>
        </mxCell>
        <mxCell id="9AVgp09xEN1EnIahCrB5-37" value="" style="shape=ellipse;html=1;strokeColor=none;fillColor=#FF0000;" vertex="1" parent="EzjNGXoy3JmWEZeVmx8U-1">
          <mxGeometry x="2760" y="1038" width="20" height="20" as="geometry"/>
        </mxCell>
        <mxCell id="9AVgp09xEN1EnIahCrB5-38" value="" style="group;direction=west;" vertex="1" connectable="0" parent="EzjNGXoy3JmWEZeVmx8U-1">
          <mxGeometry x="1422.5" y="545" width="555" height="210" as="geometry"/>
        </mxCell>
        <mxCell id="9AVgp09xEN1EnIahCrB5-39" value="" style="rounded=1;whiteSpace=wrap;html=1;fillColor=#A7BCD1;strokeColor=#6c8ebf;opacity=60;" vertex="1" parent="9AVgp09xEN1EnIahCrB5-38">
          <mxGeometry x="-22.5" width="352.5" height="210" as="geometry"/>
        </mxCell>
        <mxCell id="9AVgp09xEN1EnIahCrB5-40" value="" style="shape=ellipse;fillColor=#0066CC;strokeColor=none;html=1" vertex="1" parent="9AVgp09xEN1EnIahCrB5-38">
          <mxGeometry x="-2.5" y="50" width="20" height="20" as="geometry"/>
        </mxCell>
        <mxCell id="9AVgp09xEN1EnIahCrB5-41" value="" style="shape=ellipse;fillColor=#0066CC;strokeColor=none;html=1" vertex="1" parent="9AVgp09xEN1EnIahCrB5-38">
          <mxGeometry x="37.5" y="50" width="20" height="20" as="geometry"/>
        </mxCell>
        <mxCell id="9AVgp09xEN1EnIahCrB5-42" value="" style="shape=ellipse;fillColor=#0066CC;strokeColor=none;html=1" vertex="1" parent="9AVgp09xEN1EnIahCrB5-38">
          <mxGeometry x="77.5" y="50" width="20" height="20" as="geometry"/>
        </mxCell>
        <mxCell id="9AVgp09xEN1EnIahCrB5-43" value="" style="shape=ellipse;fillColor=#0066CC;strokeColor=none;html=1" vertex="1" parent="9AVgp09xEN1EnIahCrB5-38">
          <mxGeometry x="117.5" y="50" width="20" height="20" as="geometry"/>
        </mxCell>
        <mxCell id="9AVgp09xEN1EnIahCrB5-44" value="" style="shape=ellipse;fillColor=#0066CC;strokeColor=none;html=1" vertex="1" parent="9AVgp09xEN1EnIahCrB5-38">
          <mxGeometry x="157.5" y="50" width="20" height="20" as="geometry"/>
        </mxCell>
        <mxCell id="9AVgp09xEN1EnIahCrB5-45" value="" style="shape=ellipse;fillColor=#0066CC;strokeColor=none;html=1" vertex="1" parent="9AVgp09xEN1EnIahCrB5-38">
          <mxGeometry x="197.5" y="50" width="20" height="20" as="geometry"/>
        </mxCell>
        <mxCell id="9AVgp09xEN1EnIahCrB5-46" value="" style="shape=ellipse;fillColor=#0066CC;strokeColor=none;html=1" vertex="1" parent="9AVgp09xEN1EnIahCrB5-38">
          <mxGeometry x="-2.5" y="90" width="20" height="20" as="geometry"/>
        </mxCell>
        <mxCell id="9AVgp09xEN1EnIahCrB5-47" value="" style="shape=ellipse;fillColor=#0066CC;strokeColor=none;html=1" vertex="1" parent="9AVgp09xEN1EnIahCrB5-38">
          <mxGeometry x="37.5" y="90" width="20" height="20" as="geometry"/>
        </mxCell>
        <mxCell id="9AVgp09xEN1EnIahCrB5-48" value="" style="shape=ellipse;fillColor=#0066CC;strokeColor=none;html=1" vertex="1" parent="9AVgp09xEN1EnIahCrB5-38">
          <mxGeometry x="77.5" y="90" width="20" height="20" as="geometry"/>
        </mxCell>
        <mxCell id="9AVgp09xEN1EnIahCrB5-49" value="" style="shape=ellipse;fillColor=#0066CC;strokeColor=none;html=1" vertex="1" parent="9AVgp09xEN1EnIahCrB5-38">
          <mxGeometry x="117.5" y="90" width="20" height="20" as="geometry"/>
        </mxCell>
        <mxCell id="9AVgp09xEN1EnIahCrB5-50" value="" style="shape=ellipse;fillColor=#0066CC;strokeColor=none;html=1" vertex="1" parent="9AVgp09xEN1EnIahCrB5-38">
          <mxGeometry x="157.5" y="90" width="20" height="20" as="geometry"/>
        </mxCell>
        <mxCell id="9AVgp09xEN1EnIahCrB5-51" value="" style="shape=ellipse;fillColor=#0066CC;strokeColor=none;html=1" vertex="1" parent="9AVgp09xEN1EnIahCrB5-38">
          <mxGeometry x="197.5" y="90" width="20" height="20" as="geometry"/>
        </mxCell>
        <mxCell id="9AVgp09xEN1EnIahCrB5-52" value="" style="shape=ellipse;fillColor=#0066CC;strokeColor=none;html=1" vertex="1" parent="9AVgp09xEN1EnIahCrB5-38">
          <mxGeometry x="-2.5" y="130" width="20" height="20" as="geometry"/>
        </mxCell>
        <mxCell id="9AVgp09xEN1EnIahCrB5-53" value="" style="shape=ellipse;fillColor=#0066CC;strokeColor=none;html=1" vertex="1" parent="9AVgp09xEN1EnIahCrB5-38">
          <mxGeometry x="37.5" y="130" width="20" height="20" as="geometry"/>
        </mxCell>
        <mxCell id="9AVgp09xEN1EnIahCrB5-54" value="" style="shape=ellipse;fillColor=#0066CC;strokeColor=none;html=1" vertex="1" parent="9AVgp09xEN1EnIahCrB5-38">
          <mxGeometry x="77.5" y="130" width="20" height="20" as="geometry"/>
        </mxCell>
        <mxCell id="9AVgp09xEN1EnIahCrB5-55" value="" style="shape=ellipse;fillColor=#0066CC;strokeColor=none;html=1" vertex="1" parent="9AVgp09xEN1EnIahCrB5-38">
          <mxGeometry x="117.5" y="130" width="20" height="20" as="geometry"/>
        </mxCell>
        <mxCell id="9AVgp09xEN1EnIahCrB5-56" value="" style="shape=ellipse;fillColor=#0066CC;strokeColor=none;html=1" vertex="1" parent="9AVgp09xEN1EnIahCrB5-38">
          <mxGeometry x="157.5" y="130" width="20" height="20" as="geometry"/>
        </mxCell>
        <mxCell id="9AVgp09xEN1EnIahCrB5-57" value="" style="shape=ellipse;fillColor=#0066CC;strokeColor=none;html=1" vertex="1" parent="9AVgp09xEN1EnIahCrB5-38">
          <mxGeometry x="197.5" y="130" width="20" height="20" as="geometry"/>
        </mxCell>
        <mxCell id="9AVgp09xEN1EnIahCrB5-58" value="" style="shape=ellipse;fillColor=#0066CC;strokeColor=none;html=1" vertex="1" parent="9AVgp09xEN1EnIahCrB5-38">
          <mxGeometry x="237.5" y="50" width="20" height="20" as="geometry"/>
        </mxCell>
        <mxCell id="9AVgp09xEN1EnIahCrB5-59" value="" style="shape=ellipse;fillColor=#0066CC;strokeColor=none;html=1" vertex="1" parent="9AVgp09xEN1EnIahCrB5-38">
          <mxGeometry x="237.5" y="90" width="20" height="20" as="geometry"/>
        </mxCell>
        <mxCell id="9AVgp09xEN1EnIahCrB5-60" value="" style="shape=ellipse;fillColor=#0066CC;strokeColor=none;html=1" vertex="1" parent="9AVgp09xEN1EnIahCrB5-38">
          <mxGeometry x="237.5" y="130" width="20" height="20" as="geometry"/>
        </mxCell>
        <mxCell id="9AVgp09xEN1EnIahCrB5-61" value="" style="endArrow=classic;html=1;strokeWidth=3;fillColor=#d5e8d4;strokeColor=#00CC00;fontSize=24;" edge="1" parent="9AVgp09xEN1EnIahCrB5-38">
          <mxGeometry width="50" height="50" relative="1" as="geometry">
            <mxPoint x="287.5" y="38" as="sourcePoint"/>
            <mxPoint x="287.5" y="170" as="targetPoint"/>
          </mxGeometry>
        </mxCell>
        <mxCell id="9AVgp09xEN1EnIahCrB5-62" value="temporal" style="text;html=1;align=center;verticalAlign=middle;resizable=0;points=[];;horizontal=0;rotation=-180;fontSize=24;rounded=1;strokeColor=#6c8ebf;fillColor=#A7BCD1;opacity=60;labelBackgroundColor=#67AB9F;labelBorderColor=none;" vertex="1" connectable="0" parent="9AVgp09xEN1EnIahCrB5-61">
          <mxGeometry x="-0.3775" y="1" relative="1" as="geometry">
            <mxPoint y="15.52" as="offset"/>
          </mxGeometry>
        </mxCell>
        <mxCell id="9AVgp09xEN1EnIahCrB5-63" value="" style="shape=ellipse;html=1" vertex="1" parent="9AVgp09xEN1EnIahCrB5-38">
          <mxGeometry x="-2.5" y="10" width="20" height="20" as="geometry"/>
        </mxCell>
        <mxCell id="9AVgp09xEN1EnIahCrB5-64" value="" style="shape=ellipse;html=1" vertex="1" parent="9AVgp09xEN1EnIahCrB5-38">
          <mxGeometry x="37.5" y="10" width="20" height="20" as="geometry"/>
        </mxCell>
        <mxCell id="9AVgp09xEN1EnIahCrB5-65" value="" style="shape=ellipse;html=1" vertex="1" parent="9AVgp09xEN1EnIahCrB5-38">
          <mxGeometry x="77.5" y="10" width="20" height="20" as="geometry"/>
        </mxCell>
        <mxCell id="9AVgp09xEN1EnIahCrB5-66" value="" style="shape=ellipse;html=1" vertex="1" parent="9AVgp09xEN1EnIahCrB5-38">
          <mxGeometry x="117.5" y="10" width="20" height="20" as="geometry"/>
        </mxCell>
        <mxCell id="9AVgp09xEN1EnIahCrB5-67" value="" style="shape=ellipse;html=1" vertex="1" parent="9AVgp09xEN1EnIahCrB5-38">
          <mxGeometry x="157.5" y="10" width="20" height="20" as="geometry"/>
        </mxCell>
        <mxCell id="9AVgp09xEN1EnIahCrB5-68" value="" style="shape=ellipse;html=1" vertex="1" parent="9AVgp09xEN1EnIahCrB5-38">
          <mxGeometry x="197.5" y="10" width="20" height="20" as="geometry"/>
        </mxCell>
        <mxCell id="9AVgp09xEN1EnIahCrB5-69" value="" style="shape=ellipse;html=1" vertex="1" parent="9AVgp09xEN1EnIahCrB5-38">
          <mxGeometry x="237.5" y="10" width="20" height="20" as="geometry"/>
        </mxCell>
        <mxCell id="9AVgp09xEN1EnIahCrB5-70" value="" style="shape=ellipse;html=1" vertex="1" parent="9AVgp09xEN1EnIahCrB5-38">
          <mxGeometry x="-2.5" y="170" width="20" height="20" as="geometry"/>
        </mxCell>
        <mxCell id="9AVgp09xEN1EnIahCrB5-71" value="" style="shape=ellipse;html=1" vertex="1" parent="9AVgp09xEN1EnIahCrB5-38">
          <mxGeometry x="37.5" y="170" width="20" height="20" as="geometry"/>
        </mxCell>
        <mxCell id="9AVgp09xEN1EnIahCrB5-72" value="" style="shape=ellipse;html=1" vertex="1" parent="9AVgp09xEN1EnIahCrB5-38">
          <mxGeometry x="77.5" y="170" width="20" height="20" as="geometry"/>
        </mxCell>
        <mxCell id="9AVgp09xEN1EnIahCrB5-73" value="" style="shape=ellipse;html=1" vertex="1" parent="9AVgp09xEN1EnIahCrB5-38">
          <mxGeometry x="117.5" y="170" width="20" height="20" as="geometry"/>
        </mxCell>
        <mxCell id="9AVgp09xEN1EnIahCrB5-74" value="" style="shape=ellipse;html=1" vertex="1" parent="9AVgp09xEN1EnIahCrB5-38">
          <mxGeometry x="157.5" y="170" width="20" height="20" as="geometry"/>
        </mxCell>
        <mxCell id="9AVgp09xEN1EnIahCrB5-75" value="" style="shape=ellipse;html=1" vertex="1" parent="9AVgp09xEN1EnIahCrB5-38">
          <mxGeometry x="197.5" y="170" width="20" height="20" as="geometry"/>
        </mxCell>
        <mxCell id="9AVgp09xEN1EnIahCrB5-76" value="" style="shape=ellipse;html=1" vertex="1" parent="9AVgp09xEN1EnIahCrB5-38">
          <mxGeometry x="237.5" y="170" width="20" height="20" as="geometry"/>
        </mxCell>
        <mxCell id="9AVgp09xEN1EnIahCrB5-77" value="" style="rounded=0;whiteSpace=wrap;html=1;labelBackgroundColor=none;fillColor=#f8cecc;fontSize=18;opacity=60;strokeColor=#b85450;" vertex="1" parent="9AVgp09xEN1EnIahCrB5-38">
          <mxGeometry x="72.5" y="50" width="30" height="100" as="geometry"/>
        </mxCell>
        <mxCell id="9AVgp09xEN1EnIahCrB5-78" value="" style="rounded=0;whiteSpace=wrap;html=1;labelBackgroundColor=none;fillColor=#f8cecc;fontSize=18;opacity=60;strokeColor=#b85450;" vertex="1" parent="9AVgp09xEN1EnIahCrB5-38">
          <mxGeometry x="192.5" y="90" width="30" height="100" as="geometry"/>
        </mxCell>
        <mxCell id="9AVgp09xEN1EnIahCrB5-79" value="Pad" style="text;html=1;strokeColor=none;fillColor=none;align=center;verticalAlign=middle;whiteSpace=wrap;rounded=0;labelBackgroundColor=none;fontSize=24;opacity=60;" vertex="1" parent="9AVgp09xEN1EnIahCrB5-38">
          <mxGeometry x="267.5" y="10" width="40" height="20" as="geometry"/>
        </mxCell>
        <mxCell id="9AVgp09xEN1EnIahCrB5-80" value="Pad" style="text;html=1;strokeColor=none;fillColor=none;align=center;verticalAlign=middle;whiteSpace=wrap;rounded=0;labelBackgroundColor=none;fontSize=24;opacity=60;" vertex="1" parent="9AVgp09xEN1EnIahCrB5-38">
          <mxGeometry x="267.5" y="170" width="40" height="20" as="geometry"/>
        </mxCell>
        <mxCell id="9AVgp09xEN1EnIahCrB5-81" value="" style="rounded=0;whiteSpace=wrap;html=1;labelBackgroundColor=none;fillColor=#f8cecc;fontSize=18;opacity=60;strokeColor=#b85450;" vertex="1" parent="9AVgp09xEN1EnIahCrB5-38">
          <mxGeometry x="-7.5" y="10" width="30" height="100" as="geometry"/>
        </mxCell>
        <mxCell id="9AVgp09xEN1EnIahCrB5-82" value="" style="endArrow=classic;html=1;strokeWidth=3;fillColor=#d5e8d4;strokeColor=#00CC00;fontSize=24;" edge="1" parent="EzjNGXoy3JmWEZeVmx8U-1">
          <mxGeometry width="50" height="50" relative="1" as="geometry">
            <mxPoint x="2492.5" y="583" as="sourcePoint"/>
            <mxPoint x="2492.5" y="715" as="targetPoint"/>
          </mxGeometry>
        </mxCell>
        <mxCell id="9AVgp09xEN1EnIahCrB5-83" value="temporal" style="text;html=1;align=center;verticalAlign=middle;resizable=0;points=[];;horizontal=0;rotation=-180;fontSize=24;rounded=1;strokeColor=#6c8ebf;fillColor=#A7BCD1;opacity=60;labelBackgroundColor=#67AB9F;labelBorderColor=none;" vertex="1" connectable="0" parent="9AVgp09xEN1EnIahCrB5-82">
          <mxGeometry x="-0.3775" y="1" relative="1" as="geometry">
            <mxPoint y="15.52" as="offset"/>
          </mxGeometry>
        </mxCell>
        <mxCell id="9AVgp09xEN1EnIahCrB5-84" value="" style="shape=ellipse;fillColor=#0066CC;strokeColor=none;html=1" vertex="1" parent="EzjNGXoy3JmWEZeVmx8U-1">
          <mxGeometry x="2200" y="595" width="20" height="20" as="geometry"/>
        </mxCell>
        <mxCell id="9AVgp09xEN1EnIahCrB5-85" value="" style="shape=ellipse;fillColor=#0066CC;strokeColor=none;html=1" vertex="1" parent="EzjNGXoy3JmWEZeVmx8U-1">
          <mxGeometry x="2240" y="595" width="20" height="20" as="geometry"/>
        </mxCell>
        <mxCell id="9AVgp09xEN1EnIahCrB5-86" value="" style="shape=ellipse;fillColor=#0066CC;strokeColor=none;html=1" vertex="1" parent="EzjNGXoy3JmWEZeVmx8U-1">
          <mxGeometry x="2280" y="595" width="20" height="20" as="geometry"/>
        </mxCell>
        <mxCell id="9AVgp09xEN1EnIahCrB5-87" value="" style="shape=ellipse;fillColor=#0066CC;strokeColor=none;html=1" vertex="1" parent="EzjNGXoy3JmWEZeVmx8U-1">
          <mxGeometry x="2320" y="595" width="20" height="20" as="geometry"/>
        </mxCell>
        <mxCell id="9AVgp09xEN1EnIahCrB5-88" value="" style="shape=ellipse;fillColor=#0066CC;strokeColor=none;html=1" vertex="1" parent="EzjNGXoy3JmWEZeVmx8U-1">
          <mxGeometry x="2360" y="595" width="20" height="20" as="geometry"/>
        </mxCell>
        <mxCell id="9AVgp09xEN1EnIahCrB5-89" value="" style="shape=ellipse;fillColor=#0066CC;strokeColor=none;html=1" vertex="1" parent="EzjNGXoy3JmWEZeVmx8U-1">
          <mxGeometry x="2400" y="595" width="20" height="20" as="geometry"/>
        </mxCell>
        <mxCell id="9AVgp09xEN1EnIahCrB5-90" value="" style="shape=ellipse;fillColor=#0066CC;strokeColor=none;html=1" vertex="1" parent="EzjNGXoy3JmWEZeVmx8U-1">
          <mxGeometry x="2200" y="635" width="20" height="20" as="geometry"/>
        </mxCell>
        <mxCell id="9AVgp09xEN1EnIahCrB5-91" value="" style="shape=ellipse;fillColor=#0066CC;strokeColor=none;html=1" vertex="1" parent="EzjNGXoy3JmWEZeVmx8U-1">
          <mxGeometry x="2240" y="635" width="20" height="20" as="geometry"/>
        </mxCell>
        <mxCell id="9AVgp09xEN1EnIahCrB5-92" value="" style="shape=ellipse;fillColor=#0066CC;strokeColor=none;html=1" vertex="1" parent="EzjNGXoy3JmWEZeVmx8U-1">
          <mxGeometry x="2280" y="635" width="20" height="20" as="geometry"/>
        </mxCell>
        <mxCell id="9AVgp09xEN1EnIahCrB5-93" value="" style="shape=ellipse;fillColor=#0066CC;strokeColor=none;html=1" vertex="1" parent="EzjNGXoy3JmWEZeVmx8U-1">
          <mxGeometry x="2320" y="635" width="20" height="20" as="geometry"/>
        </mxCell>
        <mxCell id="9AVgp09xEN1EnIahCrB5-94" value="" style="shape=ellipse;fillColor=#0066CC;strokeColor=none;html=1" vertex="1" parent="EzjNGXoy3JmWEZeVmx8U-1">
          <mxGeometry x="2360" y="635" width="20" height="20" as="geometry"/>
        </mxCell>
        <mxCell id="9AVgp09xEN1EnIahCrB5-95" value="" style="shape=ellipse;fillColor=#0066CC;strokeColor=none;html=1" vertex="1" parent="EzjNGXoy3JmWEZeVmx8U-1">
          <mxGeometry x="2400" y="635" width="20" height="20" as="geometry"/>
        </mxCell>
        <mxCell id="9AVgp09xEN1EnIahCrB5-96" value="" style="shape=ellipse;fillColor=#0066CC;strokeColor=none;html=1" vertex="1" parent="EzjNGXoy3JmWEZeVmx8U-1">
          <mxGeometry x="2200" y="675" width="20" height="20" as="geometry"/>
        </mxCell>
        <mxCell id="9AVgp09xEN1EnIahCrB5-97" value="" style="shape=ellipse;fillColor=#0066CC;strokeColor=none;html=1" vertex="1" parent="EzjNGXoy3JmWEZeVmx8U-1">
          <mxGeometry x="2240" y="675" width="20" height="20" as="geometry"/>
        </mxCell>
        <mxCell id="9AVgp09xEN1EnIahCrB5-98" value="" style="shape=ellipse;fillColor=#0066CC;strokeColor=none;html=1" vertex="1" parent="EzjNGXoy3JmWEZeVmx8U-1">
          <mxGeometry x="2280" y="675" width="20" height="20" as="geometry"/>
        </mxCell>
        <mxCell id="9AVgp09xEN1EnIahCrB5-99" value="" style="shape=ellipse;fillColor=#0066CC;strokeColor=none;html=1" vertex="1" parent="EzjNGXoy3JmWEZeVmx8U-1">
          <mxGeometry x="2320" y="675" width="20" height="20" as="geometry"/>
        </mxCell>
        <mxCell id="9AVgp09xEN1EnIahCrB5-100" value="" style="shape=ellipse;fillColor=#0066CC;strokeColor=none;html=1" vertex="1" parent="EzjNGXoy3JmWEZeVmx8U-1">
          <mxGeometry x="2360" y="675" width="20" height="20" as="geometry"/>
        </mxCell>
        <mxCell id="9AVgp09xEN1EnIahCrB5-101" value="" style="shape=ellipse;fillColor=#0066CC;strokeColor=none;html=1" vertex="1" parent="EzjNGXoy3JmWEZeVmx8U-1">
          <mxGeometry x="2400" y="675" width="20" height="20" as="geometry"/>
        </mxCell>
        <mxCell id="9AVgp09xEN1EnIahCrB5-102" value="" style="shape=ellipse;fillColor=#0066CC;strokeColor=none;html=1" vertex="1" parent="EzjNGXoy3JmWEZeVmx8U-1">
          <mxGeometry x="2440" y="595" width="20" height="20" as="geometry"/>
        </mxCell>
        <mxCell id="9AVgp09xEN1EnIahCrB5-103" value="" style="shape=ellipse;fillColor=#0066CC;strokeColor=none;html=1" vertex="1" parent="EzjNGXoy3JmWEZeVmx8U-1">
          <mxGeometry x="2440" y="635" width="20" height="20" as="geometry"/>
        </mxCell>
        <mxCell id="9AVgp09xEN1EnIahCrB5-104" value="" style="shape=ellipse;fillColor=#0066CC;strokeColor=none;html=1" vertex="1" parent="EzjNGXoy3JmWEZeVmx8U-1">
          <mxGeometry x="2440" y="675" width="20" height="20" as="geometry"/>
        </mxCell>
        <mxCell id="9AVgp09xEN1EnIahCrB5-105" value="" style="shape=ellipse;html=1" vertex="1" parent="EzjNGXoy3JmWEZeVmx8U-1">
          <mxGeometry x="2200" y="555" width="20" height="20" as="geometry"/>
        </mxCell>
        <mxCell id="9AVgp09xEN1EnIahCrB5-106" value="" style="shape=ellipse;html=1" vertex="1" parent="EzjNGXoy3JmWEZeVmx8U-1">
          <mxGeometry x="2240" y="555" width="20" height="20" as="geometry"/>
        </mxCell>
        <mxCell id="9AVgp09xEN1EnIahCrB5-107" value="" style="shape=ellipse;html=1" vertex="1" parent="EzjNGXoy3JmWEZeVmx8U-1">
          <mxGeometry x="2280" y="555" width="20" height="20" as="geometry"/>
        </mxCell>
        <mxCell id="9AVgp09xEN1EnIahCrB5-108" value="" style="shape=ellipse;html=1" vertex="1" parent="EzjNGXoy3JmWEZeVmx8U-1">
          <mxGeometry x="2320" y="555" width="20" height="20" as="geometry"/>
        </mxCell>
        <mxCell id="9AVgp09xEN1EnIahCrB5-109" value="" style="shape=ellipse;html=1" vertex="1" parent="EzjNGXoy3JmWEZeVmx8U-1">
          <mxGeometry x="2360" y="555" width="20" height="20" as="geometry"/>
        </mxCell>
        <mxCell id="9AVgp09xEN1EnIahCrB5-110" value="" style="shape=ellipse;html=1" vertex="1" parent="EzjNGXoy3JmWEZeVmx8U-1">
          <mxGeometry x="2400" y="555" width="20" height="20" as="geometry"/>
        </mxCell>
        <mxCell id="9AVgp09xEN1EnIahCrB5-111" value="" style="shape=ellipse;html=1" vertex="1" parent="EzjNGXoy3JmWEZeVmx8U-1">
          <mxGeometry x="2440" y="555" width="20" height="20" as="geometry"/>
        </mxCell>
        <mxCell id="9AVgp09xEN1EnIahCrB5-112" value="" style="shape=ellipse;html=1" vertex="1" parent="EzjNGXoy3JmWEZeVmx8U-1">
          <mxGeometry x="2200" y="715" width="20" height="20" as="geometry"/>
        </mxCell>
        <mxCell id="9AVgp09xEN1EnIahCrB5-113" value="" style="shape=ellipse;html=1" vertex="1" parent="EzjNGXoy3JmWEZeVmx8U-1">
          <mxGeometry x="2240" y="715" width="20" height="20" as="geometry"/>
        </mxCell>
        <mxCell id="9AVgp09xEN1EnIahCrB5-114" value="" style="shape=ellipse;html=1" vertex="1" parent="EzjNGXoy3JmWEZeVmx8U-1">
          <mxGeometry x="2280" y="715" width="20" height="20" as="geometry"/>
        </mxCell>
        <mxCell id="9AVgp09xEN1EnIahCrB5-115" value="" style="shape=ellipse;html=1" vertex="1" parent="EzjNGXoy3JmWEZeVmx8U-1">
          <mxGeometry x="2320" y="715" width="20" height="20" as="geometry"/>
        </mxCell>
        <mxCell id="9AVgp09xEN1EnIahCrB5-116" value="" style="shape=ellipse;html=1" vertex="1" parent="EzjNGXoy3JmWEZeVmx8U-1">
          <mxGeometry x="2360" y="715" width="20" height="20" as="geometry"/>
        </mxCell>
        <mxCell id="9AVgp09xEN1EnIahCrB5-117" value="" style="shape=ellipse;html=1" vertex="1" parent="EzjNGXoy3JmWEZeVmx8U-1">
          <mxGeometry x="2400" y="715" width="20" height="20" as="geometry"/>
        </mxCell>
        <mxCell id="9AVgp09xEN1EnIahCrB5-118" value="" style="shape=ellipse;html=1" vertex="1" parent="EzjNGXoy3JmWEZeVmx8U-1">
          <mxGeometry x="2440" y="715" width="20" height="20" as="geometry"/>
        </mxCell>
        <mxCell id="9AVgp09xEN1EnIahCrB5-119" value="" style="rounded=0;whiteSpace=wrap;html=1;labelBackgroundColor=none;fillColor=#f8cecc;fontSize=18;opacity=60;strokeColor=#b85450;" vertex="1" parent="EzjNGXoy3JmWEZeVmx8U-1">
          <mxGeometry x="2275" y="595" width="30" height="100" as="geometry"/>
        </mxCell>
        <mxCell id="9AVgp09xEN1EnIahCrB5-120" value="" style="rounded=0;whiteSpace=wrap;html=1;labelBackgroundColor=none;fillColor=#f8cecc;fontSize=18;opacity=60;strokeColor=#b85450;" vertex="1" parent="EzjNGXoy3JmWEZeVmx8U-1">
          <mxGeometry x="2395" y="635" width="30" height="100" as="geometry"/>
        </mxCell>
        <mxCell id="9AVgp09xEN1EnIahCrB5-121" value="Pad" style="text;html=1;strokeColor=none;fillColor=none;align=center;verticalAlign=middle;whiteSpace=wrap;rounded=0;labelBackgroundColor=none;fontSize=24;opacity=60;" vertex="1" parent="EzjNGXoy3JmWEZeVmx8U-1">
          <mxGeometry x="2472.5" y="555" width="40" height="20" as="geometry"/>
        </mxCell>
        <mxCell id="9AVgp09xEN1EnIahCrB5-122" value="Pad" style="text;html=1;strokeColor=none;fillColor=none;align=center;verticalAlign=middle;whiteSpace=wrap;rounded=0;labelBackgroundColor=none;fontSize=24;opacity=60;" vertex="1" parent="EzjNGXoy3JmWEZeVmx8U-1">
          <mxGeometry x="2472.5" y="715" width="40" height="20" as="geometry"/>
        </mxCell>
        <mxCell id="9AVgp09xEN1EnIahCrB5-123" value="M&lt;sup style=&quot;font-size: 40px;&quot;&gt;a&lt;/sup&gt;" style="rounded=0;whiteSpace=wrap;html=1;fontSize=40;fillColor=#f8cecc;strokeColor=#b85450;fontStyle=1" vertex="1" parent="EzjNGXoy3JmWEZeVmx8U-1">
          <mxGeometry x="850" y="600" width="120" height="100" as="geometry"/>
        </mxCell>
        <mxCell id="9AVgp09xEN1EnIahCrB5-124" value="" style="rounded=0;whiteSpace=wrap;html=1;fontSize=25;dashed=1;strokeWidth=4;" vertex="1" parent="EzjNGXoy3JmWEZeVmx8U-1">
          <mxGeometry x="1410" y="787.5" width="340" height="320" as="geometry"/>
        </mxCell>
        <mxCell id="9AVgp09xEN1EnIahCrB5-125" value="" style="endArrow=none;html=1;fontSize=56;strokeWidth=2;fillColor=#dae8fc;strokeColor=#6c8ebf;" edge="1" parent="EzjNGXoy3JmWEZeVmx8U-1" source="9AVgp09xEN1EnIahCrB5-138" target="9AVgp09xEN1EnIahCrB5-137">
          <mxGeometry width="50" height="50" relative="1" as="geometry">
            <mxPoint x="1937.5" y="311.5" as="sourcePoint"/>
            <mxPoint x="2042.5" y="353.5" as="targetPoint"/>
          </mxGeometry>
        </mxCell>
        <mxCell id="9AVgp09xEN1EnIahCrB5-126" value="" style="endArrow=none;html=1;fontSize=56;strokeWidth=2;fillColor=#dae8fc;strokeColor=#6c8ebf;" edge="1" parent="EzjNGXoy3JmWEZeVmx8U-1" source="9AVgp09xEN1EnIahCrB5-140" target="9AVgp09xEN1EnIahCrB5-138">
          <mxGeometry width="50" height="50" relative="1" as="geometry">
            <mxPoint x="2007.5" y="547.5" as="sourcePoint"/>
            <mxPoint x="1867.5" y="587.5" as="targetPoint"/>
          </mxGeometry>
        </mxCell>
        <mxCell id="9AVgp09xEN1EnIahCrB5-127" value="" style="endArrow=none;html=1;fontSize=56;strokeWidth=2;fillColor=#dae8fc;strokeColor=#6c8ebf;" edge="1" parent="EzjNGXoy3JmWEZeVmx8U-1" source="9AVgp09xEN1EnIahCrB5-141" target="9AVgp09xEN1EnIahCrB5-140">
          <mxGeometry width="50" height="50" relative="1" as="geometry">
            <mxPoint x="1917.5" y="557.5" as="sourcePoint"/>
            <mxPoint x="1877.5" y="597.5" as="targetPoint"/>
          </mxGeometry>
        </mxCell>
        <mxCell id="9AVgp09xEN1EnIahCrB5-128" value="" style="endArrow=none;html=1;fontSize=56;strokeWidth=2;fillColor=#dae8fc;strokeColor=#6c8ebf;" edge="1" parent="EzjNGXoy3JmWEZeVmx8U-1" source="9AVgp09xEN1EnIahCrB5-139" target="9AVgp09xEN1EnIahCrB5-140">
          <mxGeometry width="50" height="50" relative="1" as="geometry">
            <mxPoint x="1927.5" y="567.5" as="sourcePoint"/>
            <mxPoint x="1887.5" y="607.5" as="targetPoint"/>
          </mxGeometry>
        </mxCell>
        <mxCell id="9AVgp09xEN1EnIahCrB5-129" value="" style="endArrow=none;html=1;fontSize=56;strokeWidth=2;fillColor=#dae8fc;strokeColor=#6c8ebf;" edge="1" parent="EzjNGXoy3JmWEZeVmx8U-1" source="9AVgp09xEN1EnIahCrB5-138" target="9AVgp09xEN1EnIahCrB5-139">
          <mxGeometry width="50" height="50" relative="1" as="geometry">
            <mxPoint x="1937.5" y="577.5" as="sourcePoint"/>
            <mxPoint x="1897.5" y="617.5" as="targetPoint"/>
          </mxGeometry>
        </mxCell>
        <mxCell id="9AVgp09xEN1EnIahCrB5-130" value="" style="endArrow=none;html=1;fontSize=56;strokeWidth=2;fillColor=#dae8fc;strokeColor=#6c8ebf;" edge="1" parent="EzjNGXoy3JmWEZeVmx8U-1" source="9AVgp09xEN1EnIahCrB5-139" target="9AVgp09xEN1EnIahCrB5-142">
          <mxGeometry width="50" height="50" relative="1" as="geometry">
            <mxPoint x="1947.5" y="587.5" as="sourcePoint"/>
            <mxPoint x="1907.5" y="627.5" as="targetPoint"/>
          </mxGeometry>
        </mxCell>
        <mxCell id="9AVgp09xEN1EnIahCrB5-131" value="" style="endArrow=none;html=1;fontSize=56;strokeWidth=2;fillColor=#dae8fc;strokeColor=#6c8ebf;" edge="1" parent="EzjNGXoy3JmWEZeVmx8U-1" source="9AVgp09xEN1EnIahCrB5-144" target="9AVgp09xEN1EnIahCrB5-142">
          <mxGeometry width="50" height="50" relative="1" as="geometry">
            <mxPoint x="1957.5" y="597.5" as="sourcePoint"/>
            <mxPoint x="1917.5" y="637.5" as="targetPoint"/>
          </mxGeometry>
        </mxCell>
        <mxCell id="9AVgp09xEN1EnIahCrB5-132" value="" style="endArrow=none;html=1;fontSize=56;strokeWidth=2;fillColor=#dae8fc;strokeColor=#6c8ebf;" edge="1" parent="EzjNGXoy3JmWEZeVmx8U-1" source="9AVgp09xEN1EnIahCrB5-145" target="9AVgp09xEN1EnIahCrB5-144">
          <mxGeometry width="50" height="50" relative="1" as="geometry">
            <mxPoint x="1967.5" y="607.5" as="sourcePoint"/>
            <mxPoint x="1927.5" y="647.5" as="targetPoint"/>
          </mxGeometry>
        </mxCell>
        <mxCell id="9AVgp09xEN1EnIahCrB5-133" value="" style="endArrow=none;html=1;fontSize=56;strokeWidth=2;fillColor=#dae8fc;strokeColor=#6c8ebf;" edge="1" parent="EzjNGXoy3JmWEZeVmx8U-1" source="9AVgp09xEN1EnIahCrB5-142" target="9AVgp09xEN1EnIahCrB5-143">
          <mxGeometry width="50" height="50" relative="1" as="geometry">
            <mxPoint x="1977.5" y="617.5" as="sourcePoint"/>
            <mxPoint x="1937.5" y="657.5" as="targetPoint"/>
          </mxGeometry>
        </mxCell>
        <mxCell id="9AVgp09xEN1EnIahCrB5-134" value="" style="endArrow=none;html=1;fontSize=56;strokeWidth=2;fillColor=#dae8fc;strokeColor=#6c8ebf;" edge="1" parent="EzjNGXoy3JmWEZeVmx8U-1" source="9AVgp09xEN1EnIahCrB5-137" target="9AVgp09xEN1EnIahCrB5-143">
          <mxGeometry width="50" height="50" relative="1" as="geometry">
            <mxPoint x="1997.5" y="637.5" as="sourcePoint"/>
            <mxPoint x="1957.5" y="677.5" as="targetPoint"/>
          </mxGeometry>
        </mxCell>
        <mxCell id="9AVgp09xEN1EnIahCrB5-135" value="" style="endArrow=none;html=1;fontSize=56;strokeWidth=2;fillColor=#dae8fc;strokeColor=#6c8ebf;" edge="1" parent="EzjNGXoy3JmWEZeVmx8U-1" source="9AVgp09xEN1EnIahCrB5-141" target="9AVgp09xEN1EnIahCrB5-144">
          <mxGeometry width="50" height="50" relative="1" as="geometry">
            <mxPoint x="2007.5" y="647.5" as="sourcePoint"/>
            <mxPoint x="1967.5" y="687.5" as="targetPoint"/>
          </mxGeometry>
        </mxCell>
        <mxCell id="9AVgp09xEN1EnIahCrB5-136" value="" style="rounded=1;whiteSpace=wrap;html=1;fillColor=#d5e8d4;strokeColor=#82b366;opacity=60;" vertex="1" parent="EzjNGXoy3JmWEZeVmx8U-1">
          <mxGeometry x="1807.5" y="497.5" width="310" height="305" as="geometry"/>
        </mxCell>
        <mxCell id="9AVgp09xEN1EnIahCrB5-137" value="" style="shape=ellipse;fillColor=#0066CC;strokeColor=none;html=1" vertex="1" parent="EzjNGXoy3JmWEZeVmx8U-1">
          <mxGeometry x="1827.5" y="567.5" width="20" height="20" as="geometry"/>
        </mxCell>
        <mxCell id="9AVgp09xEN1EnIahCrB5-138" value="" style="shape=ellipse;fillColor=#0066CC;strokeColor=none;html=1" vertex="1" parent="EzjNGXoy3JmWEZeVmx8U-1">
          <mxGeometry x="1887.5" y="507.49999999999994" width="20" height="20" as="geometry"/>
        </mxCell>
        <mxCell id="9AVgp09xEN1EnIahCrB5-139" value="" style="shape=ellipse;fillColor=#0066CC;strokeColor=none;html=1" vertex="1" parent="EzjNGXoy3JmWEZeVmx8U-1">
          <mxGeometry x="1937.5" y="567.5" width="20" height="20" as="geometry"/>
        </mxCell>
        <mxCell id="9AVgp09xEN1EnIahCrB5-140" value="" style="shape=ellipse;fillColor=#0066CC;strokeColor=none;html=1" vertex="1" parent="EzjNGXoy3JmWEZeVmx8U-1">
          <mxGeometry x="2012.5" y="507.49999999999994" width="20" height="20" as="geometry"/>
        </mxCell>
        <mxCell id="9AVgp09xEN1EnIahCrB5-141" value="" style="shape=ellipse;fillColor=#0066CC;strokeColor=none;html=1" vertex="1" parent="EzjNGXoy3JmWEZeVmx8U-1">
          <mxGeometry x="2077.5" y="567.5" width="20" height="20" as="geometry"/>
        </mxCell>
        <mxCell id="9AVgp09xEN1EnIahCrB5-142" value="" style="shape=ellipse;fillColor=#0066CC;strokeColor=none;html=1" vertex="1" parent="EzjNGXoy3JmWEZeVmx8U-1">
          <mxGeometry x="1937.5" y="667.5" width="20" height="20" as="geometry"/>
        </mxCell>
        <mxCell id="9AVgp09xEN1EnIahCrB5-143" value="" style="shape=ellipse;fillColor=#0066CC;strokeColor=none;html=1" vertex="1" parent="EzjNGXoy3JmWEZeVmx8U-1">
          <mxGeometry x="1867.5" y="717.5" width="20" height="20" as="geometry"/>
        </mxCell>
        <mxCell id="9AVgp09xEN1EnIahCrB5-144" value="" style="shape=ellipse;fillColor=#0066CC;strokeColor=none;html=1" vertex="1" parent="EzjNGXoy3JmWEZeVmx8U-1">
          <mxGeometry x="2027.5" y="707.5" width="20" height="20" as="geometry"/>
        </mxCell>
        <mxCell id="9AVgp09xEN1EnIahCrB5-145" value="" style="shape=ellipse;fillColor=#0066CC;strokeColor=none;html=1" vertex="1" parent="EzjNGXoy3JmWEZeVmx8U-1">
          <mxGeometry x="1937.5" y="767.5" width="20" height="20" as="geometry"/>
        </mxCell>
        <mxCell id="9AVgp09xEN1EnIahCrB5-146" value="" style="rounded=1;whiteSpace=wrap;html=1;fillColor=#d5e8d4;strokeColor=#82b366;opacity=60;" vertex="1" parent="EzjNGXoy3JmWEZeVmx8U-1">
          <mxGeometry x="1430" y="801" width="80" height="60" as="geometry"/>
        </mxCell>
        <mxCell id="9AVgp09xEN1EnIahCrB5-147" value="GCN Layer" style="text;html=1;strokeColor=none;fillColor=none;align=left;verticalAlign=middle;whiteSpace=wrap;rounded=0;dashed=1;fontSize=34;fontStyle=1" vertex="1" parent="EzjNGXoy3JmWEZeVmx8U-1">
          <mxGeometry x="1530" y="801" width="240" height="60" as="geometry"/>
        </mxCell>
        <mxCell id="9AVgp09xEN1EnIahCrB5-148" value="" style="whiteSpace=wrap;html=1;fillColor=#A7BCD1;strokeColor=#6c8ebf;verticalAlign=middle;gradientColor=none;rounded=1;opacity=60;" vertex="1" parent="EzjNGXoy3JmWEZeVmx8U-1">
          <mxGeometry x="1430" y="877.5" width="80" height="60" as="geometry"/>
        </mxCell>
        <mxCell id="9AVgp09xEN1EnIahCrB5-149" value="TCN Layer" style="text;html=1;strokeColor=none;fillColor=none;align=left;verticalAlign=middle;whiteSpace=wrap;rounded=0;dashed=1;fontSize=34;fontStyle=1" vertex="1" parent="EzjNGXoy3JmWEZeVmx8U-1">
          <mxGeometry x="1530" y="881" width="240" height="60" as="geometry"/>
        </mxCell>
        <mxCell id="9AVgp09xEN1EnIahCrB5-150" value="" style="shape=ellipse;fillColor=#0066CC;strokeColor=none;html=1" vertex="1" parent="EzjNGXoy3JmWEZeVmx8U-1">
          <mxGeometry x="2615" y="817" width="20" height="20" as="geometry"/>
        </mxCell>
        <mxCell id="9AVgp09xEN1EnIahCrB5-151" value="" style="shape=ellipse;fillColor=#0066CC;strokeColor=none;html=1" vertex="1" parent="EzjNGXoy3JmWEZeVmx8U-1">
          <mxGeometry x="2615" y="857" width="20" height="20" as="geometry"/>
        </mxCell>
        <mxCell id="9AVgp09xEN1EnIahCrB5-152" value="" style="shape=ellipse;fillColor=#0066CC;strokeColor=none;html=1" vertex="1" parent="EzjNGXoy3JmWEZeVmx8U-1">
          <mxGeometry x="2615" y="897" width="20" height="20" as="geometry"/>
        </mxCell>
        <mxCell id="9AVgp09xEN1EnIahCrB5-153" value="" style="shape=ellipse;html=1;strokeColor=none;fillColor=#0066CC;" vertex="1" parent="EzjNGXoy3JmWEZeVmx8U-1">
          <mxGeometry x="2615" y="777" width="20" height="20" as="geometry"/>
        </mxCell>
        <mxCell id="9AVgp09xEN1EnIahCrB5-154" value="" style="shape=ellipse;html=1;strokeColor=none;fillColor=#0066CC;" vertex="1" parent="EzjNGXoy3JmWEZeVmx8U-1">
          <mxGeometry x="2615" y="937" width="20" height="20" as="geometry"/>
        </mxCell>
        <mxCell id="9AVgp09xEN1EnIahCrB5-155" value="" style="shape=ellipse;fillColor=#0066CC;strokeColor=none;html=1" vertex="1" parent="EzjNGXoy3JmWEZeVmx8U-1">
          <mxGeometry x="2615" y="1017" width="20" height="20" as="geometry"/>
        </mxCell>
        <mxCell id="9AVgp09xEN1EnIahCrB5-156" value="" style="shape=ellipse;fillColor=#0066CC;strokeColor=none;html=1" vertex="1" parent="EzjNGXoy3JmWEZeVmx8U-1">
          <mxGeometry x="2615" y="1057" width="20" height="20" as="geometry"/>
        </mxCell>
        <mxCell id="9AVgp09xEN1EnIahCrB5-157" value="" style="shape=ellipse;fillColor=#0066CC;strokeColor=none;html=1" vertex="1" parent="EzjNGXoy3JmWEZeVmx8U-1">
          <mxGeometry x="2615" y="1097" width="20" height="20" as="geometry"/>
        </mxCell>
        <mxCell id="9AVgp09xEN1EnIahCrB5-158" value="" style="shape=ellipse;html=1;strokeColor=none;fillColor=#0066CC;" vertex="1" parent="EzjNGXoy3JmWEZeVmx8U-1">
          <mxGeometry x="2615" y="977" width="20" height="20" as="geometry"/>
        </mxCell>
        <mxCell id="9AVgp09xEN1EnIahCrB5-159" value="" style="shape=ellipse;html=1;strokeColor=none;fillColor=#0066CC;" vertex="1" parent="EzjNGXoy3JmWEZeVmx8U-1">
          <mxGeometry x="2615" y="1137" width="20" height="20" as="geometry"/>
        </mxCell>
        <mxCell id="9AVgp09xEN1EnIahCrB5-160" value="" style="shape=ellipse;fillColor=#0066CC;strokeColor=none;html=1" vertex="1" parent="EzjNGXoy3JmWEZeVmx8U-1">
          <mxGeometry x="2615" y="1217" width="20" height="20" as="geometry"/>
        </mxCell>
        <mxCell id="9AVgp09xEN1EnIahCrB5-161" value="" style="shape=ellipse;fillColor=#0066CC;strokeColor=none;html=1" vertex="1" parent="EzjNGXoy3JmWEZeVmx8U-1">
          <mxGeometry x="2615" y="1257" width="20" height="20" as="geometry"/>
        </mxCell>
        <mxCell id="9AVgp09xEN1EnIahCrB5-162" value="" style="shape=ellipse;html=1;strokeColor=none;fillColor=#0066CC;" vertex="1" parent="EzjNGXoy3JmWEZeVmx8U-1">
          <mxGeometry x="2615" y="1177" width="20" height="20" as="geometry"/>
        </mxCell>
        <mxCell id="9AVgp09xEN1EnIahCrB5-163" value="" style="rounded=0;whiteSpace=wrap;html=1;labelBackgroundColor=#FFFFFF;fillColor=none;gradientColor=none;fontSize=77;opacity=60;" vertex="1" parent="EzjNGXoy3JmWEZeVmx8U-1">
          <mxGeometry x="2650" y="777" width="20" height="340" as="geometry"/>
        </mxCell>
        <mxCell id="9AVgp09xEN1EnIahCrB5-164" value="" style="shape=ellipse;fillColor=#0066CC;strokeColor=none;html=1" vertex="1" parent="EzjNGXoy3JmWEZeVmx8U-1">
          <mxGeometry x="2650" y="817" width="20" height="20" as="geometry"/>
        </mxCell>
        <mxCell id="9AVgp09xEN1EnIahCrB5-165" value="" style="shape=ellipse;fillColor=#0066CC;strokeColor=none;html=1" vertex="1" parent="EzjNGXoy3JmWEZeVmx8U-1">
          <mxGeometry x="2650" y="857" width="20" height="20" as="geometry"/>
        </mxCell>
        <mxCell id="9AVgp09xEN1EnIahCrB5-166" value="" style="shape=ellipse;fillColor=#0066CC;strokeColor=none;html=1" vertex="1" parent="EzjNGXoy3JmWEZeVmx8U-1">
          <mxGeometry x="2650" y="897" width="20" height="20" as="geometry"/>
        </mxCell>
        <mxCell id="9AVgp09xEN1EnIahCrB5-167" value="" style="shape=ellipse;html=1;strokeColor=none;fillColor=#0066CC;" vertex="1" parent="EzjNGXoy3JmWEZeVmx8U-1">
          <mxGeometry x="2650" y="777" width="20" height="20" as="geometry"/>
        </mxCell>
        <mxCell id="9AVgp09xEN1EnIahCrB5-168" value="" style="shape=ellipse;html=1;strokeColor=none;fillColor=#0066CC;" vertex="1" parent="EzjNGXoy3JmWEZeVmx8U-1">
          <mxGeometry x="2650" y="937" width="20" height="20" as="geometry"/>
        </mxCell>
        <mxCell id="9AVgp09xEN1EnIahCrB5-169" value="" style="shape=ellipse;fillColor=#0066CC;strokeColor=none;html=1" vertex="1" parent="EzjNGXoy3JmWEZeVmx8U-1">
          <mxGeometry x="2650" y="1017" width="20" height="20" as="geometry"/>
        </mxCell>
        <mxCell id="9AVgp09xEN1EnIahCrB5-170" value="" style="shape=ellipse;fillColor=#0066CC;strokeColor=none;html=1" vertex="1" parent="EzjNGXoy3JmWEZeVmx8U-1">
          <mxGeometry x="2650" y="1057" width="20" height="20" as="geometry"/>
        </mxCell>
        <mxCell id="9AVgp09xEN1EnIahCrB5-171" value="" style="shape=ellipse;fillColor=#0066CC;strokeColor=none;html=1" vertex="1" parent="EzjNGXoy3JmWEZeVmx8U-1">
          <mxGeometry x="2650" y="1097" width="20" height="20" as="geometry"/>
        </mxCell>
        <mxCell id="9AVgp09xEN1EnIahCrB5-172" value="" style="shape=ellipse;html=1;strokeColor=none;fillColor=#0066CC;" vertex="1" parent="EzjNGXoy3JmWEZeVmx8U-1">
          <mxGeometry x="2650" y="977" width="20" height="20" as="geometry"/>
        </mxCell>
        <mxCell id="9AVgp09xEN1EnIahCrB5-173" value="" style="edgeStyle=orthogonalEdgeStyle;rounded=0;orthogonalLoop=1;jettySize=auto;html=1;strokeWidth=10;exitX=1;exitY=0.5;exitDx=0;exitDy=0;entryX=-0.01;entryY=0.064;entryDx=0;entryDy=0;entryPerimeter=0;" edge="1" parent="EzjNGXoy3JmWEZeVmx8U-1" source="9AVgp09xEN1EnIahCrB5-0" target="9AVgp09xEN1EnIahCrB5-25">
          <mxGeometry relative="1" as="geometry">
            <mxPoint x="2832.5" y="770" as="targetPoint"/>
            <mxPoint x="2262.6176470588234" y="660.4117647058824" as="sourcePoint"/>
          </mxGeometry>
        </mxCell>
        <mxCell id="9AVgp09xEN1EnIahCrB5-174" value="" style="edgeStyle=orthogonalEdgeStyle;rounded=0;orthogonalLoop=1;jettySize=auto;html=1;strokeWidth=10;entryX=0;entryY=0.5;entryDx=0;entryDy=0;exitX=1;exitY=0.5;exitDx=0;exitDy=0;" edge="1" parent="EzjNGXoy3JmWEZeVmx8U-1" source="9AVgp09xEN1EnIahCrB5-25" target="9AVgp09xEN1EnIahCrB5-31">
          <mxGeometry relative="1" as="geometry">
            <mxPoint x="2591.142857142858" y="684.4285714285716" as="targetPoint"/>
            <mxPoint x="2710" y="916" as="sourcePoint"/>
          </mxGeometry>
        </mxCell>
        <mxCell id="9AVgp09xEN1EnIahCrB5-175" value="" style="edgeStyle=orthogonalEdgeStyle;rounded=0;orthogonalLoop=1;jettySize=auto;html=1;strokeWidth=10;entryX=0;entryY=0.5;entryDx=0;entryDy=0;exitX=1;exitY=0.5;exitDx=0;exitDy=0;" edge="1" parent="EzjNGXoy3JmWEZeVmx8U-1" source="9AVgp09xEN1EnIahCrB5-123" target="9AVgp09xEN1EnIahCrB5-3">
          <mxGeometry relative="1" as="geometry">
            <mxPoint x="1450.2758620689656" y="659.8965517241379" as="targetPoint"/>
            <mxPoint x="1360" y="659.8965517241379" as="sourcePoint"/>
          </mxGeometry>
        </mxCell>
        <mxCell id="9AVgp09xEN1EnIahCrB5-176" value="" style="rounded=0;whiteSpace=wrap;html=1;labelBackgroundColor=#FFFFFF;fillColor=#fff2cc;fontSize=77;opacity=60;strokeColor=#d6b656;" vertex="1" parent="EzjNGXoy3JmWEZeVmx8U-1">
          <mxGeometry x="1430" y="957.5" width="80" height="60" as="geometry"/>
        </mxCell>
        <mxCell id="9AVgp09xEN1EnIahCrB5-177" value="FC Layer" style="text;html=1;strokeColor=none;fillColor=none;align=left;verticalAlign=middle;whiteSpace=wrap;rounded=0;dashed=1;fontSize=34;fontStyle=1" vertex="1" parent="EzjNGXoy3JmWEZeVmx8U-1">
          <mxGeometry x="1530" y="957.5" width="200" height="60" as="geometry"/>
        </mxCell>
        <mxCell id="9AVgp09xEN1EnIahCrB5-178" value="" style="rounded=0;whiteSpace=wrap;html=1;labelBackgroundColor=#FFFFFF;fillColor=#f8cecc;fontSize=77;opacity=60;strokeColor=#b85450;" vertex="1" parent="EzjNGXoy3JmWEZeVmx8U-1">
          <mxGeometry x="1430" y="1032" width="80" height="60" as="geometry"/>
        </mxCell>
        <mxCell id="9AVgp09xEN1EnIahCrB5-179" value="Result" style="text;html=1;strokeColor=none;fillColor=none;align=left;verticalAlign=middle;whiteSpace=wrap;rounded=0;dashed=1;fontSize=34;fontStyle=1" vertex="1" parent="EzjNGXoy3JmWEZeVmx8U-1">
          <mxGeometry x="1530" y="1032" width="160" height="60" as="geometry"/>
        </mxCell>
        <mxCell id="9AVgp09xEN1EnIahCrB5-180" value="" style="rounded=0;whiteSpace=wrap;html=1;labelBackgroundColor=none;fillColor=#f8cecc;fontSize=18;opacity=60;strokeColor=#b85450;" vertex="1" parent="EzjNGXoy3JmWEZeVmx8U-1">
          <mxGeometry x="2195" y="555" width="30" height="100" as="geometry"/>
        </mxCell>
        <mxCell id="9AVgp09xEN1EnIahCrB5-181" value="" style="rounded=1;whiteSpace=wrap;html=1;fillColor=#A7BCD1;strokeColor=#6c8ebf;opacity=60;" vertex="1" parent="EzjNGXoy3JmWEZeVmx8U-1">
          <mxGeometry x="2172.5" y="1137" width="360" height="210" as="geometry"/>
        </mxCell>
        <mxCell id="9AVgp09xEN1EnIahCrB5-182" style="edgeStyle=orthogonalEdgeStyle;rounded=0;orthogonalLoop=1;jettySize=auto;html=1;exitX=1;exitY=0.5;exitDx=0;exitDy=0;entryX=0;entryY=0.5;entryDx=0;entryDy=0;strokeColor=#000000;strokeWidth=10;fontSize=11;" edge="1" parent="EzjNGXoy3JmWEZeVmx8U-1" source="9AVgp09xEN1EnIahCrB5-207" target="9AVgp09xEN1EnIahCrB5-303">
          <mxGeometry relative="1" as="geometry">
            <mxPoint x="1942.2142857142862" y="1242.1428571428573" as="targetPoint"/>
          </mxGeometry>
        </mxCell>
        <mxCell id="9AVgp09xEN1EnIahCrB5-183" value="" style="edgeStyle=orthogonalEdgeStyle;rounded=0;orthogonalLoop=1;jettySize=auto;html=1;strokeWidth=10;entryX=0;entryY=0.5;entryDx=0;entryDy=0;" edge="1" parent="EzjNGXoy3JmWEZeVmx8U-1" source="9AVgp09xEN1EnIahCrB5-184" target="9AVgp09xEN1EnIahCrB5-207">
          <mxGeometry relative="1" as="geometry">
            <mxPoint x="1430" y="1242" as="targetPoint"/>
          </mxGeometry>
        </mxCell>
        <mxCell id="9AVgp09xEN1EnIahCrB5-184" value="" style="rounded=1;whiteSpace=wrap;html=1;fillColor=#d5e8d4;strokeColor=#82b366;opacity=60;" vertex="1" parent="EzjNGXoy3JmWEZeVmx8U-1">
          <mxGeometry x="1040" y="1089.5" width="310" height="305" as="geometry"/>
        </mxCell>
        <mxCell id="9AVgp09xEN1EnIahCrB5-185" value="" style="shape=ellipse;fillColor=#0066CC;strokeColor=none;html=1" vertex="1" parent="EzjNGXoy3JmWEZeVmx8U-1">
          <mxGeometry x="1060" y="1159.5" width="20" height="20" as="geometry"/>
        </mxCell>
        <mxCell id="9AVgp09xEN1EnIahCrB5-186" value="" style="shape=ellipse;fillColor=#0066CC;strokeColor=none;html=1" vertex="1" parent="EzjNGXoy3JmWEZeVmx8U-1">
          <mxGeometry x="1120" y="1099.5" width="20" height="20" as="geometry"/>
        </mxCell>
        <mxCell id="9AVgp09xEN1EnIahCrB5-187" value="" style="shape=ellipse;fillColor=#0066CC;strokeColor=none;html=1" vertex="1" parent="EzjNGXoy3JmWEZeVmx8U-1">
          <mxGeometry x="1170" y="1159.5" width="20" height="20" as="geometry"/>
        </mxCell>
        <mxCell id="9AVgp09xEN1EnIahCrB5-188" value="" style="shape=ellipse;fillColor=#0066CC;strokeColor=none;html=1" vertex="1" parent="EzjNGXoy3JmWEZeVmx8U-1">
          <mxGeometry x="1245" y="1099.5" width="20" height="20" as="geometry"/>
        </mxCell>
        <mxCell id="9AVgp09xEN1EnIahCrB5-189" value="" style="shape=ellipse;fillColor=#0066CC;strokeColor=none;html=1" vertex="1" parent="EzjNGXoy3JmWEZeVmx8U-1">
          <mxGeometry x="1310" y="1159.5" width="20" height="20" as="geometry"/>
        </mxCell>
        <mxCell id="9AVgp09xEN1EnIahCrB5-190" value="" style="shape=ellipse;fillColor=#0066CC;strokeColor=none;html=1" vertex="1" parent="EzjNGXoy3JmWEZeVmx8U-1">
          <mxGeometry x="1170" y="1259.5" width="20" height="20" as="geometry"/>
        </mxCell>
        <mxCell id="9AVgp09xEN1EnIahCrB5-191" value="" style="shape=ellipse;fillColor=#0066CC;strokeColor=none;html=1" vertex="1" parent="EzjNGXoy3JmWEZeVmx8U-1">
          <mxGeometry x="1100" y="1309.5" width="20" height="20" as="geometry"/>
        </mxCell>
        <mxCell id="9AVgp09xEN1EnIahCrB5-192" value="" style="shape=ellipse;fillColor=#0066CC;strokeColor=none;html=1" vertex="1" parent="EzjNGXoy3JmWEZeVmx8U-1">
          <mxGeometry x="1260" y="1299.5" width="20" height="20" as="geometry"/>
        </mxCell>
        <mxCell id="9AVgp09xEN1EnIahCrB5-193" value="" style="shape=ellipse;fillColor=#0066CC;strokeColor=none;html=1" vertex="1" parent="EzjNGXoy3JmWEZeVmx8U-1">
          <mxGeometry x="1170" y="1359.5" width="20" height="20" as="geometry"/>
        </mxCell>
        <mxCell id="9AVgp09xEN1EnIahCrB5-194" value="" style="endArrow=none;html=1;fontSize=56;strokeWidth=2;fillColor=#dae8fc;strokeColor=#6c8ebf;" edge="1" parent="EzjNGXoy3JmWEZeVmx8U-1" source="9AVgp09xEN1EnIahCrB5-186" target="9AVgp09xEN1EnIahCrB5-185">
          <mxGeometry width="50" height="50" relative="1" as="geometry">
            <mxPoint x="1170" y="903.5" as="sourcePoint"/>
            <mxPoint x="1275" y="945.5" as="targetPoint"/>
          </mxGeometry>
        </mxCell>
        <mxCell id="9AVgp09xEN1EnIahCrB5-195" value="" style="endArrow=none;html=1;fontSize=56;strokeWidth=2;fillColor=#dae8fc;strokeColor=#6c8ebf;" edge="1" parent="EzjNGXoy3JmWEZeVmx8U-1" source="9AVgp09xEN1EnIahCrB5-188" target="9AVgp09xEN1EnIahCrB5-186">
          <mxGeometry width="50" height="50" relative="1" as="geometry">
            <mxPoint x="1240" y="1139.5" as="sourcePoint"/>
            <mxPoint x="1100" y="1179.5" as="targetPoint"/>
          </mxGeometry>
        </mxCell>
        <mxCell id="9AVgp09xEN1EnIahCrB5-196" value="" style="endArrow=none;html=1;fontSize=56;strokeWidth=2;fillColor=#dae8fc;strokeColor=#6c8ebf;" edge="1" parent="EzjNGXoy3JmWEZeVmx8U-1" source="9AVgp09xEN1EnIahCrB5-189" target="9AVgp09xEN1EnIahCrB5-188">
          <mxGeometry width="50" height="50" relative="1" as="geometry">
            <mxPoint x="1150" y="1149.5" as="sourcePoint"/>
            <mxPoint x="1110" y="1189.5" as="targetPoint"/>
          </mxGeometry>
        </mxCell>
        <mxCell id="9AVgp09xEN1EnIahCrB5-197" value="" style="endArrow=none;html=1;fontSize=56;strokeWidth=2;fillColor=#dae8fc;strokeColor=#6c8ebf;" edge="1" parent="EzjNGXoy3JmWEZeVmx8U-1" source="9AVgp09xEN1EnIahCrB5-187" target="9AVgp09xEN1EnIahCrB5-188">
          <mxGeometry width="50" height="50" relative="1" as="geometry">
            <mxPoint x="1160" y="1159.5" as="sourcePoint"/>
            <mxPoint x="1120" y="1199.5" as="targetPoint"/>
          </mxGeometry>
        </mxCell>
        <mxCell id="9AVgp09xEN1EnIahCrB5-198" value="" style="endArrow=none;html=1;fontSize=56;strokeWidth=2;fillColor=#dae8fc;strokeColor=#6c8ebf;" edge="1" parent="EzjNGXoy3JmWEZeVmx8U-1" source="9AVgp09xEN1EnIahCrB5-186" target="9AVgp09xEN1EnIahCrB5-187">
          <mxGeometry width="50" height="50" relative="1" as="geometry">
            <mxPoint x="1170" y="1169.5" as="sourcePoint"/>
            <mxPoint x="1130" y="1209.5" as="targetPoint"/>
          </mxGeometry>
        </mxCell>
        <mxCell id="9AVgp09xEN1EnIahCrB5-199" value="" style="endArrow=none;html=1;fontSize=56;strokeWidth=2;fillColor=#dae8fc;strokeColor=#6c8ebf;" edge="1" parent="EzjNGXoy3JmWEZeVmx8U-1" source="9AVgp09xEN1EnIahCrB5-187" target="9AVgp09xEN1EnIahCrB5-190">
          <mxGeometry width="50" height="50" relative="1" as="geometry">
            <mxPoint x="1180" y="1179.5" as="sourcePoint"/>
            <mxPoint x="1140" y="1219.5" as="targetPoint"/>
          </mxGeometry>
        </mxCell>
        <mxCell id="9AVgp09xEN1EnIahCrB5-200" value="" style="endArrow=none;html=1;fontSize=56;strokeWidth=2;fillColor=#dae8fc;strokeColor=#6c8ebf;" edge="1" parent="EzjNGXoy3JmWEZeVmx8U-1" source="9AVgp09xEN1EnIahCrB5-192" target="9AVgp09xEN1EnIahCrB5-190">
          <mxGeometry width="50" height="50" relative="1" as="geometry">
            <mxPoint x="1190" y="1189.5" as="sourcePoint"/>
            <mxPoint x="1150" y="1229.5" as="targetPoint"/>
          </mxGeometry>
        </mxCell>
        <mxCell id="9AVgp09xEN1EnIahCrB5-201" value="" style="endArrow=none;html=1;fontSize=56;strokeWidth=2;fillColor=#dae8fc;strokeColor=#6c8ebf;" edge="1" parent="EzjNGXoy3JmWEZeVmx8U-1" source="9AVgp09xEN1EnIahCrB5-193" target="9AVgp09xEN1EnIahCrB5-192">
          <mxGeometry width="50" height="50" relative="1" as="geometry">
            <mxPoint x="1200" y="1199.5" as="sourcePoint"/>
            <mxPoint x="1160" y="1239.5" as="targetPoint"/>
          </mxGeometry>
        </mxCell>
        <mxCell id="9AVgp09xEN1EnIahCrB5-202" value="" style="endArrow=none;html=1;fontSize=56;strokeWidth=2;fillColor=#dae8fc;strokeColor=#6c8ebf;" edge="1" parent="EzjNGXoy3JmWEZeVmx8U-1" source="9AVgp09xEN1EnIahCrB5-190" target="9AVgp09xEN1EnIahCrB5-191">
          <mxGeometry width="50" height="50" relative="1" as="geometry">
            <mxPoint x="1210" y="1209.5" as="sourcePoint"/>
            <mxPoint x="1170" y="1249.5" as="targetPoint"/>
          </mxGeometry>
        </mxCell>
        <mxCell id="9AVgp09xEN1EnIahCrB5-203" value="" style="endArrow=none;html=1;fontSize=56;strokeWidth=2;fillColor=#dae8fc;strokeColor=#6c8ebf;" edge="1" parent="EzjNGXoy3JmWEZeVmx8U-1" source="9AVgp09xEN1EnIahCrB5-185" target="9AVgp09xEN1EnIahCrB5-191">
          <mxGeometry width="50" height="50" relative="1" as="geometry">
            <mxPoint x="1230" y="1229.5" as="sourcePoint"/>
            <mxPoint x="1190" y="1269.5" as="targetPoint"/>
          </mxGeometry>
        </mxCell>
        <mxCell id="9AVgp09xEN1EnIahCrB5-204" value="" style="endArrow=none;html=1;fontSize=56;strokeWidth=2;fillColor=#dae8fc;strokeColor=#6c8ebf;" edge="1" parent="EzjNGXoy3JmWEZeVmx8U-1" source="9AVgp09xEN1EnIahCrB5-189" target="9AVgp09xEN1EnIahCrB5-192">
          <mxGeometry width="50" height="50" relative="1" as="geometry">
            <mxPoint x="1240" y="1239.5" as="sourcePoint"/>
            <mxPoint x="1200" y="1279.5" as="targetPoint"/>
          </mxGeometry>
        </mxCell>
        <mxCell id="9AVgp09xEN1EnIahCrB5-205" value="" style="edgeStyle=orthogonalEdgeStyle;rounded=0;orthogonalLoop=1;jettySize=auto;html=1;strokeWidth=10;entryX=0;entryY=0.5;entryDx=0;entryDy=0;exitX=1;exitY=0.5;exitDx=0;exitDy=0;" edge="1" parent="EzjNGXoy3JmWEZeVmx8U-1" source="9AVgp09xEN1EnIahCrB5-303" target="9AVgp09xEN1EnIahCrB5-181">
          <mxGeometry relative="1" as="geometry">
            <mxPoint x="2362.071428571429" y="1242.1428571428573" as="targetPoint"/>
            <mxPoint x="2252.5" y="1242.1428571428573" as="sourcePoint"/>
          </mxGeometry>
        </mxCell>
        <mxCell id="9AVgp09xEN1EnIahCrB5-206" value="" style="group;direction=west;" vertex="1" connectable="0" parent="EzjNGXoy3JmWEZeVmx8U-1">
          <mxGeometry x="1422.5" y="1137" width="555" height="210" as="geometry"/>
        </mxCell>
        <mxCell id="9AVgp09xEN1EnIahCrB5-207" value="" style="rounded=1;whiteSpace=wrap;html=1;fillColor=#A7BCD1;strokeColor=#6c8ebf;opacity=60;" vertex="1" parent="9AVgp09xEN1EnIahCrB5-206">
          <mxGeometry x="-22.5" width="352.5" height="210" as="geometry"/>
        </mxCell>
        <mxCell id="9AVgp09xEN1EnIahCrB5-208" value="" style="shape=ellipse;fillColor=#0066CC;strokeColor=none;html=1" vertex="1" parent="9AVgp09xEN1EnIahCrB5-206">
          <mxGeometry x="-2.5" y="50" width="20" height="20" as="geometry"/>
        </mxCell>
        <mxCell id="9AVgp09xEN1EnIahCrB5-209" value="" style="shape=ellipse;fillColor=#0066CC;strokeColor=none;html=1" vertex="1" parent="9AVgp09xEN1EnIahCrB5-206">
          <mxGeometry x="37.5" y="50" width="20" height="20" as="geometry"/>
        </mxCell>
        <mxCell id="9AVgp09xEN1EnIahCrB5-210" value="" style="shape=ellipse;fillColor=#0066CC;strokeColor=none;html=1" vertex="1" parent="9AVgp09xEN1EnIahCrB5-206">
          <mxGeometry x="77.5" y="50" width="20" height="20" as="geometry"/>
        </mxCell>
        <mxCell id="9AVgp09xEN1EnIahCrB5-211" value="" style="shape=ellipse;fillColor=#0066CC;strokeColor=none;html=1" vertex="1" parent="9AVgp09xEN1EnIahCrB5-206">
          <mxGeometry x="117.5" y="50" width="20" height="20" as="geometry"/>
        </mxCell>
        <mxCell id="9AVgp09xEN1EnIahCrB5-212" value="" style="shape=ellipse;fillColor=#0066CC;strokeColor=none;html=1" vertex="1" parent="9AVgp09xEN1EnIahCrB5-206">
          <mxGeometry x="157.5" y="50" width="20" height="20" as="geometry"/>
        </mxCell>
        <mxCell id="9AVgp09xEN1EnIahCrB5-213" value="" style="shape=ellipse;fillColor=#0066CC;strokeColor=none;html=1" vertex="1" parent="9AVgp09xEN1EnIahCrB5-206">
          <mxGeometry x="197.5" y="50" width="20" height="20" as="geometry"/>
        </mxCell>
        <mxCell id="9AVgp09xEN1EnIahCrB5-214" value="" style="shape=ellipse;fillColor=#0066CC;strokeColor=none;html=1" vertex="1" parent="9AVgp09xEN1EnIahCrB5-206">
          <mxGeometry x="-2.5" y="90" width="20" height="20" as="geometry"/>
        </mxCell>
        <mxCell id="9AVgp09xEN1EnIahCrB5-215" value="" style="shape=ellipse;fillColor=#0066CC;strokeColor=none;html=1" vertex="1" parent="9AVgp09xEN1EnIahCrB5-206">
          <mxGeometry x="37.5" y="90" width="20" height="20" as="geometry"/>
        </mxCell>
        <mxCell id="9AVgp09xEN1EnIahCrB5-216" value="" style="shape=ellipse;fillColor=#0066CC;strokeColor=none;html=1" vertex="1" parent="9AVgp09xEN1EnIahCrB5-206">
          <mxGeometry x="77.5" y="90" width="20" height="20" as="geometry"/>
        </mxCell>
        <mxCell id="9AVgp09xEN1EnIahCrB5-217" value="" style="shape=ellipse;fillColor=#0066CC;strokeColor=none;html=1" vertex="1" parent="9AVgp09xEN1EnIahCrB5-206">
          <mxGeometry x="117.5" y="90" width="20" height="20" as="geometry"/>
        </mxCell>
        <mxCell id="9AVgp09xEN1EnIahCrB5-218" value="" style="shape=ellipse;fillColor=#0066CC;strokeColor=none;html=1" vertex="1" parent="9AVgp09xEN1EnIahCrB5-206">
          <mxGeometry x="157.5" y="90" width="20" height="20" as="geometry"/>
        </mxCell>
        <mxCell id="9AVgp09xEN1EnIahCrB5-219" value="" style="shape=ellipse;fillColor=#0066CC;strokeColor=none;html=1" vertex="1" parent="9AVgp09xEN1EnIahCrB5-206">
          <mxGeometry x="197.5" y="90" width="20" height="20" as="geometry"/>
        </mxCell>
        <mxCell id="9AVgp09xEN1EnIahCrB5-220" value="" style="shape=ellipse;fillColor=#0066CC;strokeColor=none;html=1" vertex="1" parent="9AVgp09xEN1EnIahCrB5-206">
          <mxGeometry x="-2.5" y="130" width="20" height="20" as="geometry"/>
        </mxCell>
        <mxCell id="9AVgp09xEN1EnIahCrB5-221" value="" style="shape=ellipse;fillColor=#0066CC;strokeColor=none;html=1" vertex="1" parent="9AVgp09xEN1EnIahCrB5-206">
          <mxGeometry x="37.5" y="130" width="20" height="20" as="geometry"/>
        </mxCell>
        <mxCell id="9AVgp09xEN1EnIahCrB5-222" value="" style="shape=ellipse;fillColor=#0066CC;strokeColor=none;html=1" vertex="1" parent="9AVgp09xEN1EnIahCrB5-206">
          <mxGeometry x="77.5" y="130" width="20" height="20" as="geometry"/>
        </mxCell>
        <mxCell id="9AVgp09xEN1EnIahCrB5-223" value="" style="shape=ellipse;fillColor=#0066CC;strokeColor=none;html=1" vertex="1" parent="9AVgp09xEN1EnIahCrB5-206">
          <mxGeometry x="117.5" y="130" width="20" height="20" as="geometry"/>
        </mxCell>
        <mxCell id="9AVgp09xEN1EnIahCrB5-224" value="" style="shape=ellipse;fillColor=#0066CC;strokeColor=none;html=1" vertex="1" parent="9AVgp09xEN1EnIahCrB5-206">
          <mxGeometry x="157.5" y="130" width="20" height="20" as="geometry"/>
        </mxCell>
        <mxCell id="9AVgp09xEN1EnIahCrB5-225" value="" style="shape=ellipse;fillColor=#0066CC;strokeColor=none;html=1" vertex="1" parent="9AVgp09xEN1EnIahCrB5-206">
          <mxGeometry x="197.5" y="130" width="20" height="20" as="geometry"/>
        </mxCell>
        <mxCell id="9AVgp09xEN1EnIahCrB5-226" value="" style="shape=ellipse;fillColor=#0066CC;strokeColor=none;html=1" vertex="1" parent="9AVgp09xEN1EnIahCrB5-206">
          <mxGeometry x="237.5" y="50" width="20" height="20" as="geometry"/>
        </mxCell>
        <mxCell id="9AVgp09xEN1EnIahCrB5-227" value="" style="shape=ellipse;fillColor=#0066CC;strokeColor=none;html=1" vertex="1" parent="9AVgp09xEN1EnIahCrB5-206">
          <mxGeometry x="237.5" y="90" width="20" height="20" as="geometry"/>
        </mxCell>
        <mxCell id="9AVgp09xEN1EnIahCrB5-228" value="" style="shape=ellipse;fillColor=#0066CC;strokeColor=none;html=1" vertex="1" parent="9AVgp09xEN1EnIahCrB5-206">
          <mxGeometry x="237.5" y="130" width="20" height="20" as="geometry"/>
        </mxCell>
        <mxCell id="9AVgp09xEN1EnIahCrB5-229" value="" style="endArrow=classic;html=1;strokeWidth=3;fillColor=#d5e8d4;strokeColor=#00CC00;fontSize=24;" edge="1" parent="9AVgp09xEN1EnIahCrB5-206">
          <mxGeometry width="50" height="50" relative="1" as="geometry">
            <mxPoint x="287.5" y="38" as="sourcePoint"/>
            <mxPoint x="287.5" y="170" as="targetPoint"/>
          </mxGeometry>
        </mxCell>
        <mxCell id="9AVgp09xEN1EnIahCrB5-230" value="temporal" style="text;html=1;align=center;verticalAlign=middle;resizable=0;points=[];;horizontal=0;rotation=-180;fontSize=24;rounded=1;strokeColor=#6c8ebf;fillColor=#A7BCD1;opacity=60;labelBackgroundColor=#67AB9F;labelBorderColor=none;" vertex="1" connectable="0" parent="9AVgp09xEN1EnIahCrB5-229">
          <mxGeometry x="-0.3775" y="1" relative="1" as="geometry">
            <mxPoint y="15.52" as="offset"/>
          </mxGeometry>
        </mxCell>
        <mxCell id="9AVgp09xEN1EnIahCrB5-231" value="" style="shape=ellipse;html=1" vertex="1" parent="9AVgp09xEN1EnIahCrB5-206">
          <mxGeometry x="-2.5" y="10" width="20" height="20" as="geometry"/>
        </mxCell>
        <mxCell id="9AVgp09xEN1EnIahCrB5-232" value="" style="shape=ellipse;html=1" vertex="1" parent="9AVgp09xEN1EnIahCrB5-206">
          <mxGeometry x="37.5" y="10" width="20" height="20" as="geometry"/>
        </mxCell>
        <mxCell id="9AVgp09xEN1EnIahCrB5-233" value="" style="shape=ellipse;html=1" vertex="1" parent="9AVgp09xEN1EnIahCrB5-206">
          <mxGeometry x="77.5" y="10" width="20" height="20" as="geometry"/>
        </mxCell>
        <mxCell id="9AVgp09xEN1EnIahCrB5-234" value="" style="shape=ellipse;html=1" vertex="1" parent="9AVgp09xEN1EnIahCrB5-206">
          <mxGeometry x="117.5" y="10" width="20" height="20" as="geometry"/>
        </mxCell>
        <mxCell id="9AVgp09xEN1EnIahCrB5-235" value="" style="shape=ellipse;html=1" vertex="1" parent="9AVgp09xEN1EnIahCrB5-206">
          <mxGeometry x="157.5" y="10" width="20" height="20" as="geometry"/>
        </mxCell>
        <mxCell id="9AVgp09xEN1EnIahCrB5-236" value="" style="shape=ellipse;html=1" vertex="1" parent="9AVgp09xEN1EnIahCrB5-206">
          <mxGeometry x="197.5" y="10" width="20" height="20" as="geometry"/>
        </mxCell>
        <mxCell id="9AVgp09xEN1EnIahCrB5-237" value="" style="shape=ellipse;html=1" vertex="1" parent="9AVgp09xEN1EnIahCrB5-206">
          <mxGeometry x="237.5" y="10" width="20" height="20" as="geometry"/>
        </mxCell>
        <mxCell id="9AVgp09xEN1EnIahCrB5-238" value="" style="shape=ellipse;html=1" vertex="1" parent="9AVgp09xEN1EnIahCrB5-206">
          <mxGeometry x="-2.5" y="170" width="20" height="20" as="geometry"/>
        </mxCell>
        <mxCell id="9AVgp09xEN1EnIahCrB5-239" value="" style="shape=ellipse;html=1" vertex="1" parent="9AVgp09xEN1EnIahCrB5-206">
          <mxGeometry x="37.5" y="170" width="20" height="20" as="geometry"/>
        </mxCell>
        <mxCell id="9AVgp09xEN1EnIahCrB5-240" value="" style="shape=ellipse;html=1" vertex="1" parent="9AVgp09xEN1EnIahCrB5-206">
          <mxGeometry x="77.5" y="170" width="20" height="20" as="geometry"/>
        </mxCell>
        <mxCell id="9AVgp09xEN1EnIahCrB5-241" value="" style="shape=ellipse;html=1" vertex="1" parent="9AVgp09xEN1EnIahCrB5-206">
          <mxGeometry x="117.5" y="170" width="20" height="20" as="geometry"/>
        </mxCell>
        <mxCell id="9AVgp09xEN1EnIahCrB5-242" value="" style="shape=ellipse;html=1" vertex="1" parent="9AVgp09xEN1EnIahCrB5-206">
          <mxGeometry x="157.5" y="170" width="20" height="20" as="geometry"/>
        </mxCell>
        <mxCell id="9AVgp09xEN1EnIahCrB5-243" value="" style="shape=ellipse;html=1" vertex="1" parent="9AVgp09xEN1EnIahCrB5-206">
          <mxGeometry x="197.5" y="170" width="20" height="20" as="geometry"/>
        </mxCell>
        <mxCell id="9AVgp09xEN1EnIahCrB5-244" value="" style="shape=ellipse;html=1" vertex="1" parent="9AVgp09xEN1EnIahCrB5-206">
          <mxGeometry x="237.5" y="170" width="20" height="20" as="geometry"/>
        </mxCell>
        <mxCell id="9AVgp09xEN1EnIahCrB5-245" value="" style="rounded=0;whiteSpace=wrap;html=1;labelBackgroundColor=none;fillColor=#f8cecc;fontSize=18;opacity=60;strokeColor=#b85450;" vertex="1" parent="9AVgp09xEN1EnIahCrB5-206">
          <mxGeometry x="72.5" y="50" width="30" height="100" as="geometry"/>
        </mxCell>
        <mxCell id="9AVgp09xEN1EnIahCrB5-246" value="" style="rounded=0;whiteSpace=wrap;html=1;labelBackgroundColor=none;fillColor=#f8cecc;fontSize=18;opacity=60;strokeColor=#b85450;" vertex="1" parent="9AVgp09xEN1EnIahCrB5-206">
          <mxGeometry x="192.5" y="90" width="30" height="100" as="geometry"/>
        </mxCell>
        <mxCell id="9AVgp09xEN1EnIahCrB5-247" value="Pad" style="text;html=1;strokeColor=none;fillColor=none;align=center;verticalAlign=middle;whiteSpace=wrap;rounded=0;labelBackgroundColor=none;fontSize=24;opacity=60;" vertex="1" parent="9AVgp09xEN1EnIahCrB5-206">
          <mxGeometry x="267.5" y="10" width="40" height="20" as="geometry"/>
        </mxCell>
        <mxCell id="9AVgp09xEN1EnIahCrB5-248" value="Pad" style="text;html=1;strokeColor=none;fillColor=none;align=center;verticalAlign=middle;whiteSpace=wrap;rounded=0;labelBackgroundColor=none;fontSize=24;opacity=60;" vertex="1" parent="9AVgp09xEN1EnIahCrB5-206">
          <mxGeometry x="267.5" y="170" width="40" height="20" as="geometry"/>
        </mxCell>
        <mxCell id="9AVgp09xEN1EnIahCrB5-249" value="" style="rounded=0;whiteSpace=wrap;html=1;labelBackgroundColor=none;fillColor=#f8cecc;fontSize=18;opacity=60;strokeColor=#b85450;" vertex="1" parent="9AVgp09xEN1EnIahCrB5-206">
          <mxGeometry x="-7.5" y="10" width="30" height="100" as="geometry"/>
        </mxCell>
        <mxCell id="9AVgp09xEN1EnIahCrB5-250" value="" style="endArrow=classic;html=1;strokeWidth=3;fillColor=#d5e8d4;strokeColor=#00CC00;fontSize=24;" edge="1" parent="EzjNGXoy3JmWEZeVmx8U-1">
          <mxGeometry width="50" height="50" relative="1" as="geometry">
            <mxPoint x="2492.5" y="1175" as="sourcePoint"/>
            <mxPoint x="2492.5" y="1307" as="targetPoint"/>
          </mxGeometry>
        </mxCell>
        <mxCell id="9AVgp09xEN1EnIahCrB5-251" value="temporal" style="text;html=1;align=center;verticalAlign=middle;resizable=0;points=[];;horizontal=0;rotation=-180;fontSize=24;rounded=1;strokeColor=#6c8ebf;fillColor=#A7BCD1;opacity=60;labelBackgroundColor=#67AB9F;labelBorderColor=none;" vertex="1" connectable="0" parent="9AVgp09xEN1EnIahCrB5-250">
          <mxGeometry x="-0.3775" y="1" relative="1" as="geometry">
            <mxPoint y="15.52" as="offset"/>
          </mxGeometry>
        </mxCell>
        <mxCell id="9AVgp09xEN1EnIahCrB5-252" value="" style="shape=ellipse;fillColor=#0066CC;strokeColor=none;html=1" vertex="1" parent="EzjNGXoy3JmWEZeVmx8U-1">
          <mxGeometry x="2200" y="1187" width="20" height="20" as="geometry"/>
        </mxCell>
        <mxCell id="9AVgp09xEN1EnIahCrB5-253" value="" style="shape=ellipse;fillColor=#0066CC;strokeColor=none;html=1" vertex="1" parent="EzjNGXoy3JmWEZeVmx8U-1">
          <mxGeometry x="2240" y="1187" width="20" height="20" as="geometry"/>
        </mxCell>
        <mxCell id="9AVgp09xEN1EnIahCrB5-254" value="" style="shape=ellipse;fillColor=#0066CC;strokeColor=none;html=1" vertex="1" parent="EzjNGXoy3JmWEZeVmx8U-1">
          <mxGeometry x="2280" y="1187" width="20" height="20" as="geometry"/>
        </mxCell>
        <mxCell id="9AVgp09xEN1EnIahCrB5-255" value="" style="shape=ellipse;fillColor=#0066CC;strokeColor=none;html=1" vertex="1" parent="EzjNGXoy3JmWEZeVmx8U-1">
          <mxGeometry x="2320" y="1187" width="20" height="20" as="geometry"/>
        </mxCell>
        <mxCell id="9AVgp09xEN1EnIahCrB5-256" value="" style="shape=ellipse;fillColor=#0066CC;strokeColor=none;html=1" vertex="1" parent="EzjNGXoy3JmWEZeVmx8U-1">
          <mxGeometry x="2360" y="1187" width="20" height="20" as="geometry"/>
        </mxCell>
        <mxCell id="9AVgp09xEN1EnIahCrB5-257" value="" style="shape=ellipse;fillColor=#0066CC;strokeColor=none;html=1" vertex="1" parent="EzjNGXoy3JmWEZeVmx8U-1">
          <mxGeometry x="2400" y="1187" width="20" height="20" as="geometry"/>
        </mxCell>
        <mxCell id="9AVgp09xEN1EnIahCrB5-258" value="" style="shape=ellipse;fillColor=#0066CC;strokeColor=none;html=1" vertex="1" parent="EzjNGXoy3JmWEZeVmx8U-1">
          <mxGeometry x="2200" y="1227" width="20" height="20" as="geometry"/>
        </mxCell>
        <mxCell id="9AVgp09xEN1EnIahCrB5-259" value="" style="shape=ellipse;fillColor=#0066CC;strokeColor=none;html=1" vertex="1" parent="EzjNGXoy3JmWEZeVmx8U-1">
          <mxGeometry x="2240" y="1227" width="20" height="20" as="geometry"/>
        </mxCell>
        <mxCell id="9AVgp09xEN1EnIahCrB5-260" value="" style="shape=ellipse;fillColor=#0066CC;strokeColor=none;html=1" vertex="1" parent="EzjNGXoy3JmWEZeVmx8U-1">
          <mxGeometry x="2280" y="1227" width="20" height="20" as="geometry"/>
        </mxCell>
        <mxCell id="9AVgp09xEN1EnIahCrB5-261" value="" style="shape=ellipse;fillColor=#0066CC;strokeColor=none;html=1" vertex="1" parent="EzjNGXoy3JmWEZeVmx8U-1">
          <mxGeometry x="2320" y="1227" width="20" height="20" as="geometry"/>
        </mxCell>
        <mxCell id="9AVgp09xEN1EnIahCrB5-262" value="" style="shape=ellipse;fillColor=#0066CC;strokeColor=none;html=1" vertex="1" parent="EzjNGXoy3JmWEZeVmx8U-1">
          <mxGeometry x="2360" y="1227" width="20" height="20" as="geometry"/>
        </mxCell>
        <mxCell id="9AVgp09xEN1EnIahCrB5-263" value="" style="shape=ellipse;fillColor=#0066CC;strokeColor=none;html=1" vertex="1" parent="EzjNGXoy3JmWEZeVmx8U-1">
          <mxGeometry x="2400" y="1227" width="20" height="20" as="geometry"/>
        </mxCell>
        <mxCell id="9AVgp09xEN1EnIahCrB5-264" value="" style="shape=ellipse;fillColor=#0066CC;strokeColor=none;html=1" vertex="1" parent="EzjNGXoy3JmWEZeVmx8U-1">
          <mxGeometry x="2200" y="1267" width="20" height="20" as="geometry"/>
        </mxCell>
        <mxCell id="9AVgp09xEN1EnIahCrB5-265" value="" style="shape=ellipse;fillColor=#0066CC;strokeColor=none;html=1" vertex="1" parent="EzjNGXoy3JmWEZeVmx8U-1">
          <mxGeometry x="2240" y="1267" width="20" height="20" as="geometry"/>
        </mxCell>
        <mxCell id="9AVgp09xEN1EnIahCrB5-266" value="" style="shape=ellipse;fillColor=#0066CC;strokeColor=none;html=1" vertex="1" parent="EzjNGXoy3JmWEZeVmx8U-1">
          <mxGeometry x="2280" y="1267" width="20" height="20" as="geometry"/>
        </mxCell>
        <mxCell id="9AVgp09xEN1EnIahCrB5-267" value="" style="shape=ellipse;fillColor=#0066CC;strokeColor=none;html=1" vertex="1" parent="EzjNGXoy3JmWEZeVmx8U-1">
          <mxGeometry x="2320" y="1267" width="20" height="20" as="geometry"/>
        </mxCell>
        <mxCell id="9AVgp09xEN1EnIahCrB5-268" value="" style="shape=ellipse;fillColor=#0066CC;strokeColor=none;html=1" vertex="1" parent="EzjNGXoy3JmWEZeVmx8U-1">
          <mxGeometry x="2360" y="1267" width="20" height="20" as="geometry"/>
        </mxCell>
        <mxCell id="9AVgp09xEN1EnIahCrB5-269" value="" style="shape=ellipse;fillColor=#0066CC;strokeColor=none;html=1" vertex="1" parent="EzjNGXoy3JmWEZeVmx8U-1">
          <mxGeometry x="2400" y="1267" width="20" height="20" as="geometry"/>
        </mxCell>
        <mxCell id="9AVgp09xEN1EnIahCrB5-270" value="" style="shape=ellipse;fillColor=#0066CC;strokeColor=none;html=1" vertex="1" parent="EzjNGXoy3JmWEZeVmx8U-1">
          <mxGeometry x="2440" y="1187" width="20" height="20" as="geometry"/>
        </mxCell>
        <mxCell id="9AVgp09xEN1EnIahCrB5-271" value="" style="shape=ellipse;fillColor=#0066CC;strokeColor=none;html=1" vertex="1" parent="EzjNGXoy3JmWEZeVmx8U-1">
          <mxGeometry x="2440" y="1227" width="20" height="20" as="geometry"/>
        </mxCell>
        <mxCell id="9AVgp09xEN1EnIahCrB5-272" value="" style="shape=ellipse;fillColor=#0066CC;strokeColor=none;html=1" vertex="1" parent="EzjNGXoy3JmWEZeVmx8U-1">
          <mxGeometry x="2440" y="1267" width="20" height="20" as="geometry"/>
        </mxCell>
        <mxCell id="9AVgp09xEN1EnIahCrB5-273" value="" style="shape=ellipse;html=1" vertex="1" parent="EzjNGXoy3JmWEZeVmx8U-1">
          <mxGeometry x="2200" y="1147" width="20" height="20" as="geometry"/>
        </mxCell>
        <mxCell id="9AVgp09xEN1EnIahCrB5-274" value="" style="shape=ellipse;html=1" vertex="1" parent="EzjNGXoy3JmWEZeVmx8U-1">
          <mxGeometry x="2240" y="1147" width="20" height="20" as="geometry"/>
        </mxCell>
        <mxCell id="9AVgp09xEN1EnIahCrB5-275" value="" style="shape=ellipse;html=1" vertex="1" parent="EzjNGXoy3JmWEZeVmx8U-1">
          <mxGeometry x="2280" y="1147" width="20" height="20" as="geometry"/>
        </mxCell>
        <mxCell id="9AVgp09xEN1EnIahCrB5-276" value="" style="shape=ellipse;html=1" vertex="1" parent="EzjNGXoy3JmWEZeVmx8U-1">
          <mxGeometry x="2320" y="1147" width="20" height="20" as="geometry"/>
        </mxCell>
        <mxCell id="9AVgp09xEN1EnIahCrB5-277" value="" style="shape=ellipse;html=1" vertex="1" parent="EzjNGXoy3JmWEZeVmx8U-1">
          <mxGeometry x="2360" y="1147" width="20" height="20" as="geometry"/>
        </mxCell>
        <mxCell id="9AVgp09xEN1EnIahCrB5-278" value="" style="shape=ellipse;html=1" vertex="1" parent="EzjNGXoy3JmWEZeVmx8U-1">
          <mxGeometry x="2400" y="1147" width="20" height="20" as="geometry"/>
        </mxCell>
        <mxCell id="9AVgp09xEN1EnIahCrB5-279" value="" style="shape=ellipse;html=1" vertex="1" parent="EzjNGXoy3JmWEZeVmx8U-1">
          <mxGeometry x="2440" y="1147" width="20" height="20" as="geometry"/>
        </mxCell>
        <mxCell id="9AVgp09xEN1EnIahCrB5-280" value="" style="shape=ellipse;html=1" vertex="1" parent="EzjNGXoy3JmWEZeVmx8U-1">
          <mxGeometry x="2200" y="1307" width="20" height="20" as="geometry"/>
        </mxCell>
        <mxCell id="9AVgp09xEN1EnIahCrB5-281" value="" style="shape=ellipse;html=1" vertex="1" parent="EzjNGXoy3JmWEZeVmx8U-1">
          <mxGeometry x="2240" y="1307" width="20" height="20" as="geometry"/>
        </mxCell>
        <mxCell id="9AVgp09xEN1EnIahCrB5-282" value="" style="shape=ellipse;html=1" vertex="1" parent="EzjNGXoy3JmWEZeVmx8U-1">
          <mxGeometry x="2280" y="1307" width="20" height="20" as="geometry"/>
        </mxCell>
        <mxCell id="9AVgp09xEN1EnIahCrB5-283" value="" style="shape=ellipse;html=1" vertex="1" parent="EzjNGXoy3JmWEZeVmx8U-1">
          <mxGeometry x="2320" y="1307" width="20" height="20" as="geometry"/>
        </mxCell>
        <mxCell id="9AVgp09xEN1EnIahCrB5-284" value="" style="shape=ellipse;html=1" vertex="1" parent="EzjNGXoy3JmWEZeVmx8U-1">
          <mxGeometry x="2360" y="1307" width="20" height="20" as="geometry"/>
        </mxCell>
        <mxCell id="9AVgp09xEN1EnIahCrB5-285" value="" style="shape=ellipse;html=1" vertex="1" parent="EzjNGXoy3JmWEZeVmx8U-1">
          <mxGeometry x="2400" y="1307" width="20" height="20" as="geometry"/>
        </mxCell>
        <mxCell id="9AVgp09xEN1EnIahCrB5-286" value="" style="shape=ellipse;html=1" vertex="1" parent="EzjNGXoy3JmWEZeVmx8U-1">
          <mxGeometry x="2440" y="1307" width="20" height="20" as="geometry"/>
        </mxCell>
        <mxCell id="9AVgp09xEN1EnIahCrB5-287" value="" style="rounded=0;whiteSpace=wrap;html=1;labelBackgroundColor=none;fillColor=#f8cecc;fontSize=18;opacity=60;strokeColor=#b85450;" vertex="1" parent="EzjNGXoy3JmWEZeVmx8U-1">
          <mxGeometry x="2275" y="1187" width="30" height="100" as="geometry"/>
        </mxCell>
        <mxCell id="9AVgp09xEN1EnIahCrB5-288" value="" style="rounded=0;whiteSpace=wrap;html=1;labelBackgroundColor=none;fillColor=#f8cecc;fontSize=18;opacity=60;strokeColor=#b85450;" vertex="1" parent="EzjNGXoy3JmWEZeVmx8U-1">
          <mxGeometry x="2395" y="1227" width="30" height="100" as="geometry"/>
        </mxCell>
        <mxCell id="9AVgp09xEN1EnIahCrB5-289" value="Pad" style="text;html=1;strokeColor=none;fillColor=none;align=center;verticalAlign=middle;whiteSpace=wrap;rounded=0;labelBackgroundColor=none;fontSize=24;opacity=60;" vertex="1" parent="EzjNGXoy3JmWEZeVmx8U-1">
          <mxGeometry x="2472.5" y="1147" width="40" height="20" as="geometry"/>
        </mxCell>
        <mxCell id="9AVgp09xEN1EnIahCrB5-290" value="Pad" style="text;html=1;strokeColor=none;fillColor=none;align=center;verticalAlign=middle;whiteSpace=wrap;rounded=0;labelBackgroundColor=none;fontSize=24;opacity=60;" vertex="1" parent="EzjNGXoy3JmWEZeVmx8U-1">
          <mxGeometry x="2472.5" y="1307" width="40" height="20" as="geometry"/>
        </mxCell>
        <mxCell id="9AVgp09xEN1EnIahCrB5-291" value="M&lt;sup&gt;g&lt;/sup&gt;" style="rounded=0;whiteSpace=wrap;html=1;fontSize=40;fillColor=#f8cecc;strokeColor=#b85450;fontStyle=1" vertex="1" parent="EzjNGXoy3JmWEZeVmx8U-1">
          <mxGeometry x="850" y="1192" width="120" height="100" as="geometry"/>
        </mxCell>
        <mxCell id="9AVgp09xEN1EnIahCrB5-292" value="" style="endArrow=none;html=1;fontSize=56;strokeWidth=2;fillColor=#dae8fc;strokeColor=#6c8ebf;" edge="1" parent="EzjNGXoy3JmWEZeVmx8U-1" source="9AVgp09xEN1EnIahCrB5-305" target="9AVgp09xEN1EnIahCrB5-304">
          <mxGeometry width="50" height="50" relative="1" as="geometry">
            <mxPoint x="1937.5" y="903.5" as="sourcePoint"/>
            <mxPoint x="2042.5" y="945.5" as="targetPoint"/>
          </mxGeometry>
        </mxCell>
        <mxCell id="9AVgp09xEN1EnIahCrB5-293" value="" style="endArrow=none;html=1;fontSize=56;strokeWidth=2;fillColor=#dae8fc;strokeColor=#6c8ebf;" edge="1" parent="EzjNGXoy3JmWEZeVmx8U-1" source="9AVgp09xEN1EnIahCrB5-307" target="9AVgp09xEN1EnIahCrB5-305">
          <mxGeometry width="50" height="50" relative="1" as="geometry">
            <mxPoint x="2007.5" y="1139.5" as="sourcePoint"/>
            <mxPoint x="1867.5" y="1179.5" as="targetPoint"/>
          </mxGeometry>
        </mxCell>
        <mxCell id="9AVgp09xEN1EnIahCrB5-294" value="" style="endArrow=none;html=1;fontSize=56;strokeWidth=2;fillColor=#dae8fc;strokeColor=#6c8ebf;" edge="1" parent="EzjNGXoy3JmWEZeVmx8U-1" source="9AVgp09xEN1EnIahCrB5-308" target="9AVgp09xEN1EnIahCrB5-307">
          <mxGeometry width="50" height="50" relative="1" as="geometry">
            <mxPoint x="1917.5" y="1149.5" as="sourcePoint"/>
            <mxPoint x="1877.5" y="1189.5" as="targetPoint"/>
          </mxGeometry>
        </mxCell>
        <mxCell id="9AVgp09xEN1EnIahCrB5-295" value="" style="endArrow=none;html=1;fontSize=56;strokeWidth=2;fillColor=#dae8fc;strokeColor=#6c8ebf;" edge="1" parent="EzjNGXoy3JmWEZeVmx8U-1" source="9AVgp09xEN1EnIahCrB5-306" target="9AVgp09xEN1EnIahCrB5-307">
          <mxGeometry width="50" height="50" relative="1" as="geometry">
            <mxPoint x="1927.5" y="1159.5" as="sourcePoint"/>
            <mxPoint x="1887.5" y="1199.5" as="targetPoint"/>
          </mxGeometry>
        </mxCell>
        <mxCell id="9AVgp09xEN1EnIahCrB5-296" value="" style="endArrow=none;html=1;fontSize=56;strokeWidth=2;fillColor=#dae8fc;strokeColor=#6c8ebf;" edge="1" parent="EzjNGXoy3JmWEZeVmx8U-1" source="9AVgp09xEN1EnIahCrB5-305" target="9AVgp09xEN1EnIahCrB5-306">
          <mxGeometry width="50" height="50" relative="1" as="geometry">
            <mxPoint x="1937.5" y="1169.5" as="sourcePoint"/>
            <mxPoint x="1897.5" y="1209.5" as="targetPoint"/>
          </mxGeometry>
        </mxCell>
        <mxCell id="9AVgp09xEN1EnIahCrB5-297" value="" style="endArrow=none;html=1;fontSize=56;strokeWidth=2;fillColor=#dae8fc;strokeColor=#6c8ebf;" edge="1" parent="EzjNGXoy3JmWEZeVmx8U-1" source="9AVgp09xEN1EnIahCrB5-306" target="9AVgp09xEN1EnIahCrB5-309">
          <mxGeometry width="50" height="50" relative="1" as="geometry">
            <mxPoint x="1947.5" y="1179.5" as="sourcePoint"/>
            <mxPoint x="1907.5" y="1219.5" as="targetPoint"/>
          </mxGeometry>
        </mxCell>
        <mxCell id="9AVgp09xEN1EnIahCrB5-298" value="" style="endArrow=none;html=1;fontSize=56;strokeWidth=2;fillColor=#dae8fc;strokeColor=#6c8ebf;" edge="1" parent="EzjNGXoy3JmWEZeVmx8U-1" source="9AVgp09xEN1EnIahCrB5-311" target="9AVgp09xEN1EnIahCrB5-309">
          <mxGeometry width="50" height="50" relative="1" as="geometry">
            <mxPoint x="1957.5" y="1189.5" as="sourcePoint"/>
            <mxPoint x="1917.5" y="1229.5" as="targetPoint"/>
          </mxGeometry>
        </mxCell>
        <mxCell id="9AVgp09xEN1EnIahCrB5-299" value="" style="endArrow=none;html=1;fontSize=56;strokeWidth=2;fillColor=#dae8fc;strokeColor=#6c8ebf;" edge="1" parent="EzjNGXoy3JmWEZeVmx8U-1" source="9AVgp09xEN1EnIahCrB5-312" target="9AVgp09xEN1EnIahCrB5-311">
          <mxGeometry width="50" height="50" relative="1" as="geometry">
            <mxPoint x="1967.5" y="1199.5" as="sourcePoint"/>
            <mxPoint x="1927.5" y="1239.5" as="targetPoint"/>
          </mxGeometry>
        </mxCell>
        <mxCell id="9AVgp09xEN1EnIahCrB5-300" value="" style="endArrow=none;html=1;fontSize=56;strokeWidth=2;fillColor=#dae8fc;strokeColor=#6c8ebf;" edge="1" parent="EzjNGXoy3JmWEZeVmx8U-1" source="9AVgp09xEN1EnIahCrB5-309" target="9AVgp09xEN1EnIahCrB5-310">
          <mxGeometry width="50" height="50" relative="1" as="geometry">
            <mxPoint x="1977.5" y="1209.5" as="sourcePoint"/>
            <mxPoint x="1937.5" y="1249.5" as="targetPoint"/>
          </mxGeometry>
        </mxCell>
        <mxCell id="9AVgp09xEN1EnIahCrB5-301" value="" style="endArrow=none;html=1;fontSize=56;strokeWidth=2;fillColor=#dae8fc;strokeColor=#6c8ebf;" edge="1" parent="EzjNGXoy3JmWEZeVmx8U-1" source="9AVgp09xEN1EnIahCrB5-304" target="9AVgp09xEN1EnIahCrB5-310">
          <mxGeometry width="50" height="50" relative="1" as="geometry">
            <mxPoint x="1997.5" y="1229.5" as="sourcePoint"/>
            <mxPoint x="1957.5" y="1269.5" as="targetPoint"/>
          </mxGeometry>
        </mxCell>
        <mxCell id="9AVgp09xEN1EnIahCrB5-302" value="" style="endArrow=none;html=1;fontSize=56;strokeWidth=2;fillColor=#dae8fc;strokeColor=#6c8ebf;" edge="1" parent="EzjNGXoy3JmWEZeVmx8U-1" source="9AVgp09xEN1EnIahCrB5-308" target="9AVgp09xEN1EnIahCrB5-311">
          <mxGeometry width="50" height="50" relative="1" as="geometry">
            <mxPoint x="2007.5" y="1239.5" as="sourcePoint"/>
            <mxPoint x="1967.5" y="1279.5" as="targetPoint"/>
          </mxGeometry>
        </mxCell>
        <mxCell id="9AVgp09xEN1EnIahCrB5-303" value="" style="rounded=1;whiteSpace=wrap;html=1;fillColor=#d5e8d4;strokeColor=#82b366;opacity=60;" vertex="1" parent="EzjNGXoy3JmWEZeVmx8U-1">
          <mxGeometry x="1807.5" y="1089.5" width="310" height="305" as="geometry"/>
        </mxCell>
        <mxCell id="9AVgp09xEN1EnIahCrB5-304" value="" style="shape=ellipse;fillColor=#0066CC;strokeColor=none;html=1" vertex="1" parent="EzjNGXoy3JmWEZeVmx8U-1">
          <mxGeometry x="1827.5" y="1159.5" width="20" height="20" as="geometry"/>
        </mxCell>
        <mxCell id="9AVgp09xEN1EnIahCrB5-305" value="" style="shape=ellipse;fillColor=#0066CC;strokeColor=none;html=1" vertex="1" parent="EzjNGXoy3JmWEZeVmx8U-1">
          <mxGeometry x="1887.5" y="1099.5" width="20" height="20" as="geometry"/>
        </mxCell>
        <mxCell id="9AVgp09xEN1EnIahCrB5-306" value="" style="shape=ellipse;fillColor=#0066CC;strokeColor=none;html=1" vertex="1" parent="EzjNGXoy3JmWEZeVmx8U-1">
          <mxGeometry x="1937.5" y="1159.5" width="20" height="20" as="geometry"/>
        </mxCell>
        <mxCell id="9AVgp09xEN1EnIahCrB5-307" value="" style="shape=ellipse;fillColor=#0066CC;strokeColor=none;html=1" vertex="1" parent="EzjNGXoy3JmWEZeVmx8U-1">
          <mxGeometry x="2012.5" y="1099.5" width="20" height="20" as="geometry"/>
        </mxCell>
        <mxCell id="9AVgp09xEN1EnIahCrB5-308" value="" style="shape=ellipse;fillColor=#0066CC;strokeColor=none;html=1" vertex="1" parent="EzjNGXoy3JmWEZeVmx8U-1">
          <mxGeometry x="2077.5" y="1159.5" width="20" height="20" as="geometry"/>
        </mxCell>
        <mxCell id="9AVgp09xEN1EnIahCrB5-309" value="" style="shape=ellipse;fillColor=#0066CC;strokeColor=none;html=1" vertex="1" parent="EzjNGXoy3JmWEZeVmx8U-1">
          <mxGeometry x="1937.5" y="1259.5" width="20" height="20" as="geometry"/>
        </mxCell>
        <mxCell id="9AVgp09xEN1EnIahCrB5-310" value="" style="shape=ellipse;fillColor=#0066CC;strokeColor=none;html=1" vertex="1" parent="EzjNGXoy3JmWEZeVmx8U-1">
          <mxGeometry x="1867.5" y="1309.5" width="20" height="20" as="geometry"/>
        </mxCell>
        <mxCell id="9AVgp09xEN1EnIahCrB5-311" value="" style="shape=ellipse;fillColor=#0066CC;strokeColor=none;html=1" vertex="1" parent="EzjNGXoy3JmWEZeVmx8U-1">
          <mxGeometry x="2027.5" y="1299.5" width="20" height="20" as="geometry"/>
        </mxCell>
        <mxCell id="9AVgp09xEN1EnIahCrB5-312" value="" style="shape=ellipse;fillColor=#0066CC;strokeColor=none;html=1" vertex="1" parent="EzjNGXoy3JmWEZeVmx8U-1">
          <mxGeometry x="1937.5" y="1359.5" width="20" height="20" as="geometry"/>
        </mxCell>
        <mxCell id="9AVgp09xEN1EnIahCrB5-313" value="" style="edgeStyle=orthogonalEdgeStyle;rounded=0;orthogonalLoop=1;jettySize=auto;html=1;strokeWidth=10;entryX=0;entryY=0.5;entryDx=0;entryDy=0;exitX=1;exitY=0.5;exitDx=0;exitDy=0;" edge="1" parent="EzjNGXoy3JmWEZeVmx8U-1" source="9AVgp09xEN1EnIahCrB5-291" target="9AVgp09xEN1EnIahCrB5-184">
          <mxGeometry relative="1" as="geometry">
            <mxPoint x="1450.2758620689656" y="1251.8965517241377" as="targetPoint"/>
            <mxPoint x="1360" y="1251.8965517241377" as="sourcePoint"/>
          </mxGeometry>
        </mxCell>
        <mxCell id="9AVgp09xEN1EnIahCrB5-314" value="" style="rounded=0;whiteSpace=wrap;html=1;labelBackgroundColor=none;fillColor=#f8cecc;fontSize=18;opacity=60;strokeColor=#b85450;" vertex="1" parent="EzjNGXoy3JmWEZeVmx8U-1">
          <mxGeometry x="2195" y="1147" width="30" height="100" as="geometry"/>
        </mxCell>
        <mxCell id="9AVgp09xEN1EnIahCrB5-315" value="" style="edgeStyle=orthogonalEdgeStyle;rounded=0;orthogonalLoop=1;jettySize=auto;html=1;strokeWidth=10;exitX=1;exitY=0.5;exitDx=0;exitDy=0;" edge="1" parent="EzjNGXoy3JmWEZeVmx8U-1" source="9AVgp09xEN1EnIahCrB5-181">
          <mxGeometry relative="1" as="geometry">
            <mxPoint x="2579.5" y="1242" as="targetPoint"/>
            <mxPoint x="2542.8333333333335" y="659.6666666666667" as="sourcePoint"/>
            <Array as="points">
              <mxPoint x="2579" y="1242"/>
            </Array>
          </mxGeometry>
        </mxCell>
      </root>
    </mxGraphModel>
  </diagram>
</mxfile>
